<svg width="27" height="27" viewBox="0 0 27 27" fill="none" xmlns="http://www.w3.org/2000/svg">
<path d="M15.735 20.264L13.3403 17.8894C12.1847 16.7433 11.6069 16.1704 10.9439 15.9609C10.3608 15.7767 9.73399 15.7835 9.15498 15.9803C8.4966 16.2041 7.93135 16.7894 6.80086 17.96L1.0633 23.6271M15.735 20.264L16.2251 19.7781C17.3821 18.6307 17.9605 18.057 18.6243 17.8476C19.208 17.6635 19.8353 17.6707 20.4147 17.8683C21.0733 18.0928 21.6385 18.6797 22.7688 19.8533L23.9698 21.0622M15.735 20.264L21.4934 26.0337M1.0633 23.6271C1.10784 23.9889 1.1837 24.2748 1.31295 24.5285C1.58821 25.0687 2.02745 25.508 2.56772 25.7832C3.1819 26.0962 3.98592 26.0962 5.59396 26.0962H19.3759C20.3152 26.0962 20.9803 26.0962 21.4934 26.0337M1.0633 23.6271C1 23.1131 1 22.4461 1 21.5022V7.72036C1 6.11231 1 5.3083 1.31295 4.69411C1.58821 4.15385 2.02745 3.71461 2.56772 3.43933C3.1819 3.12639 3.98592 3.12639 5.59396 3.12639L13.2027 3.12623M23.9698 21.0622V21.5022C23.9698 23.1103 23.9698 23.9143 23.6569 24.5285C23.3817 25.0687 22.9424 25.508 22.4021 25.7832C22.1467 25.9134 21.8585 25.9894 21.4934 26.0337M23.9698 21.0622V13.8933M15.3561 11.7402L18.2631 11.1587C18.5166 11.108 18.6434 11.0827 18.7616 11.0363C18.8665 10.9952 18.9661 10.9418 19.0586 10.8774C19.1627 10.8047 19.2541 10.7133 19.4369 10.5306L25.4054 4.56206C26.1982 3.7692 26.1982 2.48371 25.4054 1.69084C24.6126 0.897976 23.327 0.897976 22.5342 1.69084L16.5656 7.65933C16.3829 7.84211 16.2914 7.93352 16.2188 8.03764C16.1543 8.13007 16.1011 8.22975 16.0599 8.33465C16.0135 8.45283 15.9882 8.57959 15.9374 8.83306L15.3561 11.7402Z" stroke="black" stroke-linecap="round" stroke-linejoin="round"/>
</svg>
