<svg width="21" height="21" viewBox="0 0 21 21" fill="none" xmlns="http://www.w3.org/2000/svg">
<path fill-rule="evenodd" clip-rule="evenodd" d="M2.33291 10.5027C2.33253 9.19872 2.64438 7.91362 3.2424 6.75488C3.84042 5.59613 4.70721 4.59743 5.77027 3.84231C6.83334 3.08719 8.06177 2.5976 9.35281 2.4145C10.6438 2.2314 11.96 2.3601 13.1911 2.78985C13.4833 2.89165 13.804 2.87318 14.0827 2.73852C14.3613 2.60385 14.575 2.36401 14.6768 2.07177C14.7786 1.77952 14.7602 1.4588 14.6255 1.18017C14.4908 0.901539 14.251 0.687815 13.9587 0.586016C11.809 -0.163984 9.47367 -0.194889 7.30482 0.497959C5.13596 1.19081 3.25107 2.56986 1.93426 4.42727C0.617436 6.28468 -0.0599592 8.51979 0.00416755 10.7957C0.0682943 13.0717 0.870468 15.2651 2.28978 17.0454C3.7091 18.8257 5.66864 20.0965 7.87307 20.6661C10.0775 21.2357 12.4074 21.0734 14.5115 20.2035C16.6156 19.3336 18.38 17.8034 19.5387 15.8435C20.6973 13.8835 21.1875 11.6 20.9354 9.33718C20.9185 9.18489 20.8719 9.03741 20.798 8.90316C20.7242 8.76892 20.6246 8.65053 20.505 8.55476C20.3854 8.45899 20.2481 8.38772 20.101 8.34501C19.9538 8.3023 19.7997 8.28899 19.6474 8.30585C19.4951 8.3227 19.3476 8.36938 19.2134 8.44323C19.0791 8.51708 18.9607 8.61665 18.865 8.73625C18.7692 8.85585 18.6979 8.99315 18.6552 9.14029C18.6125 9.28744 18.5992 9.44156 18.6161 9.59385C18.739 10.6974 18.6355 11.8144 18.3121 12.8766C17.9886 13.9388 17.4519 14.9239 16.7349 15.7717C16.0178 16.6195 15.1354 17.3121 14.1415 17.8073C13.1477 18.3024 12.0633 18.5897 10.9547 18.6516C9.84604 18.7135 8.73643 18.5486 7.69366 18.1671C6.65089 17.7856 5.69688 17.1955 4.88991 16.4328C4.08295 15.6701 3.44 14.7508 3.00035 13.7312C2.5607 12.7116 2.3336 11.613 2.33291 10.5027ZM19.5412 4.27502C19.7461 4.04295 19.8503 3.73902 19.8311 3.43009C19.8118 3.12115 19.6706 2.83252 19.4386 2.62768C19.2065 2.42285 18.9026 2.31859 18.5936 2.33784C18.2847 2.3571 17.9961 2.49829 17.7912 2.73035L10.2837 11.2237L6.57024 8.19851C6.45151 8.10169 6.31486 8.02919 6.16811 7.98517C6.02136 7.94116 5.86737 7.92647 5.71494 7.94197C5.4071 7.97325 5.1243 8.12555 4.92875 8.36535C4.83192 8.48409 4.75942 8.62073 4.71541 8.76748C4.67139 8.91424 4.6567 9.06822 4.6722 9.22065C4.70348 9.52849 4.85578 9.81129 5.09558 10.0068L9.67941 13.7402C9.91293 13.9302 10.2109 14.0225 10.5109 13.998C10.811 13.9734 11.0899 13.8338 11.2894 13.6083L19.5412 4.27502Z" fill="#D26EA4"/>
</svg>
