<svg width="302" height="43" viewBox="0 0 302 43" fill="none" xmlns="http://www.w3.org/2000/svg">
<path d="M21.1448 2.23C19.7725 2.05847 18.4002 2.05845 17.0279 2.40153C15.6556 2.7446 14.2833 3.25923 13.0826 3.94539C11.8818 4.63154 10.5095 5.66075 9.48024 6.68998C8.27947 7.71921 7.25023 9.09152 6.39254 10.4638C7.25023 12.5223 8.45101 14.0661 9.99485 15.0954C11.5387 16.1246 13.4256 16.8107 15.3125 16.9823C17.5425 17.1538 19.4295 17.1538 21.1448 16.4677C22.8602 15.953 24.061 15.0954 25.0902 14.0661C26.1195 13.0369 26.8056 11.8361 27.1487 10.6354C27.4918 9.4346 27.6633 8.06229 27.3202 7.03306C26.9771 5.83229 26.291 4.80308 25.2618 3.94539C24.4041 3.0877 22.8602 2.40154 21.1448 2.23ZM26.6341 22.6431C26.291 23.5007 25.7764 24.1869 25.4333 24.8731C25.0902 25.5592 24.5756 26.2453 24.2325 26.76C23.7179 27.4461 23.2033 27.9607 22.6887 28.4753C22.1741 28.99 21.4879 29.6761 20.6302 30.1907C19.7725 30.8769 18.7433 31.3915 17.5425 31.9061C16.3418 32.4207 15.3125 32.7638 14.1118 32.9354C12.911 33.1069 11.7102 33.1069 10.3379 32.9354C8.96562 32.7638 7.76485 32.4207 6.39254 31.9061C4.84869 31.22 3.64793 30.3623 2.6187 29.333C1.76101 28.3038 1.07486 26.9315 0.560247 25.7308C0.21717 24.3584 -0.125912 22.9861 0.0456264 21.4423C0.0456264 19.8984 0.217154 18.3546 0.731769 16.9823C1.07485 15.4384 1.58948 14.0661 2.27563 12.6938C2.96178 11.3215 3.64794 10.1208 4.50563 9.09154C4.3341 8.57692 4.16254 7.89076 4.16254 7.20461C3.991 6.51845 3.99101 5.83229 3.99101 4.9746C3.99101 4.28845 3.99101 3.43075 3.99101 2.7446C3.99101 2.05844 4.16255 1.20077 4.33408 0.51462C4.33408 0.343082 4.50563 0.171523 4.50563 0.171523C4.67717 -1.57074e-05 4.67717 0 4.8487 0C4.8487 0 5.02023 -1.57074e-05 5.02023 0.171523C5.02023 0.343061 5.02023 0.514605 5.02023 0.686143C4.84869 1.88691 4.8487 3.08769 4.8487 4.28846C5.02024 5.48923 5.02025 6.69 5.36333 7.71923C7.42179 5.14615 9.65177 3.25923 12.3964 2.23C14.9695 1.02924 17.8856 0.686138 20.8018 1.02921C22.5172 1.20075 24.061 1.71537 25.2618 2.40153C26.4625 3.08768 27.3202 3.77385 28.0064 4.80308C28.6925 5.66077 29.0356 6.68998 29.2071 7.89075C29.3787 8.91998 29.2071 10.1208 28.8641 11.15C28.521 12.1792 28.0064 13.2085 27.1487 14.2377C26.291 15.2669 25.4333 16.1246 24.061 16.8108C22.8602 17.4969 21.4879 18.0115 19.9441 18.3546C18.4002 18.6977 16.6849 18.6977 14.7979 18.3546C12.911 18.0115 11.1956 17.4969 9.48024 16.4677C7.93639 15.4384 6.56409 14.0661 5.7064 12.0077C5.53486 12.3508 5.19177 12.8654 4.67716 13.8946C4.33408 14.9238 3.81947 15.9531 3.47639 17.1538C3.13332 18.3546 2.79024 19.8984 2.6187 21.2707C2.44716 22.8146 2.44716 24.1869 2.6187 25.5592C2.79024 26.9315 3.30484 28.1323 4.16254 29.1615C5.02023 30.1907 6.22101 31.0484 7.76485 31.563C9.82331 32.0777 11.8818 32.2492 14.1118 32.0777C16.3418 31.7346 18.4002 31.22 20.1156 30.0192C20.9733 29.5046 21.6594 28.99 22.1741 28.4753C22.6887 27.9607 23.2033 27.2746 23.7179 26.76C24.2325 26.0738 24.5756 25.5592 24.9187 24.8731C25.2618 24.1869 25.6048 23.5007 26.1194 22.6431C26.291 22.3 26.4625 22.1284 26.6341 22.3C26.8056 21.9569 26.8056 22.3 26.6341 22.6431Z" fill="black"/>
<path d="M31.9519 21.442C32.4665 21.099 32.8096 20.5844 33.1527 20.0697C33.4958 19.5551 33.6673 19.0405 33.8388 18.6974C34.0104 18.1828 34.0104 17.8397 33.8388 17.6682C33.8388 17.3251 33.4958 17.1536 33.3242 17.3251C32.9811 17.3251 32.6381 17.4967 32.1235 17.8397C31.6088 18.1828 30.9227 18.869 30.2366 19.7267C29.7219 20.2413 29.3789 20.9274 28.8642 21.6136C28.5212 22.2997 28.1781 22.8144 28.0065 23.1574C28.1781 23.1574 28.3496 23.1574 28.6927 22.9859C29.0358 22.9859 29.3789 22.8143 29.7219 22.6428C30.065 22.4713 30.4081 22.2997 30.9227 22.1282C31.2658 21.9567 31.6089 21.7851 31.9519 21.442ZM35.7258 22.4713C35.3827 23.1574 35.0396 24.0151 34.6965 24.8728C34.3535 25.7305 33.8388 26.4167 33.3242 27.1028C32.8096 27.789 32.1235 28.3036 31.4373 28.8182C30.7512 29.3328 29.8935 29.5043 28.8642 29.5043C28.0065 29.5043 27.1488 29.1613 26.4627 28.6467C25.7765 28.132 25.4335 27.2743 25.4335 26.0736C25.4335 25.559 25.4335 24.8728 25.605 24.3582C25.7765 23.672 25.9481 23.1574 26.1196 22.4713C26.4627 21.7851 26.6342 21.2705 26.9773 20.7559C27.3204 20.2413 27.6635 19.7267 28.1781 19.212C28.6927 18.6974 29.2073 18.1828 29.7219 17.6682C30.2365 17.1536 30.9227 16.8105 31.4373 16.639C31.9519 16.4674 32.4665 16.2959 33.1527 16.2959C33.6673 16.2959 34.1819 16.4674 34.525 16.8105C34.8681 17.1536 35.0396 17.4967 35.2112 17.8397C35.2112 18.1828 35.2111 18.6974 35.0396 19.212C34.8681 19.7267 34.525 20.2413 34.1819 20.7559C33.8388 21.2705 33.3242 21.7851 32.6381 22.1282C32.295 22.2997 31.9519 22.6428 31.6088 22.8144C31.2658 22.9859 30.7511 23.1574 30.4081 23.329C29.8935 23.5005 29.5504 23.6721 29.2073 23.6721C28.8642 23.6721 28.5211 23.8436 28.1781 23.8436C28.0065 24.1867 27.835 24.7013 27.835 25.2159C27.6635 25.7305 27.6635 26.4167 27.6635 26.9313C27.6635 27.4459 27.835 27.9605 28.1781 28.3036C28.5211 28.6467 28.8642 28.9897 29.5504 28.9897C30.4081 28.9897 31.0942 28.8182 31.7804 28.3036C32.4665 27.789 32.9812 27.2744 33.4958 26.5882C34.0104 25.902 34.3535 25.2159 34.8681 24.5297C35.2112 23.8436 35.5542 23.1574 35.7258 22.6428C35.7258 22.4713 35.8973 22.2997 36.0688 22.2997C36.2404 22.1282 36.2404 22.1282 36.4119 22.1282C36.5835 22.1282 36.5835 22.1282 36.5835 22.2997C35.8973 22.1282 35.8973 22.2997 35.7258 22.4713Z" fill="black"/>
<path d="M48.0765 22.6428C47.7334 23.1575 47.3903 23.8436 47.0472 24.7013C46.7041 25.559 46.1895 26.2451 45.6749 26.9313C45.1603 27.6175 44.6457 28.3036 43.9595 28.8182C43.2734 29.3328 42.7588 29.6759 41.9011 29.6759C41.558 29.6759 41.2149 29.6759 40.8719 29.5044C40.5288 29.3328 40.1857 29.1613 40.0142 28.8182C39.8426 28.4752 39.6711 27.9605 39.6711 27.4459C39.6711 26.9313 39.6711 26.2452 40.0142 25.3875C40.1857 24.8728 40.3572 24.3582 40.7003 23.6721C41.0434 22.9859 41.558 22.2998 42.0726 21.4421C42.2442 21.099 42.4157 20.7559 42.4157 20.4128C42.4157 20.0698 42.4157 19.8982 42.0726 19.8982C41.9011 19.8982 41.558 19.8982 41.0434 20.2413C40.5288 20.4129 40.0141 20.9274 39.328 21.6136C38.6418 22.1282 37.9557 22.9859 37.098 24.1867C36.2403 25.3874 35.2111 26.9313 34.1818 28.9898C34.0103 29.3328 33.8388 29.5044 33.6672 29.5044C33.4957 29.5044 33.1526 29.5044 32.8096 29.5044C32.4665 29.5044 32.2949 29.5044 32.1234 29.5044C31.9518 29.5044 31.7803 29.5044 31.6088 29.6759C32.4665 27.9605 33.3241 26.2451 34.1818 24.3582C35.0395 22.6428 35.8972 20.9275 36.7549 19.2121C37.2695 18.3544 37.6126 17.6682 37.9557 17.3251C38.2988 16.9821 38.8134 16.8105 39.328 16.8105C39.4995 16.8105 39.8426 16.8105 40.0142 16.9821C40.3572 16.9821 40.5288 16.9821 40.8719 16.9821C40.5288 17.1536 40.3572 17.4967 39.8426 18.0113C39.4995 18.5259 38.9849 19.0405 38.6418 19.7267C38.2988 20.4128 37.7842 21.099 37.4411 21.7851C37.098 22.4713 36.7549 23.1574 36.4118 23.8436C36.7549 23.329 37.2695 22.8144 37.7842 22.1282C38.2988 21.4421 38.8134 20.9275 39.4995 20.4128C40.0142 20.0698 40.5288 19.5551 41.2149 19.2121C41.9011 18.6975 42.5872 18.3544 43.1019 18.0113C43.788 17.6682 44.3026 17.3252 44.9888 17.1536C45.5034 16.9821 46.018 16.9821 46.3611 16.9821C45.6749 18.3544 44.9888 19.5551 44.3026 20.7559C43.9595 21.2705 43.788 21.7852 43.4449 22.2998C43.1018 22.8144 42.9303 23.329 42.7588 23.8436C42.5872 24.3582 42.4157 24.8728 42.2442 25.2159C42.0726 25.7305 41.9011 26.0736 41.9011 26.4167C41.7295 27.1028 41.7295 27.6175 41.9011 27.9605C42.0726 28.1321 42.2441 28.3036 42.4157 28.3036C42.9303 28.3036 43.4449 27.9605 43.9595 27.4459C44.4742 26.9313 44.9888 26.2451 45.5034 25.559C46.018 24.8728 46.3611 24.1867 46.7041 23.5005C47.0472 22.8144 47.3903 22.2998 47.5618 21.7851C47.7334 21.4421 47.9049 21.2705 48.0765 21.4421C48.248 21.9567 48.248 22.2998 48.0765 22.6428Z" fill="black"/>
<path d="M51.8501 16.1245C51.5071 16.9821 51.164 17.8398 50.8209 18.6975C50.4778 19.5552 50.1348 20.2414 49.9632 20.9275C50.6494 20.2414 51.3355 19.3837 52.0217 18.526C52.7078 17.6683 53.2224 16.8106 53.7371 15.9529H51.8501V16.1245ZM55.9671 11.6645C56.1386 11.3214 56.3101 10.8068 56.4817 10.2922C56.6532 9.77754 56.6532 9.43447 56.6532 9.0914C56.6532 8.74832 56.4817 8.7483 56.3101 8.7483C56.1386 8.7483 55.624 9.26292 55.1094 10.1206C54.5948 10.8068 54.2517 11.4929 53.7371 12.5222C53.394 13.5514 52.8794 14.4091 52.3647 15.6098H54.2517C54.7663 14.066 55.4524 12.8652 55.9671 11.6645ZM56.6532 15.4383C56.8247 15.4383 56.8248 15.4383 56.8248 15.6098C56.8248 15.7814 56.8248 15.7814 56.8248 15.9529C56.8248 16.1245 56.8247 16.1245 56.6532 16.296C56.6532 16.4675 56.4817 16.4675 56.4817 16.4675H54.4232C53.7371 17.4968 53.0509 18.526 52.3647 19.5552C51.6786 20.5844 50.6494 21.6137 49.6201 22.4714C49.4486 22.6429 49.4486 22.986 49.2771 23.5006C49.1055 23.8437 49.1055 24.3583 48.934 24.7014C48.7624 25.216 48.7624 25.7306 48.5909 26.2452C48.4194 26.9314 48.4194 27.2744 48.5909 27.6175C48.7624 27.9606 48.934 28.3037 49.1055 28.3037C49.2771 28.4752 49.6201 28.4752 49.9632 28.4752C50.3063 28.4752 50.6494 28.3037 50.9924 28.1321C51.8501 27.446 52.5363 26.5883 53.2224 25.5591C53.9086 24.5298 54.4232 23.5006 54.9378 22.4714C55.1094 22.1283 55.2809 21.9568 55.4524 22.1283C55.624 22.1283 55.624 22.4714 55.4524 22.8145C55.1094 23.6722 54.5947 24.3583 54.4232 24.8729C54.0801 25.3875 53.9086 25.9021 53.5655 26.4168C53.2224 26.9314 53.0509 27.2744 52.7078 27.6175C52.3647 27.9606 52.1932 28.3037 51.8501 28.6468C51.3355 29.1614 50.8209 29.5045 50.1347 29.676C49.4486 29.8475 48.934 29.8475 48.4194 29.5044C47.9047 29.3329 47.3901 28.8183 47.0471 28.3037C46.704 27.6175 46.704 26.9314 46.704 25.9021C46.704 25.216 46.8755 24.5298 47.0471 23.8437C47.2186 22.986 47.5617 22.2998 47.7332 21.4422C48.0763 20.5845 48.2478 19.7268 48.5909 18.8691C48.934 18.0114 49.2771 17.3252 49.4486 16.4675H47.5617C47.3901 16.4675 47.3901 16.4675 47.3901 16.296C47.3901 16.1245 47.3901 16.1245 47.3901 15.9529C47.3901 15.7814 47.3901 15.7814 47.5617 15.6098C47.5617 15.4383 47.7332 15.4383 47.7332 15.4383H49.9632C50.3063 14.5806 50.8209 13.5514 51.3355 12.6937C51.8501 11.836 52.1932 10.9783 52.7078 10.1206C53.394 9.09138 54.0801 8.2337 54.7663 7.71908C55.4524 7.20447 56.1386 7.03292 56.6532 7.20446C57.1678 7.376 57.5109 7.89061 57.5109 8.7483C57.5109 9.60599 57.3394 10.6352 56.6532 12.1791C56.1386 13.2083 55.624 14.2375 55.1094 15.2668H56.6532V15.4383Z" fill="black"/>
<path d="M60.7701 21.442C61.2848 21.099 61.6279 20.5844 61.9709 20.0697C62.314 19.5551 62.4855 19.0405 62.6571 18.6974C62.8286 18.1828 62.8286 17.8397 62.6571 17.6682C62.6571 17.3251 62.314 17.1536 62.1425 17.3251C61.7994 17.3251 61.4563 17.4967 60.9417 17.8397C60.4271 18.1828 59.7409 18.869 59.0548 19.7267C58.5401 20.2413 58.1971 20.9274 57.6825 21.6136C57.3394 22.2997 56.9963 22.8144 56.8248 23.1574C56.9963 23.1574 57.1679 23.1574 57.5109 22.9859C57.854 22.9859 58.1971 22.8143 58.5402 22.6428C58.8832 22.4713 59.2263 22.2997 59.7409 22.1282C60.084 21.9567 60.4271 21.7851 60.7701 21.442ZM64.544 22.4713C64.2009 23.1574 63.8578 24.0151 63.5148 24.8728C63.1717 25.7305 62.6571 26.4167 62.1425 27.1028C61.6278 27.789 60.9417 28.3036 60.2556 28.8182C59.5694 29.3328 58.7117 29.5043 57.6825 29.5043C56.8248 29.5043 55.9671 29.1613 55.2809 28.6467C54.5948 28.132 54.2517 27.2743 54.2517 26.0736C54.2517 25.559 54.2517 24.8728 54.4232 24.3582C54.5948 23.672 54.7663 23.1574 54.9379 22.4713C55.2809 21.7851 55.4525 21.2705 55.7955 20.7559C56.1386 20.2413 56.4817 19.7267 56.9963 19.212C57.5109 18.6974 58.0256 18.1828 58.5402 17.6682C59.0548 17.1536 59.7409 16.8105 60.2556 16.639C60.7702 16.4674 61.2848 16.2959 61.9709 16.2959C62.4855 16.2959 63.0001 16.4674 63.3432 16.8105C63.6863 17.1536 63.8579 17.4967 64.0294 17.8397C64.0294 18.1828 64.0294 18.6974 63.8578 19.212C63.6863 19.7267 63.3432 20.2413 63.0001 20.7559C62.6571 21.2705 62.1425 21.7851 61.4563 22.1282C61.1132 22.2997 60.7702 22.6428 60.4271 22.8144C60.084 22.9859 59.5694 23.1574 59.2263 23.329C58.7117 23.5005 58.3686 23.6721 58.0255 23.6721C57.6825 23.6721 57.3394 23.8436 56.9963 23.8436C56.8248 24.1867 56.6532 24.7013 56.6532 25.2159C56.4817 25.7305 56.4817 26.4167 56.4817 26.9313C56.4817 27.4459 56.6532 27.9605 56.9963 28.3036C57.3394 28.6467 57.6825 28.9897 58.3686 28.9897C59.2263 28.9897 59.9125 28.8182 60.5986 28.3036C61.2848 27.789 61.7994 27.2744 62.314 26.5882C62.8286 25.902 63.1717 25.2159 63.6863 24.5297C64.0294 23.8436 64.3725 23.1574 64.544 22.6428C64.544 22.4713 64.7155 22.2997 64.8871 22.2997C65.0586 22.1282 65.0586 22.1282 65.2302 22.1282C65.4017 22.1282 65.4017 22.1282 65.4017 22.2997C64.7155 22.1282 64.7155 22.2997 64.544 22.4713Z" fill="black"/>
<path d="M74.1501 22.6429C73.807 23.1575 73.6355 23.8436 73.1209 24.5298C72.7778 25.2159 72.2632 25.9021 71.9201 26.5882C71.4055 27.2744 71.0624 27.789 70.3762 28.3036C69.8616 28.8182 69.347 29.1613 68.6609 29.3328C68.3178 29.3328 67.9747 29.3328 67.6316 29.3328C67.2885 29.1613 66.9455 28.9898 66.6024 28.6467C66.2593 28.3036 66.0878 27.789 66.0878 27.1029C66.0878 26.4167 66.2593 25.7305 66.6024 24.7013C66.7739 24.3582 66.9455 24.0152 67.117 23.5005C67.2886 23.1575 67.6316 22.6429 67.8032 22.2998C67.9747 21.9567 68.3178 21.6136 68.4893 21.2705C68.6609 20.9275 68.8324 20.5844 69.0039 20.4128C69.347 19.7267 69.1755 19.3836 68.4893 19.0405C67.9747 18.6975 67.117 18.6975 66.0878 18.6975L65.5732 19.8982C65.4016 20.4128 65.0586 21.099 64.7155 21.9567C64.3724 22.6429 64.0293 23.5005 63.6863 24.1867C63.3432 25.0444 62.8285 25.7305 62.4855 26.4167C61.9709 27.1028 61.6278 27.6175 61.1132 28.1321C60.9416 28.3036 60.7701 28.3036 60.7701 28.1321C60.5985 27.9605 60.7701 27.789 60.7701 27.6175C61.4562 26.5882 62.1424 25.559 62.8286 24.5298C63.5147 23.329 64.0293 22.2998 64.544 21.099C65.0586 19.8982 65.4016 18.6975 65.7447 17.4967C66.0878 16.2959 66.2593 15.2667 66.6024 14.2375C66.7739 13.7229 66.9455 13.3798 67.117 13.2082C67.4601 13.0367 67.6316 13.0367 67.9747 13.2082C68.3178 13.3798 68.4893 13.5513 68.6609 14.0659C68.8324 14.409 68.8324 14.9236 68.8324 15.6098C68.6609 16.1244 68.4893 16.639 67.9747 16.9821C67.4601 17.4967 67.117 17.8398 66.7739 18.0113C67.4601 18.0113 68.3178 18.0113 69.1755 18.0113C70.0332 18.0113 70.8908 17.8398 71.9201 17.8398C71.9201 18.0113 72.0916 18.1829 71.9201 18.3544C71.9201 18.5259 71.7486 18.869 71.7486 19.0405C71.577 19.3836 71.577 19.5552 71.4055 19.8982C71.2339 20.2413 71.2339 20.4129 71.0624 20.5844C70.8908 20.7559 70.7193 21.099 70.5478 21.6136C70.3763 22.1282 70.0332 22.6429 69.6901 23.1575C69.347 23.6721 69.1755 24.3582 68.8324 25.0444C68.4893 25.7305 68.3178 26.2451 68.3178 26.7598C68.1463 27.2744 68.1462 27.789 68.1462 28.1321C68.1462 28.4751 68.4893 28.6467 68.8324 28.6467C69.1755 28.6467 69.6901 28.4752 70.0332 27.9606C70.5478 27.4459 70.8909 26.9313 71.4055 26.2452C71.9201 25.559 72.2632 24.8728 72.6062 24.1867C72.9493 23.5005 73.2924 22.9859 73.4639 22.4713C73.6355 22.1282 73.807 21.9567 73.9786 22.1282C74.3216 21.9567 74.3216 22.2998 74.1501 22.6429Z" fill="black"/>
<path d="M90.7895 17.6684C90.4464 17.4968 89.9318 17.6684 89.4172 17.8399C88.9026 18.0114 88.5595 18.3545 88.0449 18.8691C87.5302 19.3838 87.1872 19.8984 86.6726 20.413C86.158 21.0991 85.8149 21.7853 85.4718 22.4714C85.1287 23.1576 84.7856 24.0153 84.6141 24.7014C84.4426 25.3876 84.271 25.9022 84.271 26.5884C84.271 27.103 84.271 27.6176 84.4426 27.9607C84.6141 28.3038 84.7857 28.4753 85.1287 28.6468C85.4718 28.8184 85.8149 28.6468 86.3295 28.4753C86.8441 28.3037 87.1872 27.9607 87.7018 27.6176C87.5303 27.2745 87.3587 26.9314 87.1872 26.7599C87.0156 26.4168 87.0157 26.0737 87.0157 25.9022C87.0157 25.5591 87.1872 25.0445 87.3587 24.873C87.5302 24.5299 87.8733 24.3584 88.3879 24.3584C88.731 24.3584 88.9026 24.5299 89.2456 24.7014C89.4172 24.873 89.5887 25.216 89.5887 25.5591V25.7307V25.9022C89.9318 25.216 90.4464 24.7014 90.7895 23.8437C91.1326 23.1576 91.4756 22.2999 91.6472 21.6137C91.8187 20.9276 91.9903 20.2414 91.9903 19.7268C91.9903 19.2122 91.9903 18.6976 91.8187 18.3545C91.3041 18.0114 90.961 17.8399 90.7895 17.6684ZM96.1072 22.4714C95.9356 22.8145 95.7641 23.3291 95.421 24.0153C95.078 24.7014 94.7349 25.5591 94.2202 26.2453C93.7056 26.9314 93.191 27.6176 92.5049 28.1322C91.8187 28.6468 91.1326 28.9899 90.4464 28.9899C89.9318 28.9899 89.4172 28.8184 89.0741 28.6468C88.731 28.4753 88.3879 28.3038 88.2164 27.9607C87.7018 28.3038 87.1872 28.6468 86.6726 28.8184C86.158 28.9899 85.6433 29.1614 85.1287 29.1614C84.4426 29.1614 83.928 28.9899 83.4133 28.4753C83.0703 28.1322 82.7272 27.6176 82.5557 26.9314C82.3841 26.2453 82.3841 25.5591 82.5557 24.873C82.7272 24.0153 82.8987 23.3291 83.2418 22.4714C83.5849 21.6137 84.0995 20.7561 84.6141 20.0699C85.1287 19.3837 85.8149 18.6976 86.3295 18.0114C87.0156 17.4968 87.5302 16.9822 88.2164 16.6391C88.9026 16.2961 89.5887 16.1245 90.1033 16.1245C90.7895 16.1245 91.3041 16.2961 91.8187 16.6391C92.1618 16.9822 92.5049 17.4968 92.6764 18.183C92.8479 18.8691 92.8479 19.5553 92.6764 20.413C92.5049 21.2707 92.3333 21.9568 91.9903 22.8145C91.6472 23.5007 91.3041 24.1868 90.7895 25.0445C90.2749 25.9022 89.5887 26.5884 88.9025 27.2745C89.2456 27.9607 89.7602 28.1322 90.6179 28.1322C91.1325 28.1322 91.8187 27.9607 92.3333 27.4461C92.8479 26.9314 93.3626 26.4168 93.7056 25.7307C94.2203 25.0445 94.5633 24.3584 94.9064 23.6722C95.2495 22.9861 95.5925 22.2999 95.7641 21.9568C95.9356 21.7853 95.9356 21.6137 96.2787 21.7853C96.1072 21.9568 96.2787 22.1283 96.1072 22.4714Z" fill="black"/>
<path d="M96.6218 29.5047C96.2787 29.5047 95.9357 29.5047 95.4211 29.3331C95.078 29.1616 94.7349 28.9901 94.3918 28.8185C93.7057 30.3624 93.1911 32.0777 92.6765 33.6216C92.1618 35.1654 91.6472 36.7093 91.4757 37.91C91.3041 38.9393 91.1326 39.797 91.1326 40.3116C91.1326 40.8262 91.3041 40.9978 91.6472 41.1693C91.8188 41.1693 92.1618 41.1693 92.5049 40.8262C92.848 40.4831 93.1911 40.14 93.5341 39.6254C94.0488 39.1108 94.3919 38.2531 94.7349 37.567C95.078 36.7093 95.421 35.8516 95.7641 34.9939C96.1072 34.1362 96.2788 33.107 96.4503 32.2493C96.4503 31.2201 96.6218 30.3624 96.6218 29.5047ZM96.4503 28.8185C96.4503 28.1324 96.2788 27.6178 96.1072 27.1032C95.9357 26.7601 95.7642 26.417 95.5926 26.2455C95.4211 26.5885 95.2495 26.9316 95.2495 27.1032C95.078 27.4462 94.9064 27.6178 94.9064 27.9608C95.078 28.1324 95.2495 28.3039 95.4211 28.4754C95.7642 28.647 95.9357 28.647 96.2788 28.647H96.4503V28.8185ZM106.743 6.51855C106.228 7.03317 105.37 7.89085 104.513 9.26315C103.655 10.4639 102.797 12.0078 101.768 13.7232C100.739 15.4385 99.8811 17.3255 98.6803 19.3839C97.6511 21.4424 96.6218 23.5008 95.7641 25.5593C95.9357 25.9024 96.2788 26.2454 96.4503 26.7601C96.6219 27.2747 96.7934 27.7893 96.9649 28.4754V28.647C96.9649 28.8185 96.9649 28.8185 96.9649 28.8185C97.4795 28.8185 97.9941 28.647 98.5087 28.3039C99.0234 27.7893 99.538 27.2747 100.053 26.5885C100.567 25.9024 100.91 25.2162 101.425 24.3585C101.768 23.5008 102.111 22.8147 102.454 22.3001C102.626 22.1285 102.797 21.957 102.969 21.957C103.14 21.957 103.14 22.1285 103.14 22.4716C102.797 23.3293 102.454 24.0155 101.94 24.8732C101.596 25.7308 101.082 26.417 100.567 27.1032C100.053 27.7893 99.538 28.3039 99.0234 28.8185C98.5088 29.3332 97.8226 29.5047 97.1365 29.5047C97.308 30.877 97.1364 32.2493 96.7934 33.6216C96.4503 35.1654 96.1072 36.5378 95.5926 37.7385C95.078 39.1108 94.3918 40.1401 93.5341 40.9977C92.6765 41.8554 91.8188 42.1985 90.7895 42.1985C90.2749 42.1985 89.7603 42.027 89.4172 41.8554C89.0742 41.5124 88.9026 41.1693 88.9026 40.3116C88.9026 39.797 88.9026 38.9393 89.2457 38.0816C89.4172 37.2239 89.7603 36.3662 90.1034 35.337C90.4465 34.3077 90.7896 33.2785 91.3042 32.0778C91.8188 30.877 92.3334 29.6762 92.848 28.4754C92.6765 28.1324 92.5049 27.7893 92.5049 27.6178C92.5049 27.2747 92.5049 26.9316 92.5049 26.5885C92.5049 26.2455 92.6765 26.0739 92.6765 25.7308C92.848 25.5593 93.0195 25.2162 93.191 25.2162C93.5341 24.8731 94.0488 24.7016 94.5634 24.8732C95.2495 23.3293 95.9357 21.957 96.6218 20.4131C97.308 18.8693 97.9941 17.497 98.6803 16.1247C99.3664 14.7524 99.8811 13.5516 100.567 12.3508C101.253 11.1501 101.768 10.1209 102.283 9.09163C102.626 8.23394 103.14 7.71931 103.655 7.2047C104.17 6.69008 104.684 6.51855 105.542 6.51855C105.713 6.51855 106.056 6.51854 106.4 6.69008C106.228 6.51854 106.571 6.51855 106.743 6.51855Z" fill="black"/>
<path d="M113.604 28.8183C113.261 28.6467 112.918 28.3037 112.575 27.789C112.232 27.2744 112.06 26.7598 112.06 26.0737C111.717 26.4167 111.546 26.7598 111.546 27.1029C111.374 27.446 111.374 27.7891 111.546 27.9606C111.546 28.3037 111.717 28.4752 112.06 28.6467C112.232 28.8183 112.575 28.9898 112.918 28.9898C113.089 28.8183 113.433 28.8183 113.604 28.8183ZM115.834 24.5298C115.834 24.0152 115.834 23.329 115.834 22.6429C115.834 21.9567 115.662 21.4421 115.662 20.756C115.491 20.0698 115.491 19.5552 115.491 19.0406C115.491 18.526 115.491 18.0114 115.491 17.4967C115.319 18.0114 114.976 18.526 114.633 19.2121C114.29 19.8983 113.947 20.4129 113.776 21.0991C113.432 21.7852 113.089 22.2998 112.918 22.986C112.575 23.5006 112.403 24.0152 112.06 24.3583C112.232 24.3583 112.403 24.3583 112.403 24.5298C112.575 24.5298 112.575 24.7014 112.746 24.8729C112.746 25.0444 112.918 25.216 112.918 25.559C112.918 26.2452 113.089 26.9314 113.261 27.446C113.604 27.9606 113.947 28.3036 114.462 28.4752C114.805 28.1321 115.319 27.6175 115.491 27.1029C115.662 26.4167 115.834 25.5591 115.834 24.5298ZM122.352 22.4713C122.009 23.1575 121.666 24.0152 121.152 25.0444C120.637 25.9021 120.123 26.7598 119.608 27.446C118.922 28.1321 118.236 28.6467 117.378 29.1614C116.52 29.5044 115.662 29.5044 114.633 29.3329C114.119 29.5044 113.604 29.676 113.089 29.676C112.06 29.676 111.203 29.3329 110.688 28.8183C110.173 28.3037 109.83 27.6175 109.83 27.1029C109.83 26.4167 109.83 25.9021 110.173 25.3875C110.516 24.8729 110.859 24.5298 111.202 24.5298C111.717 23.6721 112.232 22.6429 112.746 21.4421C113.261 20.2414 113.776 19.2121 114.29 18.1829C114.462 17.8398 114.633 17.4967 114.805 17.1537C114.976 16.8106 115.319 16.4675 115.491 16.1244C115.834 15.7814 116.006 15.6098 116.349 15.4383C116.692 15.2667 117.035 15.0952 117.206 15.0952C117.721 15.0952 118.236 15.0952 118.579 15.2667C118.922 15.4383 119.093 15.6098 119.093 15.7814C119.093 15.9529 118.922 15.9529 118.579 15.7814C118.407 15.7814 118.236 15.6098 118.064 15.6098C117.892 15.6098 117.721 15.6098 117.549 15.7814C117.206 15.9529 116.863 16.296 116.692 16.639C116.52 16.9821 116.349 17.4967 116.349 17.8398C116.349 18.3544 116.349 18.6975 116.52 19.2121C116.692 19.7267 116.692 20.0698 116.863 20.4129C117.206 21.099 117.549 21.7852 117.721 22.4713C118.064 23.1575 118.236 23.8437 118.064 24.7013C118.064 25.3875 117.721 26.0737 117.206 26.9313C116.692 27.6175 116.177 28.3037 115.319 28.8183H115.662C116.349 28.9898 116.863 28.8183 117.378 28.4752C117.892 28.1321 118.407 27.6175 118.922 27.1029C119.093 26.9314 119.436 26.5883 119.608 26.0737C119.779 25.7306 120.123 25.216 120.294 24.8729C120.466 24.3583 120.809 24.0152 120.98 23.5006C121.152 22.986 121.495 22.6429 121.666 22.2998C121.838 22.1283 121.838 21.9567 122.009 22.1283C122.353 22.1283 122.524 22.1283 122.352 22.4713Z" fill="black"/>
<path d="M130.072 22.3C130.758 21.0992 131.101 20.2415 131.101 19.3839C131.101 18.5262 131.101 18.0115 130.758 17.6685C130.415 17.3254 129.9 17.3254 129.386 17.6685C128.699 18.0115 128.013 18.6977 127.327 19.7269C126.641 20.7562 125.783 21.9569 124.926 23.3292C124.068 24.8731 123.21 26.4169 122.352 27.9608C122.867 28.4754 123.382 28.4754 124.068 28.3038C124.754 28.1323 125.44 27.6177 126.298 27.1031C126.984 26.4169 127.842 25.7308 128.528 24.8731C128.871 24.0154 129.557 23.1577 130.072 22.3ZM130.929 16.4677C131.787 16.6392 132.302 17.1539 132.645 18.0115C132.816 18.8692 132.816 19.7269 132.645 20.5846C132.473 21.6138 132.13 22.6431 131.444 23.6723C130.929 24.7015 130.243 25.7308 129.557 26.4169C129.042 27.1031 128.528 27.6177 127.842 27.9608C127.156 28.4754 126.469 28.6469 125.783 28.99C125.097 29.1615 124.411 29.3331 123.725 29.1615C123.039 29.1615 122.352 28.8184 121.666 28.4754L118.236 37.2238C117.892 38.0815 117.549 38.5961 117.206 38.7677C116.863 39.1107 116.349 39.1108 115.834 39.1108C115.662 39.1108 115.319 39.1108 115.148 38.9392C114.805 38.9392 114.633 38.7677 114.29 38.9392C114.462 38.7677 114.805 38.4246 115.148 37.7385C115.491 37.0523 116.006 36.1946 116.52 35.1654C117.035 34.1361 117.721 33.1069 118.236 31.9061C118.922 30.7054 119.436 29.5046 119.951 28.3038C120.466 27.1031 120.98 26.0738 121.323 25.0446C121.666 24.0154 122.009 23.3292 122.009 22.8146C121.838 23.1577 121.666 23.3292 121.323 23.5008C121.152 23.6723 120.98 23.5008 121.152 23.1577C121.323 22.9862 121.323 22.6431 121.495 22.3C121.666 21.9569 121.838 21.6138 121.838 21.4423C122.009 21.0992 122.181 20.5846 122.352 20.07C122.524 19.5554 122.524 19.0408 122.696 18.5262C122.696 18.0115 122.696 17.6685 122.696 17.3254C122.696 16.9823 122.524 16.8108 122.181 16.8108C122.524 16.8108 122.696 16.6392 123.039 16.6392C123.21 16.6392 123.382 16.6392 123.725 16.4677C123.896 16.4677 124.068 16.4677 124.068 16.4677C124.411 16.4677 124.582 16.4677 124.754 16.4677C124.926 16.4677 125.097 16.4677 125.097 16.6392C125.269 16.6392 125.269 16.8108 125.269 17.1539C125.269 17.3254 125.269 17.6685 125.269 18.1831C125.269 18.8692 125.097 19.5554 124.926 20.4131C124.754 21.2708 124.411 21.9569 124.239 22.6431C124.582 22.1285 124.926 21.6138 125.44 20.7561C125.955 19.8984 126.469 19.2123 127.156 18.5262C127.842 17.84 128.356 17.3254 129.042 16.8108C129.729 16.4677 130.415 16.2961 130.929 16.4677Z" fill="black"/>
<path d="M134.703 26.2452C134.532 26.9314 134.532 27.446 134.532 27.789C134.532 28.3037 134.875 28.4752 135.389 28.4752C135.733 28.4752 135.904 28.4752 136.247 28.3037C136.59 28.1321 136.762 27.9606 137.105 27.789C137.791 27.1029 138.306 26.4167 138.992 25.3875C139.506 24.3583 140.193 23.329 140.707 22.2998C140.879 21.9567 141.05 21.7852 141.222 21.9567C141.393 22.1283 141.393 22.2998 141.222 22.6429C141.05 23.1575 140.707 23.8437 140.364 24.5298C140.021 25.216 139.506 26.0736 138.992 26.7598C138.477 27.4459 137.963 28.1321 137.276 28.6467C136.762 29.1613 136.076 29.3329 135.389 29.3329C134.703 29.3329 134.189 29.1614 133.846 28.8183C133.503 28.4752 133.159 28.1321 133.159 27.6175C132.988 27.1029 132.988 26.5883 133.159 26.0737C133.159 25.559 133.331 25.0444 133.503 24.5298L135.904 18.526C136.076 18.1829 136.076 17.8398 135.904 17.4967C135.733 17.1537 135.561 16.9821 135.561 16.9821H137.619C138.134 16.9821 138.477 17.1536 138.649 17.3252C138.649 17.4967 138.649 17.8398 138.477 18.3544L135.561 25.216C135.561 25.3875 135.389 25.559 135.389 25.7306C135.389 25.9021 135.218 25.9021 135.218 26.0737C134.703 26.0737 134.703 26.2452 134.703 26.2452ZM139.849 13.8944C139.849 14.2375 139.506 14.7521 139.163 14.9237C138.82 15.2667 138.477 15.4383 137.963 15.4383C137.448 15.4383 137.276 15.2667 136.933 14.9237C136.762 14.5806 136.59 14.2375 136.59 13.8944C136.59 13.5513 136.933 13.0367 137.276 12.8652C137.619 12.5221 137.963 12.3506 138.477 12.3506C138.992 12.3506 139.163 12.5221 139.506 12.8652C139.849 13.2083 139.849 13.5513 139.849 13.8944Z" fill="black"/>
<path d="M150.656 22.6429C150.313 23.1575 150.142 23.8436 149.627 24.5298C149.284 25.2159 148.769 25.9021 148.426 26.5882C147.912 27.2744 147.569 27.789 146.883 28.3036C146.368 28.8182 145.853 29.1613 145.167 29.3328C144.824 29.3328 144.481 29.3328 144.138 29.3328C143.795 29.1613 143.452 28.9898 143.109 28.6467C142.766 28.3036 142.594 27.789 142.594 27.1029C142.594 26.4167 142.766 25.7305 143.109 24.7013C143.28 24.3582 143.452 24.0152 143.623 23.5005C143.795 23.1575 144.138 22.6429 144.309 22.2998C144.481 21.9567 144.824 21.6136 144.996 21.2705C145.167 20.9275 145.339 20.5844 145.51 20.4128C145.853 19.7267 145.682 19.3836 144.996 19.0405C144.481 18.6975 143.623 18.6975 142.594 18.6975L142.079 19.8982C141.908 20.4128 141.565 21.099 141.222 21.9567C140.879 22.6429 140.536 23.5005 140.193 24.1867C139.849 25.0444 139.335 25.7305 138.992 26.4167C138.477 27.1028 138.134 27.6175 137.619 28.1321C137.448 28.3036 137.276 28.3036 137.276 28.1321C137.105 27.9605 137.276 27.789 137.276 27.6175C137.963 26.5882 138.649 25.559 139.335 24.5298C140.021 23.329 140.536 22.2998 141.05 21.099C141.565 19.8982 141.908 18.6975 142.251 17.4967C142.594 16.2959 142.766 15.2667 143.109 14.2375C143.28 13.7229 143.452 13.3798 143.623 13.2082C143.966 13.0367 144.138 13.0367 144.481 13.2082C144.824 13.3798 144.996 13.5513 145.167 14.0659C145.339 14.409 145.339 14.9236 145.339 15.6098C145.167 16.1244 144.996 16.639 144.481 16.9821C143.966 17.4967 143.623 17.8398 143.28 18.0113C143.966 18.0113 144.824 18.0113 145.682 18.0113C146.539 18.0113 147.397 17.8398 148.426 17.8398C148.426 18.0113 148.598 18.1829 148.426 18.3544C148.426 18.5259 148.255 18.869 148.255 19.0405C148.083 19.3836 148.083 19.5552 147.912 19.8982C147.74 20.2413 147.74 20.4129 147.569 20.5844C147.397 20.7559 147.226 21.099 147.054 21.6136C146.883 22.1282 146.539 22.6429 146.196 23.1575C145.853 23.6721 145.682 24.3582 145.339 25.0444C144.996 25.7305 144.824 26.2451 144.824 26.7598C144.653 27.2744 144.653 27.789 144.653 28.1321C144.653 28.4751 144.996 28.6467 145.339 28.6467C145.682 28.6467 146.196 28.4752 146.539 27.9606C147.054 27.4459 147.397 26.9313 147.912 26.2452C148.426 25.559 148.769 24.8728 149.113 24.1867C149.456 23.5005 149.799 22.9859 149.97 22.4713C150.142 22.1282 150.313 21.9567 150.485 22.1282C150.828 21.9567 150.828 22.2998 150.656 22.6429Z" fill="black"/>
<path d="M150.656 26.2452C150.485 26.9314 150.485 27.446 150.485 27.789C150.485 28.3037 150.828 28.4752 151.342 28.4752C151.686 28.4752 151.857 28.4752 152.2 28.3037C152.543 28.1321 152.715 27.9606 153.058 27.789C153.744 27.1029 154.259 26.4167 154.945 25.3875C155.459 24.3583 156.145 23.329 156.66 22.2998C156.832 21.9567 157.003 21.7852 157.175 21.9567C157.346 22.1283 157.346 22.2998 157.175 22.6429C157.003 23.1575 156.66 23.8437 156.317 24.5298C155.974 25.216 155.459 26.0736 154.945 26.7598C154.43 27.4459 153.915 28.1321 153.229 28.6467C152.715 29.1613 152.029 29.3329 151.342 29.3329C150.656 29.3329 150.142 29.1614 149.799 28.8183C149.455 28.4752 149.112 28.1321 149.112 27.6175C148.941 27.1029 148.941 26.5883 149.112 26.0737C149.112 25.559 149.284 25.0444 149.456 24.5298L151.857 18.526C152.029 18.1829 152.029 17.8398 151.857 17.4967C151.686 17.1537 151.514 16.9821 151.514 16.9821H153.572C154.087 16.9821 154.43 17.1536 154.602 17.3252C154.602 17.4967 154.602 17.8398 154.43 18.3544L151.514 25.216C151.514 25.3875 151.342 25.559 151.342 25.7306C151.342 25.9021 151.171 25.9021 151.171 26.0737C150.656 26.0737 150.656 26.2452 150.656 26.2452ZM155.802 13.8944C155.802 14.2375 155.459 14.7521 155.116 14.9237C154.773 15.2667 154.43 15.4383 153.916 15.4383C153.401 15.4383 153.229 15.2667 152.886 14.9237C152.715 14.5806 152.543 14.2375 152.543 13.8944C152.543 13.5513 152.886 13.0367 153.229 12.8652C153.572 12.5221 153.916 12.3506 154.43 12.3506C154.945 12.3506 155.116 12.5221 155.459 12.8652C155.802 13.2083 155.974 13.5513 155.802 13.8944Z" fill="black"/>
<path d="M160.777 16.1245C160.434 16.9821 160.091 17.8398 159.748 18.6975C159.405 19.5552 159.062 20.2414 158.89 20.9275C159.576 20.2414 160.262 19.3837 160.949 18.526C161.635 17.6683 162.149 16.8106 162.664 15.9529H160.777V16.1245ZM164.894 11.6645C165.065 11.3214 165.237 10.8068 165.409 10.2922C165.58 9.77754 165.58 9.43447 165.58 9.0914C165.58 8.74832 165.409 8.7483 165.237 8.7483C165.065 8.7483 164.551 9.26292 164.036 10.1206C163.522 10.8068 163.179 11.4929 162.664 12.5222C162.321 13.5514 161.806 14.4091 161.292 15.6098H163.179C163.693 14.066 164.379 12.8652 164.894 11.6645ZM165.58 15.4383C165.752 15.4383 165.752 15.4383 165.752 15.6098C165.752 15.7814 165.752 15.7814 165.752 15.9529C165.752 16.1245 165.752 16.1245 165.58 16.296C165.58 16.4675 165.409 16.4675 165.409 16.4675H163.35C162.664 17.4968 161.978 18.526 161.292 19.5552C160.605 20.5844 159.576 21.6137 158.547 22.4714C158.375 22.6429 158.375 22.986 158.204 23.5006C158.032 23.8437 158.032 24.3583 157.861 24.7014C157.689 25.216 157.689 25.7306 157.518 26.2452C157.346 26.9314 157.346 27.2744 157.518 27.6175C157.689 27.9606 157.861 28.3037 158.032 28.3037C158.204 28.4752 158.547 28.4752 158.89 28.4752C159.233 28.4752 159.576 28.3037 159.919 28.1321C160.777 27.446 161.463 26.5883 162.149 25.5591C162.835 24.5298 163.35 23.5006 163.865 22.4714C164.036 22.1283 164.208 21.9568 164.379 22.1283C164.551 22.1283 164.551 22.4714 164.379 22.8145C164.036 23.6722 163.522 24.3583 163.35 24.8729C163.007 25.3875 162.835 25.9021 162.492 26.4168C162.149 26.9314 161.978 27.2744 161.635 27.6175C161.292 27.9606 161.12 28.3037 160.777 28.6468C160.262 29.1614 159.748 29.5045 159.062 29.676C158.375 29.8475 157.861 29.8475 157.346 29.5044C156.832 29.3329 156.317 28.8183 155.974 28.3037C155.631 27.6175 155.631 26.9314 155.631 25.9021C155.631 25.216 155.802 24.5298 155.974 23.8437C156.145 22.986 156.489 22.2998 156.66 21.4422C157.003 20.5845 157.175 19.7268 157.518 18.8691C157.861 18.0114 158.204 17.3252 158.375 16.4675H156.489C156.317 16.4675 156.317 16.4675 156.317 16.296C156.317 16.1245 156.317 16.1245 156.317 15.9529C156.317 15.7814 156.317 15.7814 156.489 15.6098C156.489 15.4383 156.66 15.4383 156.66 15.4383H158.89C159.233 14.5806 159.748 13.5514 160.262 12.6937C160.777 11.836 161.12 10.9783 161.635 10.1206C162.321 9.09138 163.007 8.2337 163.693 7.71908C164.379 7.20447 165.065 7.03292 165.58 7.20446C166.095 7.376 166.438 7.89061 166.438 8.7483C166.438 9.60599 166.266 10.6352 165.58 12.1791C165.065 13.2083 164.551 14.2375 164.036 15.2668H165.58V15.4383Z" fill="black"/>
<path d="M177.588 22.6432C177.245 23.3293 176.902 24.0155 176.559 24.7016C176.216 25.5593 175.701 26.2455 175.186 26.9316C174.672 27.6178 174.157 28.1324 173.643 28.647C173.128 29.1616 172.442 29.3331 171.756 29.3331C171.413 29.3331 170.898 29.1616 170.726 28.9901C170.383 28.8185 170.212 28.4755 170.04 28.1324C169.869 27.7893 169.869 27.2747 169.869 26.5886C169.869 26.0739 170.04 25.3878 170.212 24.5301C169.869 25.0447 169.526 25.7309 169.183 26.2455C168.84 26.7601 168.325 27.2747 167.982 27.7893C167.467 28.3039 167.124 28.647 166.61 28.8186C166.095 29.1616 165.752 29.1616 165.237 29.1616C165.066 29.1616 164.894 29.1616 164.551 29.1616C164.379 29.1616 164.036 28.9901 163.865 28.9901C163.693 28.8185 163.522 28.647 163.179 28.4755C163.007 28.3039 162.836 27.9608 162.836 27.6178C162.836 27.2747 162.664 26.7601 162.836 26.417C162.836 26.0739 163.007 25.7309 163.179 25.3878C163.35 25.0447 163.522 24.7016 163.693 24.3585C163.865 24.0155 164.036 23.6724 164.208 23.3293C164.036 23.3293 164.036 23.3293 163.865 23.1578C163.693 23.1578 163.693 22.9862 163.865 22.6432C164.036 22.4716 164.036 22.3001 164.208 21.957C164.38 21.7855 164.379 21.4424 164.551 21.2709C164.894 20.5847 165.237 19.8986 165.58 19.2124C165.923 18.5262 166.266 17.8401 166.61 17.3255C166.781 16.9824 166.953 16.8109 167.124 16.6393C167.296 16.4678 167.639 16.4678 167.982 16.4678H170.212C170.04 16.6393 169.869 16.8109 169.697 16.9824C169.526 17.1539 169.354 17.3255 169.183 17.497C169.011 17.6686 168.839 18.0116 168.668 18.3547C168.496 18.6978 168.325 19.0409 167.982 19.5555C167.639 20.2416 167.296 20.7562 167.124 21.4424C166.781 21.957 166.609 22.4716 166.266 22.9862C166.095 23.5009 165.752 24.0155 165.58 24.3585C165.066 25.3878 164.894 26.0739 164.894 26.7601C164.894 27.4462 164.894 27.7893 165.237 28.1324C165.409 28.4755 165.752 28.4755 166.266 28.3039C166.781 28.1324 167.296 27.6178 167.81 26.9316C168.325 26.417 168.84 25.5593 169.354 24.8732C169.869 24.0155 170.383 23.1578 170.726 22.3001C171.241 21.4424 171.584 20.5847 172.099 19.727C172.613 18.8693 172.956 18.0116 173.299 17.3255C173.471 16.9824 173.643 16.8109 173.814 16.6393C173.986 16.4678 174.329 16.4678 174.672 16.4678H176.73C176.387 16.6393 176.216 16.8109 176.044 17.1539C175.873 17.3255 175.701 17.497 175.529 17.8401C175.358 18.1832 175.186 18.3547 175.015 18.8693C174.843 19.2124 174.5 19.727 174.329 20.2416C173.986 20.7563 173.814 21.2709 173.471 21.7855C173.128 22.3001 172.956 22.8147 172.785 23.3293C172.613 23.8439 172.27 24.3586 172.099 24.8732C171.927 25.3878 171.756 25.7309 171.756 26.0739C171.584 26.9316 171.584 27.4462 171.756 27.7893C171.927 28.1324 172.099 28.3039 172.442 28.3039C172.956 28.3039 173.299 28.1324 173.814 27.7893C174.329 27.4462 174.672 26.9316 175.186 26.2455C175.701 25.5593 176.044 25.0447 176.387 24.187C176.73 23.5008 177.073 22.8147 177.416 22.1285C177.588 21.7855 177.76 21.6139 177.931 21.7855C177.76 21.957 177.759 22.3001 177.588 22.6432Z" fill="black"/>
<path d="M190.453 22.6429C190.11 23.1575 189.767 23.8437 189.424 24.7014C189.081 25.3875 188.566 26.2452 188.052 26.9314C187.537 27.6175 187.023 28.3037 186.508 28.8183C185.993 29.3329 185.479 29.676 184.793 29.676C184.449 29.676 184.106 29.676 183.763 29.5044C183.42 29.3329 183.077 29.1614 182.906 28.8183C182.734 28.4752 182.563 27.9606 182.563 27.2744C182.563 26.5883 182.563 25.9021 182.906 24.8729C182.563 25.3875 182.219 25.9021 181.705 26.5883C181.19 27.2745 180.676 27.7891 180.161 28.3037C179.475 28.9898 178.789 29.3329 178.274 29.5044C177.588 29.676 177.245 29.5044 176.73 29.1614C176.387 28.8183 176.044 28.3037 175.873 27.7891C175.701 27.1029 175.701 26.4168 175.701 25.3875C175.873 24.5298 176.044 23.5006 176.559 22.4714C177.073 21.4421 177.759 20.2414 178.617 19.2121C179.132 18.526 179.818 18.0114 180.504 17.4968C181.362 16.9821 182.048 16.6391 182.906 16.4675C183.763 16.296 184.449 16.296 185.307 16.4675C185.993 16.6391 186.679 16.9821 187.194 17.4968C187.537 17.8398 187.537 18.0114 187.366 18.3545C187.194 18.526 187.023 18.6975 186.679 18.6975C186.508 18.0114 186.165 17.6683 185.479 17.4968C184.793 17.3252 184.278 17.4968 183.592 17.8398C182.734 18.3544 181.876 19.0406 181.019 20.0698C180.161 21.0991 179.303 22.1283 178.617 23.1575C178.617 23.3291 178.446 23.5006 178.274 23.6722C178.103 24.0152 177.931 24.1868 177.759 24.5298C177.588 24.8729 177.416 25.216 177.245 25.5591C177.073 25.9021 177.073 26.2452 176.902 26.5883C176.73 27.2745 176.902 27.6175 177.073 27.9606C177.245 28.3037 177.588 28.4752 177.931 28.4752C178.274 28.4752 178.617 28.3037 179.132 28.1321C179.646 27.7891 179.989 27.446 180.504 26.9314C181.19 26.0737 181.705 25.3875 182.219 24.3583C182.734 23.5006 183.249 22.6429 183.763 21.6137C184.106 20.756 184.621 20.2414 184.964 19.7268C185.307 19.3837 185.822 19.0406 186.336 19.2121C186.508 19.2121 186.851 19.2122 187.023 19.3837C187.366 19.3837 187.537 19.3837 187.88 19.3837C187.709 19.5552 187.366 19.8983 187.023 20.4129C186.679 20.9275 186.336 21.6137 185.993 22.2998C185.65 22.986 185.307 23.6721 184.964 24.3583C184.621 25.0444 184.449 25.7306 184.278 26.2452C183.935 27.7891 184.106 28.4752 184.621 28.4752C184.964 28.4752 185.479 28.3037 185.993 27.7891C186.508 27.2744 186.851 26.7598 187.366 26.0737C187.88 25.3875 188.223 24.7014 188.566 24.0152C188.909 23.3291 189.253 22.8145 189.424 22.2998C189.596 21.9568 189.767 21.7852 189.939 21.9568C190.625 21.9568 190.625 22.2998 190.453 22.6429Z" fill="black"/>
<path d="M199.03 10.6352C199.202 10.2921 199.373 9.77748 199.545 9.26286C199.716 8.74825 199.716 8.40517 199.716 8.0621C199.716 7.71902 199.545 7.71903 199.373 7.71903C199.202 7.71903 198.859 8.23364 198.344 8.91979C197.829 9.60594 197.315 10.4636 196.8 11.4929C196.286 12.5221 195.599 13.7229 195.085 14.7521C194.57 15.9529 194.056 16.9821 193.541 18.1828C193.026 19.3836 192.683 20.2413 192.34 20.9275C193.026 20.2413 193.713 19.5552 194.227 18.6975C194.913 17.8398 195.428 16.9821 196.114 16.1244C196.629 15.2667 197.315 14.2375 197.658 13.3798C198.173 12.3506 198.687 11.4929 199.03 10.6352ZM199.545 11.1498C198.687 13.0367 197.658 14.9236 196.457 16.8106C195.256 18.6975 193.713 20.4129 191.997 22.1282C191.826 22.4713 191.826 22.8144 191.654 23.1575C191.483 23.5006 191.311 24.0152 191.311 24.5298C190.968 25.559 190.968 26.5882 191.139 27.1029C191.311 27.789 191.654 28.1321 191.997 28.3036C192.512 28.4752 192.855 28.4752 193.541 28.1321C194.056 27.789 194.57 27.4459 195.085 26.7598C195.428 26.2451 195.599 25.9021 195.943 25.3875C196.286 24.8729 196.457 24.5298 196.8 24.0152C196.972 23.6721 197.315 23.1575 197.486 22.8144C197.658 22.4713 197.829 22.1283 198.001 21.9567C198.173 21.6136 198.344 21.4421 198.516 21.6136C198.687 21.6136 198.687 21.7852 198.516 22.2998C198.344 22.8144 198.001 23.5005 197.658 24.1867C197.315 25.0444 196.8 25.7305 196.286 26.4167C195.771 27.1028 195.085 27.789 194.399 28.3036C193.713 28.8182 192.855 29.1613 191.997 29.1613C191.311 29.1613 190.796 28.9898 190.453 28.8182C190.11 28.4752 189.767 28.3036 189.596 27.789C189.424 27.4459 189.424 26.9313 189.424 26.4167C189.424 25.9021 189.424 25.3875 189.596 24.8729C189.767 24.3582 189.767 23.8436 189.939 23.329C190.11 22.8144 190.282 22.4713 190.282 21.9567C190.625 20.9275 190.968 19.8982 191.311 18.6975C191.654 17.4967 192.169 16.4675 192.683 15.2667C193.198 14.0659 193.713 13.0367 194.227 12.0075C194.742 10.9783 195.256 9.94903 195.771 9.09134C196.457 8.06211 197.143 7.2044 197.829 6.68979C198.516 6.17517 199.202 6.00363 199.716 6.17517C200.231 6.3467 200.574 6.86132 200.574 7.54748C200.574 8.57671 200.231 9.77749 199.545 11.1498Z" fill="black"/>
<path d="M217.728 22.6432C217.213 23.6724 216.87 24.5301 216.356 25.3878C215.841 26.2455 215.498 26.9316 214.812 27.6178C214.297 28.3039 213.611 28.8186 212.925 29.1616C212.239 29.5047 211.381 29.6762 210.352 29.6762C209.323 29.6762 208.636 29.5047 208.122 29.1616C207.607 28.8186 207.093 28.3039 206.921 27.7893C206.749 27.2747 206.578 26.5885 206.578 25.9024C206.578 25.2162 206.749 24.5301 206.921 23.6724C207.093 22.9863 207.436 22.1286 207.779 21.4424C208.122 20.7562 208.636 20.0701 208.979 19.3839C209.666 18.5263 210.523 17.6686 211.381 17.1539C212.239 16.6393 213.096 16.4678 213.954 16.4678C214.812 16.4678 215.498 16.6393 216.012 17.1539C216.527 17.6686 216.527 18.1832 216.527 19.0408C216.527 19.3839 216.356 19.727 216.184 19.8985C216.012 20.2416 215.841 20.4132 215.498 20.7562C215.326 20.9278 214.983 21.0993 214.64 21.0993C214.297 21.0993 214.126 21.0993 213.954 20.9278C214.126 20.7562 214.297 20.4132 214.64 20.0701C214.983 19.727 214.983 19.3839 215.155 19.0408C215.326 18.3547 215.326 18.0116 215.155 17.6686C214.983 17.3255 214.812 17.3255 214.469 17.3255C214.126 17.3255 213.782 17.497 213.439 17.6686C213.096 17.8401 212.753 18.1832 212.41 18.3547C212.067 18.6978 211.724 19.0409 211.381 19.3839C211.038 19.727 210.695 20.0701 210.523 20.5847C210.352 20.7562 210.18 21.0993 209.837 21.6139C209.666 21.957 209.322 22.4716 209.151 22.9862C208.979 23.5009 208.808 24.0155 208.636 24.5301C208.465 25.0447 208.465 25.7309 208.465 26.2455C208.465 26.9316 208.636 27.6178 208.979 28.1324C209.322 28.647 209.837 28.9901 210.695 28.9901C211.552 28.9901 212.239 28.8186 212.925 28.3039C213.611 27.9609 214.126 27.4462 214.64 26.7601C215.155 26.0739 215.669 25.3878 216.012 24.7016C216.356 24.0155 216.87 23.1578 217.213 22.4716C217.385 22.1285 217.556 21.957 217.728 22.1285C217.899 21.957 217.899 22.3001 217.728 22.6432Z" fill="black"/>
<path d="M226.991 22.6429C226.648 23.1575 226.476 23.8436 225.962 24.5298C225.619 25.2159 225.104 25.9021 224.761 26.5882C224.246 27.2744 223.903 27.789 223.217 28.3036C222.702 28.8182 222.188 29.1613 221.502 29.3328C221.159 29.3328 220.816 29.3328 220.472 29.3328C220.129 29.1613 219.786 28.9898 219.443 28.6467C219.1 28.3036 218.929 27.789 218.929 27.1029C218.929 26.4167 219.1 25.7305 219.443 24.7013C219.615 24.3582 219.786 24.0152 219.958 23.5005C220.129 23.1575 220.472 22.6429 220.644 22.2998C220.816 21.9567 221.159 21.6136 221.33 21.2705C221.502 20.9275 221.673 20.5844 221.845 20.4128C222.188 19.7267 222.016 19.3836 221.33 19.0405C220.816 18.6975 219.958 18.6975 218.929 18.6975L218.414 19.8982C218.242 20.4128 217.899 21.099 217.556 21.9567C217.213 22.6429 216.87 23.5005 216.527 24.1867C216.184 25.0444 215.669 25.7305 215.326 26.4167C214.812 27.1028 214.469 27.6175 213.954 28.1321C213.782 28.3036 213.611 28.3036 213.611 28.1321C213.439 27.9605 213.611 27.789 213.611 27.6175C214.297 26.5882 214.983 25.559 215.669 24.5298C216.356 23.329 216.87 22.2998 217.385 21.099C217.899 19.8982 218.242 18.6975 218.586 17.4967C218.929 16.2959 219.1 15.2667 219.443 14.2375C219.615 13.7229 219.786 13.3798 219.958 13.2082C220.301 13.0367 220.472 13.0367 220.816 13.2082C221.159 13.3798 221.33 13.5513 221.502 14.0659C221.673 14.409 221.673 14.9236 221.673 15.6098C221.502 16.1244 221.33 16.639 220.816 16.9821C220.301 17.4967 219.958 17.8398 219.615 18.0113C220.301 18.0113 221.159 18.0113 222.016 18.0113C222.874 18.0113 223.732 17.8398 224.761 17.8398C224.761 18.0113 224.932 18.1829 224.761 18.3544C224.761 18.5259 224.589 18.869 224.589 19.0405C224.418 19.3836 224.418 19.5552 224.246 19.8982C224.075 20.2413 224.075 20.4129 223.903 20.5844C223.732 20.7559 223.56 21.099 223.389 21.6136C223.217 22.1282 222.874 22.6429 222.531 23.1575C222.188 23.6721 222.016 24.3582 221.673 25.0444C221.33 25.7305 221.159 26.2451 221.159 26.7598C220.987 27.2744 220.987 27.789 220.987 28.1321C220.987 28.4751 221.33 28.6467 221.673 28.6467C222.016 28.6467 222.531 28.4752 222.874 27.9606C223.389 27.4459 223.732 26.9313 224.246 26.2452C224.761 25.559 225.104 24.8728 225.447 24.1867C225.79 23.5005 226.133 22.9859 226.305 22.4713C226.476 22.1282 226.648 21.9567 226.819 22.1282C227.162 21.9567 227.162 22.2998 226.991 22.6429Z" fill="black"/>
<path d="M232.309 21.442C232.823 21.099 233.166 20.5844 233.509 20.0697C233.852 19.5551 234.024 19.0405 234.195 18.6974C234.367 18.1828 234.367 17.8397 234.195 17.6682C234.195 17.3251 233.852 17.1536 233.681 17.3251C233.338 17.3251 232.995 17.4967 232.48 17.8397C231.965 18.1828 231.279 18.869 230.593 19.7267C230.079 20.2413 229.735 20.9274 229.221 21.6136C228.878 22.2997 228.535 22.8144 228.363 23.1574C228.535 23.1574 228.706 23.1574 229.049 22.9859C229.392 22.9859 229.735 22.8143 230.079 22.6428C230.422 22.4713 230.765 22.2997 231.279 22.1282C231.622 21.9567 231.965 21.7851 232.309 21.442ZM236.082 22.4713C235.739 23.1574 235.396 24.0151 235.053 24.8728C234.71 25.7305 234.195 26.4167 233.681 27.1028C233.166 27.789 232.48 28.3036 231.794 28.8182C231.108 29.3328 230.25 29.5043 229.221 29.5043C228.363 29.5043 227.505 29.1613 226.819 28.6467C226.133 28.132 225.79 27.2743 225.79 26.0736C225.79 25.559 225.79 24.8728 225.962 24.3582C226.133 23.672 226.305 23.1574 226.476 22.4713C226.819 21.7851 226.991 21.2705 227.334 20.7559C227.677 20.2413 228.02 19.7267 228.535 19.212C229.049 18.6974 229.564 18.1828 230.079 17.6682C230.593 17.1536 231.279 16.8105 231.794 16.639C232.309 16.4674 232.823 16.2959 233.509 16.2959C234.024 16.2959 234.539 16.4674 234.882 16.8105C235.225 17.1536 235.396 17.4967 235.568 17.8397C235.568 18.1828 235.568 18.6974 235.396 19.212C235.225 19.7267 234.882 20.2413 234.539 20.7559C234.195 21.2705 233.681 21.7851 232.995 22.1282C232.652 22.2997 232.309 22.6428 231.965 22.8144C231.622 22.9859 231.108 23.1574 230.765 23.329C230.25 23.5005 229.907 23.6721 229.564 23.6721C229.221 23.6721 228.878 23.8436 228.535 23.8436C228.363 24.1867 228.192 24.7013 228.192 25.2159C228.02 25.7305 228.02 26.4167 228.02 26.9313C228.02 27.4459 228.192 27.9605 228.535 28.3036C228.878 28.6467 229.221 28.9897 229.907 28.9897C230.765 28.9897 231.451 28.8182 232.137 28.3036C232.823 27.789 233.338 27.2744 233.852 26.5882C234.367 25.902 234.71 25.2159 235.225 24.5297C235.568 23.8436 235.911 23.1574 236.082 22.6428C236.082 22.4713 236.254 22.2997 236.425 22.2997C236.597 22.1282 236.597 22.1282 236.769 22.1282C236.94 22.1282 236.94 22.1282 236.94 22.2997C236.254 22.1282 236.254 22.2997 236.082 22.4713Z" fill="black"/>
<path d="M248.948 22.6429C248.605 23.1575 248.262 23.8437 247.919 24.7014C247.575 25.3875 247.061 26.2452 246.546 26.9314C246.032 27.6175 245.517 28.3037 245.002 28.8183C244.488 29.3329 243.973 29.676 243.287 29.676C242.944 29.676 242.601 29.676 242.258 29.5044C241.915 29.3329 241.572 29.1614 241.4 28.8183C241.229 28.4752 241.057 27.9606 241.057 27.2744C241.057 26.5883 241.057 25.9021 241.4 24.8729C241.057 25.3875 240.714 25.9021 240.199 26.5883C239.685 27.2745 239.17 27.7891 238.656 28.3037C237.969 28.9898 237.283 29.3329 236.769 29.5044C236.082 29.676 235.739 29.5044 235.225 29.1614C234.882 28.8183 234.539 28.3037 234.367 27.7891C234.196 27.1029 234.195 26.4168 234.195 25.3875C234.367 24.5298 234.539 23.5006 235.053 22.4714C235.568 21.4421 236.254 20.2414 237.112 19.2121C237.626 18.526 238.312 18.0114 238.999 17.4968C239.856 16.9821 240.542 16.6391 241.4 16.4675C242.258 16.296 242.944 16.296 243.802 16.4675C244.488 16.6391 245.174 16.9821 245.689 17.4968C246.032 17.8398 246.032 18.0114 245.86 18.3545C245.689 18.526 245.517 18.6975 245.174 18.6975C245.002 18.0114 244.659 17.6683 243.973 17.4968C243.287 17.3252 242.772 17.4968 242.086 17.8398C241.229 18.3544 240.371 19.0406 239.513 20.0698C238.656 21.0991 237.798 22.1283 237.112 23.1575C237.112 23.3291 236.94 23.5006 236.769 23.6722C236.597 24.0152 236.426 24.1868 236.254 24.5298C236.082 24.8729 235.911 25.216 235.739 25.5591C235.568 25.9021 235.568 26.2452 235.396 26.5883C235.225 27.2745 235.396 27.6175 235.568 27.9606C235.739 28.3037 236.082 28.4752 236.425 28.4752C236.769 28.4752 237.112 28.3037 237.626 28.1321C238.141 27.7891 238.484 27.446 238.999 26.9314C239.685 26.0737 240.199 25.3875 240.714 24.3583C241.229 23.5006 241.743 22.6429 242.258 21.6137C242.601 20.756 243.115 20.2414 243.459 19.7268C243.802 19.3837 244.316 19.0406 244.831 19.2121C245.002 19.2121 245.345 19.2122 245.517 19.3837C245.86 19.3837 246.032 19.3837 246.375 19.3837C246.203 19.5552 245.86 19.8983 245.517 20.4129C245.174 20.9275 244.831 21.6137 244.488 22.2998C244.145 22.986 243.802 23.6721 243.459 24.3583C243.115 25.0444 242.944 25.7306 242.772 26.2452C242.429 27.7891 242.601 28.4752 243.116 28.4752C243.459 28.4752 243.973 28.3037 244.488 27.7891C245.002 27.2744 245.345 26.7598 245.86 26.0737C246.375 25.3875 246.718 24.7014 247.061 24.0152C247.404 23.3291 247.747 22.8145 247.919 22.2998C248.09 21.9568 248.262 21.7852 248.433 21.9568C249.119 21.9568 249.119 22.2998 248.948 22.6429Z" fill="black"/>
<path d="M252.722 16.1245C252.379 16.9821 252.036 17.8398 251.693 18.6975C251.349 19.5552 251.006 20.2414 250.835 20.9275C251.521 20.2414 252.207 19.3837 252.893 18.526C253.579 17.6683 254.094 16.8106 254.609 15.9529H252.722V16.1245ZM256.839 11.6645C257.01 11.3214 257.182 10.8068 257.353 10.2922C257.525 9.77754 257.525 9.43447 257.525 9.0914C257.525 8.74832 257.353 8.7483 257.182 8.7483C257.01 8.7483 256.496 9.26292 255.981 10.1206C255.466 10.8068 255.123 11.4929 254.609 12.5222C254.266 13.5514 253.751 14.4091 253.236 15.6098H255.123C255.638 14.066 256.324 12.8652 256.839 11.6645ZM257.525 15.4383C257.696 15.4383 257.696 15.4383 257.696 15.6098C257.696 15.7814 257.696 15.7814 257.696 15.9529C257.696 16.1245 257.696 16.1245 257.525 16.296C257.525 16.4675 257.353 16.4675 257.353 16.4675H255.295C254.609 17.4968 253.923 18.526 253.236 19.5552C252.55 20.5844 251.521 21.6137 250.492 22.4714C250.32 22.6429 250.32 22.986 250.149 23.5006C249.977 23.8437 249.977 24.3583 249.806 24.7014C249.634 25.216 249.634 25.7306 249.462 26.2452C249.291 26.9314 249.291 27.2744 249.462 27.6175C249.634 27.9606 249.806 28.3037 249.977 28.3037C250.149 28.4752 250.492 28.4752 250.835 28.4752C251.178 28.4752 251.521 28.3037 251.864 28.1321C252.722 27.446 253.408 26.5883 254.094 25.5591C254.78 24.5298 255.295 23.5006 255.809 22.4714C255.981 22.1283 256.152 21.9568 256.324 22.1283C256.496 22.1283 256.496 22.4714 256.324 22.8145C255.981 23.6722 255.466 24.3583 255.295 24.8729C254.952 25.3875 254.78 25.9021 254.437 26.4168C254.094 26.9314 253.922 27.2744 253.579 27.6175C253.236 27.9606 253.065 28.3037 252.722 28.6468C252.207 29.1614 251.692 29.5045 251.006 29.676C250.32 29.8475 249.806 29.8475 249.291 29.5044C248.776 29.3329 248.262 28.8183 247.919 28.3037C247.576 27.6175 247.576 26.9314 247.576 25.9021C247.576 25.216 247.747 24.5298 247.919 23.8437C248.09 22.986 248.433 22.2998 248.605 21.4422C248.948 20.5845 249.119 19.7268 249.462 18.8691C249.806 18.0114 250.149 17.3252 250.32 16.4675H248.433C248.262 16.4675 248.262 16.4675 248.262 16.296C248.262 16.1245 248.262 16.1245 248.262 15.9529C248.262 15.7814 248.262 15.7814 248.433 15.6098C248.433 15.4383 248.605 15.4383 248.605 15.4383H250.835C251.178 14.5806 251.693 13.5514 252.207 12.6937C252.722 11.836 253.065 10.9783 253.579 10.1206C254.266 9.09138 254.952 8.2337 255.638 7.71908C256.324 7.20447 257.01 7.03292 257.525 7.20446C258.039 7.376 258.383 7.89061 258.383 8.7483C258.383 9.60599 258.211 10.6352 257.525 12.1791C257.01 13.2083 256.496 14.2375 255.981 15.2668H257.525V15.4383Z" fill="black"/>
<path d="M256.324 26.2452C256.153 26.9314 256.152 27.446 256.152 27.789C256.152 28.3037 256.496 28.4752 257.01 28.4752C257.353 28.4752 257.525 28.4752 257.868 28.3037C258.211 28.1321 258.382 27.9606 258.726 27.789C259.412 27.1029 259.926 26.4167 260.612 25.3875C261.127 24.3583 261.813 23.329 262.328 22.2998C262.499 21.9567 262.671 21.7852 262.843 21.9567C263.014 22.1283 263.014 22.2998 262.843 22.6429C262.671 23.1575 262.328 23.8437 261.985 24.5298C261.642 25.216 261.127 26.0736 260.612 26.7598C260.098 27.4459 259.583 28.1321 258.897 28.6467C258.382 29.1613 257.696 29.3329 257.01 29.3329C256.324 29.3329 255.809 29.1614 255.466 28.8183C255.123 28.4752 254.78 28.1321 254.78 27.6175C254.609 27.1029 254.609 26.5883 254.78 26.0737C254.78 25.559 254.952 25.0444 255.123 24.5298L257.525 18.526C257.696 18.1829 257.696 17.8398 257.525 17.4967C257.353 17.1537 257.182 16.9821 257.182 16.9821H259.24C259.755 16.9821 260.098 17.1536 260.269 17.3252C260.269 17.4967 260.269 17.8398 260.098 18.3544L257.182 25.216C257.182 25.3875 257.01 25.559 257.01 25.7306C257.01 25.9021 256.839 25.9021 256.839 26.0737C256.324 26.0737 256.324 26.2452 256.324 26.2452ZM261.47 13.8944C261.47 14.2375 261.127 14.7521 260.784 14.9237C260.441 15.2667 260.098 15.4383 259.583 15.4383C259.069 15.4383 258.897 15.2667 258.554 14.9237C258.383 14.5806 258.211 14.2375 258.211 13.8944C258.211 13.5513 258.554 13.0367 258.897 12.8652C259.24 12.5221 259.583 12.3506 260.098 12.3506C260.613 12.3506 260.784 12.5221 261.127 12.8652C261.47 13.2083 261.642 13.5513 261.47 13.8944Z" fill="black"/>
<path d="M271.934 16.9824V17.154C271.762 17.6686 271.591 18.1832 271.248 19.0409C270.905 19.8986 270.733 20.7563 270.218 21.7855C269.875 22.8147 269.361 23.6724 268.846 24.7017C268.332 25.7309 267.817 26.5886 267.131 27.2747C266.445 28.1324 265.758 28.647 265.072 28.9901C264.386 29.3332 263.528 29.5047 262.671 29.3332C262.156 29.1616 261.813 28.9901 261.47 28.4755C261.298 27.9609 261.127 27.4463 261.298 26.9317C261.298 26.2455 261.47 25.5594 261.642 24.8732C261.813 24.187 262.156 23.3293 262.328 22.6432C262.156 22.9863 261.985 23.1578 261.813 22.9863C261.642 22.9863 261.642 22.8147 261.642 22.4716C261.813 22.3001 261.813 22.1286 261.985 21.7855C262.156 21.614 262.156 21.4424 262.328 21.0994C262.499 20.7563 262.671 20.2417 262.842 19.727C263.014 19.2124 263.014 18.6978 263.014 18.3547C263.014 17.8401 263.014 17.4971 262.842 17.154C262.671 16.8109 262.671 16.6393 262.328 16.4678C262.671 16.4678 262.842 16.2963 263.185 16.2963C263.357 16.2963 263.528 16.2963 263.872 16.1247C264.043 16.1247 264.215 16.1247 264.215 16.1247C264.558 16.1247 264.729 16.1247 264.901 16.1247C265.072 16.1247 265.244 16.1247 265.244 16.2963C265.415 16.2963 265.415 16.4678 265.415 16.8109C265.415 16.9824 265.415 17.3255 265.415 17.8401C265.415 18.5263 265.244 19.2124 265.072 20.0701C264.901 20.9278 264.558 21.614 264.386 22.3001C264.215 22.9863 263.872 23.5009 263.7 24.187C263.529 24.8732 263.357 25.3878 263.185 25.9024C263.014 26.417 263.014 26.9316 263.014 27.2747C263.014 27.6178 263.185 27.9609 263.357 27.9609C263.872 28.1324 264.215 28.1324 264.729 27.7893C265.244 27.4463 265.587 27.1032 266.102 26.5886C266.616 26.074 266.959 25.3878 267.474 24.5301C267.988 23.6724 268.332 22.8147 268.675 21.9571C268.332 21.4424 268.16 20.7563 268.16 20.0701C268.16 19.384 268.16 18.6978 268.332 18.3547C268.503 17.497 268.846 16.9824 269.361 16.4678C269.875 15.9532 270.219 15.7817 270.562 15.6101C270.905 15.4386 271.248 15.6101 271.419 15.7817C272.105 16.2963 272.105 16.6393 271.934 16.9824Z" fill="black"/>
<path d="M272.448 26.2452C272.277 26.9314 272.277 27.446 272.277 27.789C272.277 28.3037 272.62 28.4752 273.135 28.4752C273.478 28.4752 273.649 28.4752 273.992 28.3037C274.335 28.1321 274.507 27.9606 274.85 27.789C275.536 27.1029 276.051 26.4167 276.737 25.3875C277.252 24.3583 277.938 23.329 278.452 22.2998C278.624 21.9567 278.795 21.7852 278.967 21.9567C279.139 22.1283 279.139 22.2998 278.967 22.6429C278.795 23.1575 278.452 23.8437 278.109 24.5298C277.766 25.216 277.252 26.0736 276.737 26.7598C276.222 27.4459 275.708 28.1321 275.022 28.6467C274.507 29.1613 273.821 29.3329 273.135 29.3329C272.449 29.3329 271.934 29.1614 271.591 28.8183C271.248 28.4752 270.905 28.1321 270.905 27.6175C270.733 27.1029 270.733 26.5883 270.905 26.0737C270.905 25.559 271.076 25.0444 271.248 24.5298L273.649 18.526C273.821 18.1829 273.821 17.8398 273.649 17.4967C273.478 17.1537 273.306 16.9821 273.306 16.9821H275.365C275.879 16.9821 276.222 17.1536 276.394 17.3252C276.394 17.4967 276.394 17.8398 276.222 18.3544L273.306 25.216C273.306 25.3875 273.135 25.559 273.135 25.7306C273.135 25.9021 272.963 25.9021 272.963 26.0737C272.449 26.0737 272.448 26.2452 272.448 26.2452ZM277.595 13.8944C277.595 14.2375 277.252 14.7521 276.908 14.9237C276.565 15.2667 276.222 15.4383 275.708 15.4383C275.193 15.4383 275.022 15.2667 274.679 14.9237C274.507 14.5806 274.335 14.2375 274.335 13.8944C274.335 13.5513 274.678 13.0367 275.022 12.8652C275.365 12.5221 275.708 12.3506 276.222 12.3506C276.737 12.3506 276.909 12.5221 277.252 12.8652C277.595 13.2083 277.766 13.5513 277.595 13.8944Z" fill="black"/>
<path d="M282.569 16.1245C282.226 16.9821 281.883 17.8398 281.54 18.6975C281.197 19.5552 280.854 20.2414 280.682 20.9275C281.368 20.2414 282.055 19.3837 282.741 18.526C283.427 17.6683 283.942 16.8106 284.456 15.9529H282.569V16.1245ZM286.686 11.6645C286.858 11.3214 287.029 10.8068 287.201 10.2922C287.372 9.77754 287.372 9.43447 287.372 9.0914C287.372 8.74832 287.201 8.7483 287.029 8.7483C286.858 8.7483 286.343 9.26292 285.828 10.1206C285.314 10.8068 284.971 11.4929 284.456 12.5222C284.113 13.5514 283.598 14.4091 283.084 15.6098H284.971C285.485 14.066 286.172 12.8652 286.686 11.6645ZM287.372 15.4383C287.544 15.4383 287.544 15.4383 287.544 15.6098C287.544 15.7814 287.544 15.7814 287.544 15.9529C287.544 16.1245 287.544 16.1245 287.372 16.296C287.372 16.4675 287.201 16.4675 287.201 16.4675H285.142C284.456 17.4968 283.77 18.526 283.084 19.5552C282.398 20.5844 281.368 21.6137 280.339 22.4714C280.168 22.6429 280.168 22.986 279.996 23.5006C279.825 23.8437 279.825 24.3583 279.653 24.7014C279.482 25.216 279.482 25.7306 279.31 26.2452C279.138 26.9314 279.138 27.2744 279.31 27.6175C279.482 27.9606 279.653 28.3037 279.825 28.3037C279.996 28.4752 280.339 28.4752 280.682 28.4752C281.025 28.4752 281.368 28.3037 281.712 28.1321C282.569 27.446 283.255 26.5883 283.942 25.5591C284.628 24.5298 285.142 23.5006 285.657 22.4714C285.828 22.1283 286 21.9568 286.172 22.1283C286.343 22.1283 286.343 22.4714 286.172 22.8145C285.828 23.6722 285.314 24.3583 285.142 24.8729C284.799 25.3875 284.628 25.9021 284.285 26.4168C283.942 26.9314 283.77 27.2744 283.427 27.6175C283.084 27.9606 282.912 28.3037 282.569 28.6468C282.055 29.1614 281.54 29.5045 280.854 29.676C280.168 29.8475 279.653 29.8475 279.138 29.5044C278.624 29.3329 278.109 28.8183 277.766 28.3037C277.423 27.6175 277.423 26.9314 277.423 25.9021C277.423 25.216 277.595 24.5298 277.766 23.8437C277.938 22.986 278.281 22.2998 278.452 21.4422C278.795 20.5845 278.967 19.7268 279.31 18.8691C279.653 18.0114 279.996 17.3252 280.168 16.4675H278.281C278.109 16.4675 278.109 16.4675 278.109 16.296C278.109 16.1245 278.109 16.1245 278.109 15.9529C278.109 15.7814 278.109 15.7814 278.281 15.6098C278.281 15.4383 278.452 15.4383 278.452 15.4383H280.682C281.025 14.5806 281.54 13.5514 282.055 12.6937C282.569 11.836 282.912 10.9783 283.427 10.1206C284.113 9.09138 284.799 8.2337 285.485 7.71908C286.172 7.20447 286.858 7.03292 287.372 7.20446C287.887 7.376 288.23 7.89061 288.23 8.7483C288.23 9.60599 288.058 10.6352 287.372 12.1791C286.858 13.2083 286.343 14.2375 285.828 15.2668H287.372V15.4383Z" fill="black"/>
<path d="M289.602 32.0776C289.088 32.2492 288.402 32.4207 287.716 32.5923C287.029 32.7638 286.343 32.9353 285.657 33.1069C284.971 33.2784 284.285 33.4499 283.599 33.793C282.912 33.9646 282.398 34.1361 281.883 34.4792C281.026 34.8222 280.168 35.5084 279.482 36.023C278.796 36.7092 278.452 37.3953 278.281 37.9099C278.109 38.5961 278.109 39.1107 278.281 39.6253C278.452 40.1399 278.967 40.3115 279.825 40.3115C280.682 40.3115 281.54 40.1399 282.398 39.6253C283.256 39.1107 284.113 38.5961 284.971 37.7384C285.829 37.0523 286.515 36.1946 287.201 35.5084C287.887 34.6507 288.402 33.9646 288.916 33.45C289.088 33.2784 289.088 33.1069 289.259 32.7638C289.259 32.5922 289.431 32.2492 289.602 32.0776ZM300.924 22.643C300.238 23.8438 299.723 25.0446 299.209 25.9022C298.694 26.7599 298.179 27.4461 297.493 28.1323C296.807 28.8184 296.121 29.333 295.263 29.8476C294.406 30.3623 293.376 30.8769 292.004 31.2199C291.489 32.2492 290.803 33.2784 289.946 34.4792C289.259 35.6799 288.402 36.7092 287.372 37.7384C286.515 38.7676 285.314 39.4538 284.285 40.1399C283.084 40.8261 281.883 40.9976 280.511 40.9976C279.653 40.9976 278.796 40.8261 278.281 40.6546C277.766 40.3115 277.423 39.9684 277.252 39.6253C277.08 39.1107 276.909 38.7676 277.08 38.253C277.08 37.7384 277.252 37.2238 277.595 36.7092C277.938 36.023 278.452 35.5084 278.967 34.9938C279.653 34.4792 280.339 34.1361 281.026 33.793C282.226 33.2784 283.77 32.7638 285.314 32.4207C286.858 32.0776 288.402 31.563 289.946 31.2199C290.289 30.5338 290.632 29.8476 290.975 29.1615C291.318 28.4753 291.661 27.6176 291.832 26.9315C292.176 26.2453 292.347 25.3876 292.519 24.7015C292.69 24.0153 292.862 23.5007 293.033 22.9861C292.69 23.5007 292.347 24.1869 291.832 25.0446C291.318 25.9022 290.975 26.5884 290.289 27.2746C289.774 27.9607 289.088 28.6469 288.402 29.1615C287.716 29.6761 287.029 29.8476 286.343 29.8476C286.172 29.8476 286 29.8476 285.657 29.8476C285.486 29.8476 285.142 29.6761 284.971 29.6761C284.799 29.5046 284.628 29.333 284.285 29.1615C284.113 28.99 283.942 28.6469 283.942 28.3038C283.942 27.9607 283.77 27.4461 283.942 27.103C283.942 26.76 284.113 26.4169 284.285 26.0738C284.456 25.7307 284.628 25.3876 284.799 25.0446C284.971 24.7015 285.142 24.3584 285.314 24.0153C285.142 24.0153 285.142 24.0153 284.971 23.8438C284.799 23.8438 284.799 23.6722 284.971 23.3292C285.142 23.1576 285.142 22.9861 285.314 22.643C285.486 22.4715 285.486 22.1284 285.657 21.9569C286 21.2707 286.343 20.5846 286.686 19.8984C287.029 19.2123 287.372 18.5261 287.716 18.0115C287.887 17.6684 288.059 17.4969 288.23 17.3253C288.402 17.1538 288.745 17.1538 289.088 17.1538H291.318C291.146 17.3253 290.975 17.4969 290.632 17.6684C290.289 17.84 290.117 18.183 289.946 18.5261C289.259 19.5554 288.745 20.7561 288.23 21.7853C287.716 22.8146 287.201 24.0153 286.686 25.0446C286.172 26.0738 286 26.76 286 27.4461C286 28.1323 286 28.4753 286.343 28.8184C286.515 29.1615 286.858 29.1615 287.372 28.9899C287.887 28.8184 288.402 28.3038 288.916 27.6176C289.431 27.103 289.946 26.2453 290.46 25.5592C290.975 24.7015 291.489 23.8438 292.004 22.9861C292.519 22.1284 293.033 21.2707 293.376 20.413C293.891 19.5553 294.234 18.6977 294.577 18.0115C294.749 17.6684 294.92 17.4969 295.092 17.3253C295.263 17.1538 295.606 17.1538 295.949 17.1538H298.008C297.665 17.3253 297.322 17.6684 297.15 18.0115C296.807 18.3546 296.635 18.6976 296.464 19.0407C296.292 19.3838 295.949 19.8984 295.778 20.413C295.606 20.9276 295.435 21.4423 295.092 22.1284C294.577 23.3292 294.234 24.7015 293.719 26.2453C293.205 27.6177 292.69 29.1615 292.175 30.7053C292.519 30.5338 293.033 30.3622 293.548 30.1907C294.062 30.0192 294.577 29.6761 294.92 29.5046C295.435 29.1615 295.778 28.8184 296.292 28.4753C296.807 28.1322 297.15 27.6177 297.493 27.103C298.008 26.2453 298.522 25.3876 298.866 24.7015C299.209 24.0153 299.552 23.3292 299.723 22.9861C299.895 22.643 300.066 22.4715 300.238 22.643C301.096 22.1284 301.096 22.3 300.924 22.643Z" fill="black"/>
</svg>
