<svg width="83" height="78" viewBox="0 0 83 78" fill="none" xmlns="http://www.w3.org/2000/svg">
<path fill-rule="evenodd" clip-rule="evenodd" d="M42.6057 12.6211C42.2571 12.2724 41.769 11.9238 41.2808 11.5751C40.9322 11.3659 40.5835 11.2265 40.1651 11.1567C39.8165 11.087 39.4678 11.0173 39.1192 11.087C38.6311 11.1567 38.2127 11.4356 37.864 11.9935C37.5851 12.5513 37.5154 13.1789 37.6548 13.8065C37.7943 14.6433 38.2824 15.48 38.7008 16.1076C39.0494 16.5957 39.4678 17.0141 39.9559 17.4325C40.3743 17.7114 40.8624 17.9904 41.3506 18.1298C41.6295 18.1996 41.9781 18.1996 42.3268 18.1996C42.6057 18.1298 42.8149 18.0601 43.0938 17.9206C43.0241 17.9206 43.0241 17.9904 42.9544 17.9904C42.8149 18.0601 42.6754 18.1298 42.4663 18.1298C41.9084 18.1996 41.3506 18.0601 40.8624 17.7812C40.2349 17.4325 39.677 16.8747 39.3284 16.3866C39.0494 15.9682 38.7705 15.5498 38.631 15.0617C38.4219 14.5735 38.3521 14.0157 38.4219 13.5276C38.4916 13.0395 38.7008 12.5513 39.1889 12.2724C39.3981 12.133 39.6073 12.0632 39.8165 11.9238C40.4441 11.7146 41.0019 11.7843 41.49 11.9935C41.9084 12.0632 42.2571 12.2724 42.6057 12.6211Z" fill="black"/>
<path fill-rule="evenodd" clip-rule="evenodd" d="M24.2665 13.3184C24.0573 12.9 22.1746 12.6211 21.9654 12.6211L19.9432 12.133L21.3378 11.7146C23.1508 11.1568 24.8941 11.4357 26.5676 12.2027C27.4044 12.5514 28.1714 12.9698 28.9385 13.5276C29.4266 13.8065 29.9147 14.1552 30.4028 14.4341C34.7262 17.0839 44.9069 26.5673 47.3475 17.0142C47.8356 14.992 48.9513 13.2487 49.4394 12.6909C48.3934 12.9698 47.4172 15.759 47.1383 16.4563C46.441 18.2693 45.2555 20.0823 43.0939 20.0823C41.3506 20.0823 39.3981 19.2456 37.8641 18.4088C35.9116 17.3628 33.9591 16.1077 32.0764 14.9222C29.0082 13.0395 24.2665 10.1805 20.501 11.366C20.1524 11.4357 18.7578 11.9238 18.9669 12.4817C19.1064 12.9 21.1983 12.7606 21.6167 12.8303C22.1746 12.8303 23.5692 13.2487 24.2665 13.3184Z" fill="black"/>
<path fill-rule="evenodd" clip-rule="evenodd" d="M40.1651 25.103C40.3743 25.382 40.5137 25.6609 40.7229 25.9398C41.9781 27.6831 42.8846 29.6355 42.3267 31.7972C41.8386 33.6799 40.444 35.2838 39.4678 36.9573C38.2126 39.1887 37.6547 41.3504 37.9337 43.9304C38.3521 47.6959 39.6072 51.2522 40.7926 54.8084C41.6992 57.528 42.4662 60.2475 43.0938 63.0367V63.1064C42.6754 60.2475 41.49 54.8782 41.211 53.6928C39.1191 45.604 36.6785 41.8385 41.9083 34.3075C43.6516 31.7972 43.6516 29.775 42.3965 27.5436C41.9083 26.916 41.3505 26.3582 40.7926 25.8003C40.6532 25.6609 40.444 25.382 40.1651 25.103Z" fill="black"/>
<path fill-rule="evenodd" clip-rule="evenodd" d="M55.8547 5.99707C51.9497 8.01927 49.9275 16.1778 49.4394 20.013C48.6026 27.1953 49.3697 34.4473 49.3697 41.6296C49.3697 48.2541 47.5567 54.5996 45.9528 60.9451C44.9766 64.9895 43.5123 71.1956 44.4188 75.24C44.5582 75.8676 44.7674 76.5649 45.1161 77.1227C45.1161 77.1227 45.1161 77.1227 45.1161 77.1925C44.7674 76.0768 44.5582 75.0308 44.628 73.9151C44.628 69.0339 45.8831 64.2225 47.0685 59.4808C47.8356 56.4126 48.6724 53.4142 49.2999 50.346C49.9275 47.0687 50.2064 43.7913 50.2064 40.4442C50.2064 33.3316 48.9513 26.1493 49.9972 19.0368C50.4854 15.62 52.2286 8.99551 54.8087 6.62465C55.1573 6.41546 55.506 6.20626 55.8547 5.99707Z" fill="black"/>
<path d="M82.0735 1.1157C81.8643 1.25516 81.7248 1.39462 81.5156 1.53409C81.1669 1.74328 80.8183 1.88274 80.3999 2.09193C77.6804 3.34709 75.6582 3.55628 72.6598 3.83521L72.1019 3.90494C71.1257 4.0444 70.1494 4.11413 69.1035 4.18386C68.0575 4.25359 67.0813 4.39306 66.105 4.46279L65.5472 4.53252C60.8752 4.9509 57.4584 6.48499 55.7151 8.78611C57.9465 5.22983 61.6422 4.39306 65.5472 4.0444L66.105 3.97467C67.151 3.90494 68.1272 3.76548 69.1035 3.69575C70.0797 3.62602 71.0559 3.48655 72.1019 3.41682L72.6598 3.34709C75.6582 2.99844 77.6107 2.78924 80.2604 1.60382C80.6788 1.39462 81.0275 1.25516 81.3761 1.04597C81.6551 0.836773 81.934 0.627579 82.2129 0.348655L82.5616 0L82.6313 0.488121C82.701 1.04597 82.5616 1.74328 82.2826 2.37086C81.7945 3.41682 81.3064 3.97467 80.6091 4.81144C81.3761 3.69575 82.3524 2.0222 82.0735 1.1157ZM50.3458 23.081C54.5994 15.9684 58.3649 18.0603 61.0844 19.0366C63.8039 20.0825 67.9878 20.0128 68.6153 16.1776C68.6153 15.6895 68.6851 15.4106 68.8943 14.9224C69.2429 14.0159 72.7295 12.9002 75.1003 11.5056C77.5409 10.0413 78.7961 8.22826 79.0053 6.90338C79.0053 10.1807 72.0322 15.1316 69.3127 15.2014C69.1035 15.4803 69.1035 15.7592 69.1732 16.1776C69.1732 17.0144 69.2429 18.0603 67.3602 19.3852C66.9418 19.6642 66.4537 19.9431 65.8261 20.0128C65.2683 20.1523 64.6407 20.1523 64.0131 20.1523C62.9671 20.0825 61.9909 19.8036 61.0147 19.5247C58.9925 18.9669 57.04 18.4787 54.9481 19.3852C53.1351 20.222 51.601 21.6864 50.3458 23.081Z" fill="#E6007E"/>
<path d="M50.5551 32.843C52.7864 34.0982 56.5519 32.4943 56.4822 30.263C55.9941 30.8905 55.0876 31.797 54.46 32.076C54.0416 32.2154 53.6929 32.2852 53.2746 32.2154C52.8562 32.1457 52.5773 31.9365 52.2983 31.6576C52.0194 31.3089 51.8102 30.8208 51.8102 30.1932C51.7405 29.5656 51.9497 29.0775 52.2983 28.5894C52.7167 28.0316 53.3443 27.6132 53.7627 27.404C54.3205 27.1251 54.8784 26.9856 55.506 26.9159C56.1335 26.8461 56.7611 26.8461 57.4584 26.9856C58.1557 27.1251 58.7833 27.2645 59.4806 27.4737C63.4553 28.2408 66.9418 26.9159 66.5235 22.4531C66.5235 22.2439 66.4537 22.0347 66.4537 21.8255C66.384 21.8255 66.3143 21.8952 66.2445 21.8952C66.1051 21.965 65.9656 22.0347 65.8261 22.0347C65.1986 22.2439 64.6407 22.3136 64.0829 22.3136C63.525 22.3136 62.9672 22.2439 62.3396 22.1044C61.3634 21.8952 60.5266 21.6163 59.6898 21.2677C58.7833 20.919 57.1098 19.7336 52.3681 21.3374C52.5773 21.1979 52.8562 21.0585 53.1351 20.8493C53.4838 20.7098 53.8324 20.5006 54.0416 20.4309C55.9941 19.7336 57.9465 20.0822 59.899 20.7795C60.6661 21.0585 61.5028 21.4071 62.4093 21.5466C63.0369 21.686 63.525 21.7558 64.0131 21.7558C64.5013 21.7558 64.9894 21.686 65.617 21.5466C65.7564 21.5466 65.8262 21.4768 65.9656 21.4071C66.1748 21.3374 66.384 21.2677 66.5932 21.1979L66.8721 21.1282V21.4071C66.8721 21.686 66.9418 22.0347 66.9418 22.3136C67.0116 23.2899 67.1511 24.1964 66.7327 25.312C66.6629 25.591 66.5235 25.9396 66.384 26.2186C66.1051 26.8461 65.4078 27.6829 64.7802 28.0316C63.0369 28.9381 61.1542 28.4499 59.2714 27.9618C58.6439 27.7526 57.9466 27.6132 57.319 27.4737C56.6217 27.3343 56.0638 27.3342 55.506 27.404C54.9481 27.4737 54.46 27.6132 53.9021 27.8224C53.4837 28.0316 52.9956 28.3802 52.5772 28.8683C52.2983 29.217 52.1589 29.6354 52.2286 30.1235C52.2983 30.6813 52.4378 31.0997 52.647 31.3787C52.8562 31.5878 53.0654 31.7273 53.3443 31.797C53.6232 31.8668 53.9021 31.797 54.2508 31.6576C55.5757 31.0997 56.3427 29.984 56.4822 29.217C57.5282 32.3549 52.7167 35.1441 50.5551 32.843Z" fill="#E6007E"/>
<path d="M39.7467 29.7751C37.7245 25.5215 31.379 23.1506 26.9162 27.4042C26.0794 27.962 25.2426 28.5896 24.3361 29.008C22.1047 30.054 19.0366 29.6356 18.1301 26.9858C17.2236 24.1966 8.50719 22.3836 5.29956 21.1284C5.09037 21.0587 4.67198 20.8495 4.2536 20.6403C3.90494 20.5008 3.55628 20.2916 3.41682 20.2219C3.34709 20.1522 3.27736 20.1522 3.1379 20.0824C2.51032 19.7338 1.67355 19.1759 1.04597 18.4786C0.557848 17.9905 0.209197 17.4327 0.0697353 16.8051L0 16.317L0.418391 16.5262C0.767046 16.7353 1.1157 16.8051 1.46436 16.8748C1.81301 16.9445 2.2314 17.0143 2.64978 17.0143C5.57849 17.2235 7.46122 16.8051 10.3899 16.038L10.878 15.8986C11.7846 15.6894 12.7608 15.4105 13.8067 15.2013C15.7592 14.7131 21.1285 12.9699 24.8243 14.3645C16.6657 12.9001 8.01907 21.1981 0.627575 17.1537C0.767037 17.4327 1.04596 17.7813 1.32489 18.0602C1.95246 18.6878 2.71951 19.2457 3.27736 19.5246C3.41682 19.5943 3.48656 19.664 3.55629 19.7338C3.69575 19.8035 3.97467 20.0127 4.32332 20.1522C4.74171 20.3614 5.1601 20.5705 5.29956 20.6403C7.87961 21.6862 17.5025 24.4058 18.6182 26.2188C19.3852 27.4739 19.2458 30.7513 23.9177 28.5199C24.8242 28.1015 25.661 27.5437 26.4281 26.9858C30.6817 23.3598 37.0272 22.8717 39.7467 29.7751Z" fill="#E6007E"/>
<path d="M32.9827 35.0047C33.68 36.1901 37.0271 38.0728 37.3061 35.702C37.4455 35.3533 37.4455 34.9349 37.2363 34.3771C37.0969 33.889 36.8179 33.5403 36.4693 33.3311C35.9812 32.9825 35.3536 32.843 34.8655 32.7733C34.3076 32.7036 33.7498 32.7733 33.1919 32.9127C32.6341 33.0522 32.0762 33.2614 31.5184 33.6101C30.9605 33.9587 30.4027 34.3074 29.8448 34.7257C28.241 35.8414 26.6372 36.9571 24.6847 36.6782C24.4755 36.6782 24.2664 36.5388 23.9874 36.469C23.7085 36.3296 23.3599 36.1901 23.1507 36.0506C22.9415 35.9112 22.7323 35.7717 22.5231 35.5625C22.3139 35.3533 22.1047 35.0744 21.8955 34.8652C21.1982 33.9587 20.989 33.0522 20.7101 32.1457C20.6403 31.8668 20.5706 31.5879 20.5009 31.3089L20.4312 31.03L20.7101 30.9603C20.9193 30.9603 21.1285 30.9603 21.3377 30.9603C21.4771 30.9603 21.6166 30.9603 21.756 30.9603C22.3836 30.9603 22.8717 30.8208 23.2901 30.6814C23.7782 30.4722 24.1966 30.263 24.7545 29.984C25.5912 29.4959 26.2886 28.9381 26.9161 28.3802C28.3805 27.1251 30.2632 26.0791 32.2854 26.0791C35.4233 26.0791 38.8402 28.7289 39.8861 31.5181C34.6563 24.3358 28.1016 27.7526 25.0334 30.4024C24.4755 30.7511 23.9874 30.9603 23.4993 31.1695C23.0112 31.3787 22.4533 31.4484 21.8258 31.5181C21.6863 31.5181 21.5469 31.5181 21.4074 31.5181C21.3377 31.5181 21.2679 31.5181 21.1285 31.5181C21.1982 31.7273 21.2679 31.9365 21.2679 32.076C21.4771 32.9825 21.6863 33.8192 22.3836 34.656C22.5231 34.8652 22.7323 35.1441 23.0112 35.2836C23.2204 35.4928 23.3598 35.6323 23.569 35.702C23.7782 35.8414 24.0572 35.9809 24.3361 36.1204C24.5453 36.1901 24.7545 36.2598 24.8939 36.3296C26.6372 36.6085 28.1713 35.5625 29.7054 34.4468C30.2632 34.0284 30.8211 33.6798 31.4487 33.3311C32.0762 32.9825 32.7038 32.7036 33.2617 32.5641C33.8195 32.4246 34.4471 32.4246 35.0747 32.4246C35.5628 32.4944 36.3298 32.6338 36.8877 33.0522C37.3061 33.3311 37.7244 33.8192 37.8639 34.3771C38.0731 35.0047 38.0034 35.5625 37.8639 35.9809C37.7244 36.3993 37.4455 36.6782 37.0969 36.8874C36.7482 37.0966 36.3996 37.1663 35.9114 37.0966C35.2839 37.0966 34.5866 36.8177 33.959 36.3993C34.2379 36.6782 34.5866 36.9571 34.8655 37.0966C35.4931 37.4453 36.2601 37.6545 37.0271 37.6545C37.7245 37.6545 37.8639 37.6545 38.4915 37.3755C36.9574 38.8399 32.2854 37.1663 32.9827 35.0047Z" fill="#E6007E"/>
</svg>
