<svg width="248" height="45" viewBox="0 0 248 45" fill="none" xmlns="http://www.w3.org/2000/svg">
<path fill-rule="evenodd" clip-rule="evenodd" d="M24.8375 7.35772C24.6342 7.15447 24.3497 6.95122 24.0651 6.74797C23.8619 6.62602 23.6586 6.54472 23.4147 6.50407C23.2115 6.46342 23.0082 6.42277 22.805 6.46342C22.5204 6.50407 22.2765 6.66667 22.0732 6.99187C21.9106 7.31708 21.87 7.68293 21.9513 8.04878C22.0326 8.53659 22.3171 9.02439 22.5611 9.39025C22.7643 9.6748 23.0082 9.9187 23.2928 10.1626C23.5367 10.3252 23.8212 10.4878 24.1058 10.5691C24.2684 10.6098 24.4716 10.6098 24.6749 10.6098C24.8375 10.5691 24.9594 10.5285 25.122 10.4472C25.0814 10.4472 25.0814 10.4878 25.0407 10.4878C24.9594 10.5285 24.8781 10.5691 24.7562 10.5691C24.431 10.6098 24.1058 10.5285 23.8212 10.3659C23.4554 10.1626 23.1302 9.8374 22.9269 9.55285C22.7643 9.30895 22.6017 9.06504 22.5204 8.78049C22.3984 8.49594 22.3578 8.17073 22.3985 7.88618C22.4391 7.60163 22.5611 7.31707 22.8456 7.15447C22.9676 7.07317 23.0895 7.03252 23.2115 6.95122C23.5773 6.82927 23.9025 6.86992 24.1871 6.99187C24.431 7.03252 24.6342 7.15447 24.8375 7.35772Z" fill="black"/>
<path fill-rule="evenodd" clip-rule="evenodd" d="M14.1464 7.76421C14.0244 7.52031 12.9269 7.35771 12.8049 7.35771L11.6261 7.07315L12.4391 6.82925C13.496 6.50405 14.5122 6.66665 15.4879 7.1138C15.9757 7.31706 16.4228 7.56096 16.87 7.88616C17.1545 8.04876 17.4391 8.25202 17.7236 8.41462C20.2439 9.95934 26.1789 15.4878 27.6017 9.91868C27.8862 8.73982 28.5366 7.72356 28.8212 7.39836C28.2114 7.56096 27.6423 9.18697 27.4797 9.59348C27.0732 10.6504 26.3822 11.7073 25.122 11.7073C24.1057 11.7073 22.9675 11.2195 22.0732 10.7317C20.935 10.1219 19.7968 9.39023 18.6992 8.69917C16.9106 7.60161 14.1464 5.93494 11.9513 6.626C11.748 6.66665 10.935 6.9512 11.057 7.27641C11.1383 7.52031 12.3578 7.43901 12.6017 7.47966C12.9269 7.47966 13.7399 7.72356 14.1464 7.76421Z" fill="black"/>
<path fill-rule="evenodd" clip-rule="evenodd" d="M23.4146 14.6341C23.5366 14.7967 23.6179 14.9593 23.7398 15.122C24.4715 16.1382 25 17.2764 24.6748 18.5366C24.3902 19.6341 23.5772 20.5691 23.0081 21.5447C22.2764 22.8455 21.9512 24.1057 22.1138 25.6098C22.3577 27.8049 23.0894 29.878 23.7805 31.9512C24.3089 33.5366 24.7561 35.122 25.1219 36.748V36.7886C24.878 35.122 24.187 31.9919 24.0244 31.3008C22.8049 26.5854 21.3821 24.3902 24.4309 20C25.4471 18.5366 25.4471 17.3577 24.7154 16.0569C24.4309 15.6911 24.1057 15.3659 23.7805 15.0407C23.6992 14.9594 23.5772 14.7967 23.4146 14.6341Z" fill="black"/>
<path fill-rule="evenodd" clip-rule="evenodd" d="M32.561 3.49593C30.2846 4.67479 29.1057 9.43089 28.8212 11.6667C28.3334 15.8537 28.7805 20.0813 28.7805 24.2683C28.7805 28.1301 27.7236 31.8293 26.7887 35.5285C26.2196 37.8862 25.3659 41.5041 25.8944 43.8618C25.9757 44.2276 26.0976 44.6341 26.3009 44.9593C26.3009 44.9593 26.3009 44.9594 26.3009 45C26.0976 44.3496 25.9757 43.7398 26.0163 43.0894C26.0163 40.2439 26.748 37.439 27.4391 34.6748C27.8862 32.8862 28.374 31.1382 28.7399 29.3496C29.1057 27.439 29.2683 25.5285 29.2683 23.5772C29.2683 19.4309 28.5366 15.2439 29.1464 11.0976C29.4309 9.10568 30.4472 5.24389 31.9513 3.86178C32.1545 3.73983 32.3578 3.61788 32.561 3.49593Z" fill="black"/>
<path d="M47.8455 0.650406C47.7236 0.731707 47.6423 0.81301 47.5203 0.894311C47.3171 1.01626 47.1138 1.09756 46.8699 1.21951C45.2846 1.95122 44.1057 2.07317 42.3577 2.23577L42.0325 2.27642C41.4634 2.35772 40.8943 2.39837 40.2846 2.43902C39.6748 2.47968 39.1057 2.56098 38.5366 2.60163L38.2114 2.64228C35.4878 2.88618 33.4959 3.78049 32.4797 5.12195C33.7805 3.04878 35.935 2.56098 38.2114 2.35773L38.5366 2.31708C39.1463 2.27643 39.7155 2.19512 40.2846 2.15447C40.8537 2.11382 41.4228 2.03252 42.0325 1.99187L42.3577 1.95122C44.1057 1.74797 45.2439 1.62602 46.7886 0.934961C47.0325 0.81301 47.2358 0.731707 47.439 0.609756C47.6016 0.487805 47.7642 0.365854 47.9268 0.203252L48.1301 0L48.1707 0.284555C48.2114 0.609758 48.1301 1.01626 47.9675 1.38211C47.6829 1.99187 47.3984 2.31707 46.9919 2.80488C47.439 2.15447 48.0081 1.17886 47.8455 0.650406ZM29.3496 13.4553C31.8293 9.30894 34.0244 10.5285 35.6098 11.0976C37.1951 11.7073 39.6342 11.6667 40 9.4309C40 9.14635 40.0407 8.98374 40.1626 8.69919C40.3659 8.17073 42.3984 7.52033 43.7805 6.70732C45.2033 5.85366 45.935 4.79675 46.0569 4.02439C46.0569 5.93496 41.9919 8.82114 40.4065 8.86179C40.2846 9.02439 40.2846 9.187 40.3252 9.4309C40.3252 9.9187 40.3659 10.5285 39.2683 11.3008C39.0244 11.4634 38.7398 11.626 38.374 11.6667C38.0488 11.748 37.6829 11.748 37.3171 11.748C36.7073 11.7073 36.1382 11.5447 35.5691 11.3821C34.3903 11.0569 33.252 10.7724 32.0325 11.3008C30.9756 11.7886 30.0813 12.6423 29.3496 13.4553Z" fill="#E6007E"/>
<path d="M29.4716 19.1463C30.7724 19.878 32.9675 18.9431 32.9268 17.6423C32.6423 18.0081 32.1138 18.5366 31.748 18.6992C31.5041 18.7805 31.3008 18.8211 31.0569 18.7805C30.813 18.7398 30.6504 18.6179 30.4878 18.4553C30.3252 18.252 30.2033 17.9675 30.2033 17.6016C30.1626 17.2358 30.2846 16.9512 30.4878 16.6667C30.7317 16.3415 31.0976 16.0976 31.3415 15.9756C31.6667 15.813 31.9919 15.7317 32.3577 15.691C32.7236 15.6504 33.0894 15.6504 33.4959 15.7317C33.9024 15.813 34.2683 15.8943 34.6748 16.0163C36.9919 16.4634 39.0244 15.6911 38.7805 13.0894C38.7805 12.9675 38.7398 12.8455 38.7398 12.7236C38.6992 12.7236 38.6586 12.7642 38.6179 12.7642C38.5366 12.8049 38.4553 12.8455 38.374 12.8455C38.0081 12.9675 37.6829 13.0081 37.3577 13.0081C37.0325 13.0081 36.7073 12.9675 36.3415 12.8862C35.7724 12.7642 35.2846 12.6016 34.7968 12.3984C34.2683 12.1951 33.2927 11.5041 30.5285 12.439C30.6504 12.3577 30.813 12.2764 30.9756 12.1545C31.1789 12.0732 31.3821 11.9512 31.5041 11.9106C32.6423 11.5041 33.7805 11.7073 34.9187 12.1138C35.3659 12.2764 35.8537 12.4797 36.3821 12.561C36.748 12.6423 37.0325 12.6829 37.3171 12.6829C37.6016 12.6829 37.8862 12.6423 38.252 12.561C38.3333 12.561 38.374 12.5203 38.4553 12.4797C38.5773 12.439 38.6992 12.3984 38.8212 12.3577L38.9838 12.3171V12.4797C38.9838 12.6423 39.0244 12.8455 39.0244 13.0081C39.0651 13.5772 39.1464 14.1057 38.9025 14.7561C38.8618 14.9187 38.7805 15.1219 38.6992 15.2845C38.5366 15.6504 38.1301 16.1382 37.7642 16.3415C36.748 16.8699 35.6504 16.5854 34.5529 16.3008C34.187 16.1789 33.7805 16.0976 33.4147 16.0163C33.0081 15.935 32.6829 15.935 32.3577 15.9756C32.0325 16.0163 31.748 16.0976 31.4228 16.2195C31.1789 16.3415 30.8943 16.5447 30.6504 16.8293C30.4878 17.0325 30.4065 17.2764 30.4472 17.561C30.4878 17.8862 30.5691 18.1301 30.6911 18.2927C30.813 18.4146 30.935 18.4959 31.0976 18.5366C31.2602 18.5772 31.4228 18.5366 31.626 18.4553C32.3984 18.1301 32.8455 17.4797 32.9268 17.0325C33.5366 18.8618 30.7317 20.4878 29.4716 19.1463Z" fill="#E6007E"/>
<path d="M23.1707 17.3577C21.9919 14.878 18.2927 13.4959 15.6911 15.9756C15.2033 16.3008 14.7154 16.6667 14.187 16.9106C12.8862 17.5203 11.0976 17.2764 10.5691 15.7317C10.0407 14.1057 4.95935 13.0488 3.08943 12.3171C2.96748 12.2764 2.72358 12.1545 2.47968 12.0325C2.27643 11.9512 2.07317 11.8293 1.99187 11.7886C1.95122 11.748 1.91057 11.748 1.82927 11.7073C1.46341 11.5041 0.97561 11.1789 0.609756 10.7724C0.325203 10.4878 0.121954 10.1626 0.0406529 9.79674L0 9.51219L0.243905 9.63414C0.447157 9.7561 0.650409 9.79675 0.853661 9.8374C1.05691 9.87805 1.30081 9.9187 1.54472 9.9187C3.25203 10.0406 4.34959 9.79675 6.05691 9.34959L6.34147 9.26829C6.86992 9.14634 7.43903 8.98373 8.04878 8.86178C9.187 8.57723 12.3171 7.56097 14.4715 8.37398C9.71545 7.52032 4.6748 12.3577 0.365851 10C0.447152 10.1626 0.609754 10.3659 0.772355 10.5285C1.13821 10.8943 1.58536 11.2195 1.91057 11.3821C1.99187 11.4228 2.03252 11.4634 2.07317 11.5041C2.15447 11.5447 2.31707 11.6667 2.52032 11.748C2.76423 11.8699 3.00813 11.9919 3.08943 12.0325C4.5935 12.6423 10.2033 14.2276 10.8537 15.2845C11.3008 16.0163 11.2195 17.9268 13.9431 16.626C14.4715 16.3821 14.9594 16.0569 15.4065 15.7317C17.8862 13.6179 21.5854 13.3333 23.1707 17.3577Z" fill="#E6007E"/>
<path d="M19.2276 20.4065C19.6341 21.0976 21.5853 22.1951 21.7479 20.813C21.8292 20.6098 21.8292 20.3659 21.7073 20.0407C21.626 19.7561 21.4634 19.5529 21.2601 19.4309C20.9756 19.2277 20.6097 19.1464 20.3252 19.1057C20 19.0651 19.6748 19.1057 19.3495 19.187C19.0243 19.2683 18.6991 19.3903 18.3739 19.5935C18.0487 19.7968 17.7235 20 17.3983 20.2439C16.4634 20.8943 15.5284 21.5447 14.3902 21.3821C14.2682 21.3821 14.1463 21.3008 13.9837 21.2602C13.8211 21.1789 13.6178 21.0976 13.4959 21.0163C13.3739 20.935 13.252 20.8537 13.13 20.7317C13.0081 20.6098 12.8861 20.4472 12.7642 20.3252C12.3577 19.7968 12.2357 19.2683 12.0731 18.7399C12.0325 18.5772 11.9918 18.4146 11.9512 18.252L11.9105 18.0894L12.0731 18.0488C12.1951 18.0488 12.317 18.0488 12.439 18.0488C12.5203 18.0488 12.6016 18.0488 12.6829 18.0488C13.0487 18.0488 13.3333 17.9675 13.5772 17.8862C13.8617 17.7642 14.1056 17.6423 14.4308 17.4797C14.9187 17.1951 15.3252 16.8699 15.691 16.5447C16.5447 15.813 17.6422 15.2033 18.8211 15.2033C20.6504 15.2033 22.6422 16.748 23.252 18.374C20.2032 14.187 16.3821 16.1789 14.5934 17.7236C14.2682 17.9268 13.9837 18.0488 13.6991 18.1707C13.4146 18.2927 13.0894 18.3333 12.7235 18.374C12.6422 18.374 12.5609 18.374 12.4796 18.374C12.439 18.374 12.3983 18.374 12.317 18.374C12.3577 18.496 12.3983 18.6179 12.3983 18.6992C12.5203 19.2277 12.6422 19.7155 13.0487 20.2033C13.13 20.3252 13.252 20.4878 13.4146 20.5691C13.5365 20.6911 13.6178 20.7724 13.7398 20.813C13.8617 20.8943 14.0243 20.9756 14.1869 21.0569C14.3089 21.0976 14.4309 21.1382 14.5122 21.1789C15.5284 21.3415 16.4227 20.7317 17.317 20.0813C17.6422 19.8374 17.9674 19.6342 18.3333 19.4309C18.6991 19.2277 19.065 19.0651 19.3902 18.9838C19.7154 18.9025 20.0812 18.9025 20.4471 18.9025C20.7317 18.9431 21.1788 19.0244 21.504 19.2683C21.7479 19.4309 21.9918 19.7155 22.0731 20.0407C22.1951 20.4065 22.1544 20.7317 22.0731 20.9756C21.9918 21.2195 21.8292 21.3821 21.626 21.5041C21.4227 21.626 21.2195 21.6667 20.9349 21.626C20.5691 21.626 20.1626 21.4634 19.7967 21.2195C19.9593 21.3821 20.1626 21.5447 20.3252 21.626C20.691 21.8293 21.1382 21.9512 21.5853 21.9512C21.9918 21.9512 22.0731 21.9512 22.439 21.7886C21.5447 22.6423 18.8211 21.6667 19.2276 20.4065Z" fill="#E6007E"/>
<path d="M84.3266 13.3C83.5266 13.2 82.7266 13.2 81.9266 13.4C81.1266 13.6 80.3266 13.9 79.6266 14.3C78.9266 14.7 78.1266 15.3 77.5266 15.9C76.8266 16.5 76.2266 17.3 75.7266 18.1C76.2266 19.3 76.9266 20.2 77.8266 20.8C78.7266 21.4 79.8266 21.8 80.9266 21.9C82.2266 22 83.3266 22 84.3266 21.6C85.3266 21.3 86.0266 20.8 86.6266 20.2C87.2266 19.6 87.6266 18.9 87.8266 18.2C88.0266 17.5 88.1266 16.7 87.9266 16.1C87.7266 15.4 87.3266 14.8 86.7266 14.3C86.2266 13.8 85.3266 13.4 84.3266 13.3ZM87.5266 25.2C87.3266 25.7 87.0266 26.1 86.8266 26.5C86.6266 26.9 86.3266 27.3 86.1266 27.6C85.8266 28 85.5266 28.3 85.2266 28.6C84.9266 28.9 84.5266 29.3 84.0266 29.6C83.5266 30 82.9266 30.3 82.2266 30.6C81.5266 30.9 80.9266 31.1 80.2266 31.2C79.5266 31.3 78.8266 31.3 78.0266 31.2C77.2266 31.1 76.5266 30.9 75.7266 30.6C74.8266 30.2 74.1266 29.7 73.5266 29.1C73.0266 28.5 72.6266 27.7 72.3266 27C72.1266 26.2 71.9266 25.4 72.0266 24.5C72.0266 23.6 72.1266 22.7 72.4266 21.9C72.6266 21 72.9266 20.2 73.3266 19.4C73.7266 18.6 74.1266 17.9 74.6266 17.3C74.5266 17 74.4266 16.6 74.4266 16.2C74.3266 15.8 74.3266 15.4 74.3266 14.9C74.3266 14.5 74.3266 14 74.3266 13.6C74.3266 13.2 74.4266 12.7 74.5266 12.3C74.5266 12.2 74.6266 12.1 74.6266 12.1C74.7266 12 74.7266 12 74.8266 12C74.8266 12 74.9266 12 74.9266 12.1C74.9266 12.2 74.9266 12.3 74.9266 12.4C74.8266 13.1 74.8266 13.8 74.8266 14.5C74.9266 15.2 74.9266 15.9 75.1266 16.5C76.3266 15 77.6266 13.9 79.2266 13.3C80.7266 12.6 82.4266 12.4 84.1266 12.6C85.1266 12.7 86.0266 13 86.7266 13.4C87.4266 13.8 87.9266 14.2 88.3266 14.8C88.7266 15.3 88.9266 15.9 89.0266 16.6C89.1266 17.2 89.0266 17.9 88.8266 18.5C88.6266 19.1 88.3266 19.7 87.8266 20.3C87.3266 20.9 86.8266 21.4 86.0266 21.8C85.3266 22.2 84.5266 22.5 83.6266 22.7C82.7266 22.9 81.7266 22.9 80.6266 22.7C79.5266 22.5 78.5266 22.2 77.5266 21.6C76.6266 21 75.8266 20.2 75.3266 19C75.2266 19.2 75.0266 19.5 74.7266 20.1C74.5266 20.7 74.2266 21.3 74.0266 22C73.8266 22.7 73.6266 23.6 73.5266 24.4C73.4266 25.3 73.4266 26.1 73.5266 26.9C73.6266 27.7 73.9266 28.4 74.4266 29C74.9266 29.6 75.6266 30.1 76.5266 30.4C77.7266 30.7 78.9266 30.8 80.2266 30.7C81.5266 30.5 82.7266 30.2 83.7266 29.5C84.2266 29.2 84.6266 28.9 84.9266 28.6C85.2266 28.3 85.5266 27.9 85.8266 27.6C86.1266 27.2 86.3266 26.9 86.5266 26.5C86.7266 26.1 86.9266 25.7 87.2266 25.2C87.3266 25 87.4266 24.9 87.5266 25C87.6266 24.8 87.6266 25 87.5266 25.2Z" fill="black"/>
<path d="M90.6267 24.5C90.9267 24.3 91.1267 24 91.3267 23.7C91.5267 23.4 91.6267 23.1 91.7267 22.9C91.8267 22.6 91.8267 22.4 91.7267 22.3C91.7267 22.1 91.5267 22 91.4267 22.1C91.2267 22.1 91.0267 22.2 90.7267 22.4C90.4267 22.6 90.0267 23 89.6267 23.5C89.3267 23.8 89.1267 24.2 88.8267 24.6C88.6267 25 88.4267 25.3 88.3267 25.5C88.4267 25.5 88.5267 25.5 88.7267 25.4C88.9267 25.4 89.1267 25.3 89.3267 25.2C89.5267 25.1 89.7267 25 90.0267 24.9C90.2267 24.8 90.4267 24.7 90.6267 24.5ZM92.8267 25.1C92.6267 25.5 92.4267 26 92.2267 26.5C92.0267 27 91.7267 27.4 91.4267 27.8C91.1267 28.2 90.7267 28.5 90.3267 28.8C89.9267 29.1 89.4267 29.2 88.8267 29.2C88.3267 29.2 87.8267 29 87.4267 28.7C87.0267 28.4 86.8267 27.9 86.8267 27.2C86.8267 26.9 86.8267 26.5 86.9267 26.2C87.0267 25.8 87.1267 25.5 87.2267 25.1C87.4267 24.7 87.5267 24.4 87.7267 24.1C87.9267 23.8 88.1267 23.5 88.4267 23.2C88.7267 22.9 89.0267 22.6 89.3267 22.3C89.6267 22 90.0267 21.8 90.3267 21.7C90.6267 21.6 90.9267 21.5 91.3267 21.5C91.6267 21.5 91.9267 21.6 92.1267 21.8C92.3267 22 92.4267 22.2 92.5267 22.4C92.5267 22.6 92.5267 22.9 92.4267 23.2C92.3267 23.5 92.1267 23.8 91.9267 24.1C91.7267 24.4 91.4267 24.7 91.0267 24.9C90.8267 25 90.6267 25.2 90.4267 25.3C90.2267 25.4 89.9267 25.5 89.7267 25.6C89.4267 25.7 89.2267 25.8 89.0267 25.8C88.8267 25.8 88.6267 25.9 88.4267 25.9C88.3267 26.1 88.2267 26.4 88.2267 26.7C88.1267 27 88.1267 27.4 88.1267 27.7C88.1267 28 88.2267 28.3 88.4267 28.5C88.6267 28.7 88.8267 28.9 89.2267 28.9C89.7267 28.9 90.1267 28.8 90.5267 28.5C90.9267 28.2 91.2267 27.9 91.5267 27.5C91.8267 27.1 92.0267 26.7 92.3267 26.3C92.5267 25.9 92.7267 25.5 92.8267 25.2C92.8267 25.1 92.9267 25 93.0267 25C93.1267 24.9 93.1267 24.9 93.2267 24.9C93.3267 24.9 93.3267 24.9 93.3267 25C92.9267 24.9 92.9267 25 92.8267 25.1Z" fill="black"/>
<path d="M100.027 25.2C99.8266 25.5 99.6266 25.9 99.4266 26.4C99.2266 26.9 98.9266 27.3 98.6266 27.7C98.3266 28.1 98.0266 28.5 97.6266 28.8C97.2266 29.1 96.9266 29.3 96.4266 29.3C96.2266 29.3 96.0266 29.3 95.8266 29.2C95.6266 29.1 95.4266 29 95.3266 28.8C95.2266 28.6 95.1266 28.3 95.1266 28C95.1266 27.7 95.1266 27.3 95.3266 26.8C95.4266 26.5 95.5266 26.2 95.7266 25.8C95.9266 25.4 96.2266 25 96.5266 24.5C96.6266 24.3 96.7266 24.1 96.7266 23.9C96.7266 23.7 96.7266 23.6 96.5266 23.6C96.4266 23.6 96.2266 23.6 95.9266 23.8C95.6266 23.9 95.3266 24.2 94.9266 24.6C94.5266 24.9 94.1266 25.4 93.6266 26.1C93.1266 26.8 92.5266 27.7 91.9266 28.9C91.8266 29.1 91.7266 29.2 91.6266 29.2C91.5266 29.2 91.3266 29.2 91.1266 29.2C90.9266 29.2 90.8266 29.2 90.7266 29.2C90.6266 29.2 90.5266 29.2 90.4266 29.3C90.9266 28.3 91.4266 27.3 91.9266 26.2C92.4266 25.2 92.9266 24.2 93.4266 23.2C93.7266 22.7 93.9266 22.3 94.1266 22.1C94.3266 21.9 94.6266 21.8 94.9266 21.8C95.0266 21.8 95.2266 21.8 95.3266 21.9C95.5266 21.9 95.6266 21.9 95.8266 21.9C95.6266 22 95.5266 22.2 95.2266 22.5C95.0266 22.8 94.7266 23.1 94.5266 23.5C94.3266 23.9 94.0266 24.3 93.8266 24.7C93.6266 25.1 93.4266 25.5 93.2266 25.9C93.4266 25.6 93.7266 25.3 94.0266 24.9C94.3266 24.5 94.6266 24.2 95.0266 23.9C95.3266 23.7 95.6266 23.4 96.0266 23.2C96.4266 22.9 96.8266 22.7 97.1266 22.5C97.5266 22.3 97.8266 22.1 98.2266 22C98.5266 21.9 98.8266 21.9 99.0266 21.9C98.6266 22.7 98.2266 23.4 97.8266 24.1C97.6266 24.4 97.5266 24.7 97.3266 25C97.1266 25.3 97.0266 25.6 96.9266 25.9C96.8266 26.2 96.7266 26.5 96.6266 26.7C96.5266 27 96.4266 27.2 96.4266 27.4C96.3266 27.8 96.3266 28.1 96.4266 28.3C96.5266 28.4 96.6266 28.5 96.7266 28.5C97.0266 28.5 97.3266 28.3 97.6266 28C97.9266 27.7 98.2266 27.3 98.5266 26.9C98.8266 26.5 99.0266 26.1 99.2266 25.7C99.4266 25.3 99.6266 25 99.7266 24.7C99.8266 24.5 99.9266 24.4 100.027 24.5C100.127 24.8 100.127 25 100.027 25.2Z" fill="black"/>
<path d="M102.227 21.4C102.027 21.9 101.827 22.4 101.627 22.9C101.427 23.4 101.227 23.8 101.127 24.2C101.527 23.8 101.927 23.3 102.327 22.8C102.727 22.3 103.027 21.8 103.327 21.3H102.227V21.4ZM104.627 18.8C104.727 18.6 104.827 18.3 104.927 18C105.027 17.7 105.027 17.5 105.027 17.3C105.027 17.1 104.927 17.1 104.827 17.1C104.727 17.1 104.427 17.4 104.127 17.9C103.827 18.3 103.627 18.7 103.327 19.3C103.127 19.9 102.827 20.4 102.527 21.1H103.627C103.927 20.2 104.327 19.5 104.627 18.8ZM105.027 21C105.127 21 105.127 21 105.127 21.1C105.127 21.2 105.127 21.2 105.127 21.3C105.127 21.4 105.127 21.4 105.027 21.5C105.027 21.6 104.927 21.6 104.927 21.6H103.727C103.327 22.2 102.927 22.8 102.527 23.4C102.127 24 101.527 24.6 100.927 25.1C100.827 25.2 100.827 25.4 100.727 25.7C100.627 25.9 100.627 26.2 100.527 26.4C100.427 26.7 100.427 27 100.327 27.3C100.227 27.7 100.227 27.9 100.327 28.1C100.427 28.3 100.527 28.5 100.627 28.5C100.727 28.6 100.927 28.6 101.127 28.6C101.327 28.6 101.527 28.5 101.727 28.4C102.227 28 102.627 27.5 103.027 26.9C103.427 26.3 103.727 25.7 104.027 25.1C104.127 24.9 104.227 24.8 104.327 24.9C104.427 24.9 104.427 25.1 104.327 25.3C104.127 25.8 103.827 26.2 103.727 26.5C103.527 26.8 103.427 27.1 103.227 27.4C103.027 27.7 102.927 27.9 102.727 28.1C102.527 28.3 102.427 28.5 102.227 28.7C101.927 29 101.627 29.2 101.227 29.3C100.827 29.4 100.527 29.4 100.227 29.2C99.9266 29.1 99.6266 28.8 99.4266 28.5C99.2266 28.1 99.2266 27.7 99.2266 27.1C99.2266 26.7 99.3266 26.3 99.4266 25.9C99.5266 25.4 99.7266 25 99.8266 24.5C100.027 24 100.127 23.5 100.327 23C100.527 22.5 100.727 22.1 100.827 21.6H99.7266C99.6266 21.6 99.6266 21.6 99.6266 21.5C99.6266 21.4 99.6266 21.4 99.6266 21.3C99.6266 21.2 99.6266 21.2 99.7266 21.1C99.7266 21 99.8266 21 99.8266 21H101.127C101.327 20.5 101.627 19.9 101.927 19.4C102.227 18.9 102.427 18.4 102.727 17.9C103.127 17.3 103.527 16.8 103.927 16.5C104.327 16.2 104.727 16.1 105.027 16.2C105.327 16.3 105.527 16.6 105.527 17.1C105.527 17.6 105.427 18.2 105.027 19.1C104.727 19.7 104.427 20.3 104.127 20.9H105.027V21Z" fill="black"/>
<path d="M107.427 24.5C107.727 24.3 107.927 24 108.127 23.7C108.327 23.4 108.427 23.1 108.527 22.9C108.627 22.6 108.627 22.4 108.527 22.3C108.527 22.1 108.327 22 108.227 22.1C108.027 22.1 107.827 22.2 107.527 22.4C107.227 22.6 106.827 23 106.427 23.5C106.127 23.8 105.927 24.2 105.627 24.6C105.427 25 105.227 25.3 105.127 25.5C105.227 25.5 105.327 25.5 105.527 25.4C105.727 25.4 105.927 25.3 106.127 25.2C106.327 25.1 106.527 25 106.827 24.9C107.027 24.8 107.227 24.7 107.427 24.5ZM109.627 25.1C109.427 25.5 109.227 26 109.027 26.5C108.827 27 108.527 27.4 108.227 27.8C107.927 28.2 107.527 28.5 107.127 28.8C106.727 29.1 106.227 29.2 105.627 29.2C105.127 29.2 104.627 29 104.227 28.7C103.827 28.4 103.627 27.9 103.627 27.2C103.627 26.9 103.627 26.5 103.727 26.2C103.827 25.8 103.927 25.5 104.027 25.1C104.227 24.7 104.327 24.4 104.527 24.1C104.727 23.8 104.927 23.5 105.227 23.2C105.527 22.9 105.827 22.6 106.127 22.3C106.427 22 106.827 21.8 107.127 21.7C107.427 21.6 107.727 21.5 108.127 21.5C108.427 21.5 108.727 21.6 108.927 21.8C109.127 22 109.227 22.2 109.327 22.4C109.327 22.6 109.327 22.9 109.227 23.2C109.127 23.5 108.927 23.8 108.727 24.1C108.527 24.4 108.227 24.7 107.827 24.9C107.627 25 107.427 25.2 107.227 25.3C107.027 25.4 106.727 25.5 106.527 25.6C106.227 25.7 106.027 25.8 105.827 25.8C105.627 25.8 105.427 25.9 105.227 25.9C105.127 26.1 105.027 26.4 105.027 26.7C104.927 27 104.927 27.4 104.927 27.7C104.927 28 105.027 28.3 105.227 28.5C105.427 28.7 105.627 28.9 106.027 28.9C106.527 28.9 106.927 28.8 107.327 28.5C107.727 28.2 108.027 27.9 108.327 27.5C108.627 27.1 108.827 26.7 109.127 26.3C109.327 25.9 109.527 25.5 109.627 25.2C109.627 25.1 109.727 25 109.827 25C109.927 24.9 109.927 24.9 110.027 24.9C110.127 24.9 110.127 24.9 110.127 25C109.727 24.9 109.727 25 109.627 25.1Z" fill="black"/>
<path d="M115.227 25.2C115.027 25.5 114.927 25.9 114.627 26.3C114.427 26.7 114.127 27.1 113.927 27.5C113.627 27.9 113.427 28.2 113.027 28.5C112.727 28.8 112.427 29 112.027 29.1C111.827 29.1 111.627 29.1 111.427 29.1C111.227 29 111.027 28.9 110.827 28.7C110.627 28.5 110.527 28.2 110.527 27.8C110.527 27.4 110.627 27 110.827 26.4C110.927 26.2 111.027 26 111.127 25.7C111.227 25.5 111.427 25.2 111.527 25C111.627 24.8 111.827 24.6 111.927 24.4C112.027 24.2 112.127 24 112.227 23.9C112.427 23.5 112.327 23.3 111.927 23.1C111.627 22.9 111.127 22.9 110.527 22.9L110.227 23.6C110.127 23.9 109.927 24.3 109.727 24.8C109.527 25.2 109.327 25.7 109.127 26.1C108.927 26.6 108.627 27 108.427 27.4C108.127 27.8 107.927 28.1 107.627 28.4C107.527 28.5 107.427 28.5 107.427 28.4C107.327 28.3 107.427 28.2 107.427 28.1C107.827 27.5 108.227 26.9 108.627 26.3C109.027 25.6 109.327 25 109.627 24.3C109.927 23.6 110.127 22.9 110.327 22.2C110.527 21.5 110.627 20.9 110.827 20.3C110.927 20 111.027 19.8 111.127 19.7C111.327 19.6 111.427 19.6 111.627 19.7C111.827 19.8 111.927 19.9 112.027 20.2C112.127 20.4 112.127 20.7 112.127 21.1C112.027 21.4 111.927 21.7 111.627 21.9C111.327 22.2 111.127 22.4 110.927 22.5C111.327 22.5 111.827 22.5 112.327 22.5C112.827 22.5 113.327 22.4 113.927 22.4C113.927 22.5 114.027 22.6 113.927 22.7C113.927 22.8 113.827 23 113.827 23.1C113.727 23.3 113.727 23.4 113.627 23.6C113.527 23.8 113.527 23.9 113.427 24C113.327 24.1 113.227 24.3 113.127 24.6C113.027 24.9 112.827 25.2 112.627 25.5C112.427 25.8 112.327 26.2 112.127 26.6C111.927 27 111.827 27.3 111.827 27.6C111.727 27.9 111.727 28.2 111.727 28.4C111.727 28.6 111.927 28.7 112.127 28.7C112.327 28.7 112.627 28.6 112.827 28.3C113.127 28 113.327 27.7 113.627 27.3C113.927 26.9 114.127 26.5 114.327 26.1C114.527 25.7 114.727 25.4 114.827 25.1C114.927 24.9 115.027 24.8 115.127 24.9C115.327 24.8 115.327 25 115.227 25.2Z" fill="black"/>
<path d="M124.927 22.3C124.727 22.2 124.427 22.3 124.127 22.4C123.827 22.5 123.627 22.7 123.327 23C123.027 23.3 122.827 23.6 122.527 23.9C122.227 24.3 122.027 24.7 121.827 25.1C121.627 25.5 121.427 26 121.327 26.4C121.227 26.8 121.127 27.1 121.127 27.5C121.127 27.8 121.127 28.1 121.227 28.3C121.327 28.5 121.427 28.6 121.627 28.7C121.827 28.8 122.027 28.7 122.327 28.6C122.627 28.5 122.827 28.3 123.127 28.1C123.027 27.9 122.927 27.7 122.827 27.6C122.727 27.4 122.727 27.2 122.727 27.1C122.727 26.9 122.827 26.6 122.927 26.5C123.027 26.3 123.227 26.2 123.527 26.2C123.727 26.2 123.827 26.3 124.027 26.4C124.127 26.5 124.227 26.7 124.227 26.9V27V27.1C124.427 26.7 124.727 26.4 124.927 25.9C125.127 25.5 125.327 25 125.427 24.6C125.527 24.2 125.627 23.8 125.627 23.5C125.627 23.2 125.627 22.9 125.527 22.7C125.227 22.5 125.027 22.4 124.927 22.3ZM128.027 25.1C127.927 25.3 127.827 25.6 127.627 26C127.427 26.4 127.227 26.9 126.927 27.3C126.627 27.7 126.327 28.1 125.927 28.4C125.527 28.7 125.127 28.9 124.727 28.9C124.427 28.9 124.127 28.8 123.927 28.7C123.727 28.6 123.527 28.5 123.427 28.3C123.127 28.5 122.827 28.7 122.527 28.8C122.227 28.9 121.927 29 121.627 29C121.227 29 120.927 28.9 120.627 28.6C120.427 28.4 120.227 28.1 120.127 27.7C120.027 27.3 120.027 26.9 120.127 26.5C120.227 26 120.327 25.6 120.527 25.1C120.727 24.6 121.027 24.1 121.327 23.7C121.627 23.3 122.027 22.9 122.327 22.5C122.727 22.2 123.027 21.9 123.427 21.7C123.827 21.5 124.227 21.4 124.527 21.4C124.927 21.4 125.227 21.5 125.527 21.7C125.727 21.9 125.927 22.2 126.027 22.6C126.127 23 126.127 23.4 126.027 23.9C125.927 24.4 125.827 24.8 125.627 25.3C125.427 25.7 125.227 26.1 124.927 26.6C124.627 27.1 124.227 27.5 123.827 27.9C124.027 28.3 124.327 28.4 124.827 28.4C125.127 28.4 125.527 28.3 125.827 28C126.127 27.7 126.427 27.4 126.627 27C126.927 26.6 127.127 26.2 127.327 25.8C127.527 25.4 127.727 25 127.827 24.8C127.927 24.7 127.927 24.6 128.127 24.7C128.027 24.8 128.127 24.9 128.027 25.1Z" fill="black"/>
<path d="M128.327 29.2C128.127 29.2 127.927 29.2 127.627 29.1C127.427 29 127.227 28.9 127.027 28.8C126.627 29.7 126.327 30.7 126.027 31.6C125.727 32.5 125.427 33.4 125.327 34.1C125.227 34.7 125.127 35.2 125.127 35.5C125.127 35.8 125.227 35.9 125.427 36C125.527 36 125.727 36 125.927 35.8C126.127 35.6 126.327 35.4 126.527 35.1C126.827 34.8 127.027 34.3 127.227 33.9C127.427 33.4 127.627 32.9 127.827 32.4C128.027 31.9 128.127 31.3 128.227 30.8C128.227 30.2 128.327 29.7 128.327 29.2ZM128.227 28.8C128.227 28.4 128.127 28.1 128.027 27.8C127.927 27.6 127.827 27.4 127.727 27.3C127.627 27.5 127.527 27.7 127.527 27.8C127.427 28 127.327 28.1 127.327 28.3C127.427 28.4 127.527 28.5 127.627 28.6C127.827 28.7 127.927 28.7 128.127 28.7H128.227V28.8ZM134.227 15.8C133.927 16.1 133.427 16.6 132.927 17.4C132.427 18.1 131.927 19 131.327 20C130.727 21 130.227 22.1 129.527 23.3C128.927 24.5 128.327 25.7 127.827 26.9C127.927 27.1 128.127 27.3 128.227 27.6C128.327 27.9 128.427 28.2 128.527 28.6V28.7C128.527 28.8 128.527 28.8 128.527 28.8C128.827 28.8 129.127 28.7 129.427 28.5C129.727 28.2 130.027 27.9 130.327 27.5C130.627 27.1 130.827 26.7 131.127 26.2C131.327 25.7 131.527 25.3 131.727 25C131.827 24.9 131.927 24.8 132.027 24.8C132.127 24.8 132.127 24.9 132.127 25.1C131.927 25.6 131.727 26 131.427 26.5C131.227 27 130.927 27.4 130.627 27.8C130.327 28.2 130.027 28.5 129.727 28.8C129.427 29.1 129.027 29.2 128.627 29.2C128.727 30 128.627 30.8 128.427 31.6C128.227 32.5 128.027 33.3 127.727 34C127.427 34.8 127.027 35.4 126.527 35.9C126.027 36.4 125.527 36.6 124.927 36.6C124.627 36.6 124.327 36.5 124.127 36.4C123.927 36.2 123.827 36 123.827 35.5C123.827 35.2 123.827 34.7 124.027 34.2C124.127 33.7 124.327 33.2 124.527 32.6C124.727 32 124.927 31.4 125.227 30.7C125.527 30 125.827 29.3 126.127 28.6C126.027 28.4 125.927 28.2 125.927 28.1C125.927 27.9 125.927 27.7 125.927 27.5C125.927 27.3 126.027 27.2 126.027 27C126.127 26.9 126.227 26.7 126.327 26.7C126.527 26.5 126.827 26.4 127.127 26.5C127.527 25.6 127.927 24.8 128.327 23.9C128.727 23 129.127 22.2 129.527 21.4C129.927 20.6 130.227 19.9 130.627 19.2C131.027 18.5 131.327 17.9 131.627 17.3C131.827 16.8 132.127 16.5 132.427 16.2C132.727 15.9 133.027 15.8 133.527 15.8C133.627 15.8 133.827 15.8 134.027 15.9C133.927 15.8 134.127 15.8 134.227 15.8Z" fill="black"/>
<path d="M138.227 28.8C138.027 28.7 137.827 28.5 137.627 28.2C137.427 27.9 137.327 27.6 137.327 27.2C137.127 27.4 137.027 27.6 137.027 27.8C136.927 28 136.927 28.2 137.027 28.3C137.027 28.5 137.127 28.6 137.327 28.7C137.427 28.8 137.627 28.9 137.827 28.9C137.927 28.8 138.127 28.8 138.227 28.8ZM139.527 26.3C139.527 26 139.527 25.6 139.527 25.2C139.527 24.8 139.427 24.5 139.427 24.1C139.327 23.7 139.327 23.4 139.327 23.1C139.327 22.8 139.327 22.5 139.327 22.2C139.227 22.5 139.027 22.8 138.827 23.2C138.627 23.6 138.427 23.9 138.327 24.3C138.127 24.7 137.927 25 137.827 25.4C137.627 25.7 137.527 26 137.327 26.2C137.427 26.2 137.527 26.2 137.527 26.3C137.627 26.3 137.627 26.4 137.727 26.5C137.727 26.6 137.827 26.7 137.827 26.9C137.827 27.3 137.927 27.7 138.027 28C138.227 28.3 138.427 28.5 138.727 28.6C138.927 28.4 139.227 28.1 139.327 27.8C139.427 27.4 139.527 26.9 139.527 26.3ZM143.327 25.1C143.127 25.5 142.927 26 142.627 26.6C142.327 27.1 142.027 27.6 141.727 28C141.327 28.4 140.927 28.7 140.427 29C139.927 29.2 139.427 29.2 138.827 29.1C138.527 29.2 138.227 29.3 137.927 29.3C137.327 29.3 136.827 29.1 136.527 28.8C136.227 28.5 136.027 28.1 136.027 27.8C136.027 27.4 136.027 27.1 136.227 26.8C136.427 26.5 136.627 26.3 136.827 26.3C137.127 25.8 137.427 25.2 137.727 24.5C138.027 23.8 138.327 23.2 138.627 22.6C138.727 22.4 138.827 22.2 138.927 22C139.027 21.8 139.227 21.6 139.327 21.4C139.527 21.2 139.627 21.1 139.827 21C140.027 20.9 140.227 20.8 140.327 20.8C140.627 20.8 140.927 20.8 141.127 20.9C141.327 21 141.427 21.1 141.427 21.2C141.427 21.3 141.327 21.3 141.127 21.2C141.027 21.2 140.927 21.1 140.827 21.1C140.727 21.1 140.627 21.1 140.527 21.2C140.327 21.3 140.127 21.5 140.027 21.7C139.927 21.9 139.827 22.2 139.827 22.4C139.827 22.7 139.827 22.9 139.927 23.2C140.027 23.5 140.027 23.7 140.127 23.9C140.327 24.3 140.527 24.7 140.627 25.1C140.827 25.5 140.927 25.9 140.827 26.4C140.827 26.8 140.627 27.2 140.327 27.7C140.027 28.1 139.727 28.5 139.227 28.8H139.427C139.827 28.9 140.127 28.8 140.427 28.6C140.727 28.4 141.027 28.1 141.327 27.8C141.427 27.7 141.627 27.5 141.727 27.2C141.827 27 142.027 26.7 142.127 26.5C142.227 26.2 142.427 26 142.527 25.7C142.627 25.4 142.827 25.2 142.927 25C143.027 24.9 143.027 24.8 143.127 24.9C143.327 24.9 143.427 24.9 143.327 25.1Z" fill="black"/>
<path d="M147.827 25C148.227 24.3 148.427 23.8 148.427 23.3C148.427 22.8 148.427 22.5 148.227 22.3C148.027 22.1 147.727 22.1 147.427 22.3C147.027 22.5 146.627 22.9 146.227 23.5C145.827 24.1 145.327 24.8 144.827 25.6C144.327 26.5 143.827 27.4 143.327 28.3C143.627 28.6 143.927 28.6 144.327 28.5C144.727 28.4 145.127 28.1 145.627 27.8C146.027 27.4 146.527 27 146.927 26.5C147.127 26 147.527 25.5 147.827 25ZM148.327 21.6C148.827 21.7 149.127 22 149.327 22.5C149.427 23 149.427 23.5 149.327 24C149.227 24.6 149.027 25.2 148.627 25.8C148.327 26.4 147.927 27 147.527 27.4C147.227 27.8 146.927 28.1 146.527 28.3C146.127 28.6 145.727 28.7 145.327 28.9C144.927 29 144.527 29.1 144.127 29C143.727 29 143.327 28.8 142.927 28.6L140.927 33.7C140.727 34.2 140.527 34.5 140.327 34.6C140.127 34.8 139.827 34.8 139.527 34.8C139.427 34.8 139.227 34.8 139.127 34.7C138.927 34.7 138.827 34.6 138.627 34.7C138.727 34.6 138.927 34.4 139.127 34C139.327 33.6 139.627 33.1 139.927 32.5C140.227 31.9 140.627 31.3 140.927 30.6C141.327 29.9 141.627 29.2 141.927 28.5C142.227 27.8 142.527 27.2 142.727 26.6C142.927 26 143.127 25.6 143.127 25.3C143.027 25.5 142.927 25.6 142.727 25.7C142.627 25.8 142.527 25.7 142.627 25.5C142.727 25.4 142.727 25.2 142.827 25C142.927 24.8 143.027 24.6 143.027 24.5C143.127 24.3 143.227 24 143.327 23.7C143.427 23.4 143.427 23.1 143.527 22.8C143.527 22.5 143.527 22.3 143.527 22.1C143.527 21.9 143.427 21.8 143.227 21.8C143.427 21.8 143.527 21.7 143.727 21.7C143.827 21.7 143.927 21.7 144.127 21.6C144.227 21.6 144.327 21.6 144.327 21.6C144.527 21.6 144.627 21.6 144.727 21.6C144.827 21.6 144.927 21.6 144.927 21.7C145.027 21.7 145.027 21.8 145.027 22C145.027 22.1 145.027 22.3 145.027 22.6C145.027 23 144.927 23.4 144.827 23.9C144.727 24.4 144.527 24.8 144.427 25.2C144.627 24.9 144.827 24.6 145.127 24.1C145.427 23.6 145.727 23.2 146.127 22.8C146.527 22.4 146.827 22.1 147.227 21.8C147.627 21.6 148.027 21.5 148.327 21.6Z" fill="black"/>
<path d="M150.527 27.3C150.427 27.7 150.427 28 150.427 28.2C150.427 28.5 150.627 28.6 150.927 28.6C151.127 28.6 151.227 28.6 151.427 28.5C151.627 28.4 151.727 28.3 151.927 28.2C152.327 27.8 152.627 27.4 153.027 26.8C153.327 26.2 153.727 25.6 154.027 25C154.127 24.8 154.227 24.7 154.327 24.8C154.427 24.9 154.427 25 154.327 25.2C154.227 25.5 154.027 25.9 153.827 26.3C153.627 26.7 153.327 27.2 153.027 27.6C152.727 28 152.427 28.4 152.027 28.7C151.727 29 151.327 29.1 150.927 29.1C150.527 29.1 150.227 29 150.027 28.8C149.827 28.6 149.627 28.4 149.627 28.1C149.527 27.8 149.527 27.5 149.627 27.2C149.627 26.9 149.727 26.6 149.827 26.3L151.227 22.8C151.327 22.6 151.327 22.4 151.227 22.2C151.127 22 151.027 21.9 151.027 21.9H152.227C152.527 21.9 152.727 22 152.827 22.1C152.827 22.2 152.827 22.4 152.727 22.7L151.027 26.7C151.027 26.8 150.927 26.9 150.927 27C150.927 27.1 150.827 27.1 150.827 27.2C150.527 27.2 150.527 27.3 150.527 27.3ZM153.527 20.1C153.527 20.3 153.327 20.6 153.127 20.7C152.927 20.9 152.727 21 152.427 21C152.127 21 152.027 20.9 151.827 20.7C151.727 20.5 151.627 20.3 151.627 20.1C151.627 19.9 151.827 19.6 152.027 19.5C152.227 19.3 152.427 19.2 152.727 19.2C153.027 19.2 153.127 19.3 153.327 19.5C153.527 19.7 153.527 19.9 153.527 20.1Z" fill="black"/>
<path d="M159.827 25.2C159.627 25.5 159.527 25.9 159.227 26.3C159.027 26.7 158.727 27.1 158.527 27.5C158.227 27.9 158.027 28.2 157.627 28.5C157.327 28.8 157.027 29 156.627 29.1C156.427 29.1 156.227 29.1 156.027 29.1C155.827 29 155.627 28.9 155.427 28.7C155.227 28.5 155.127 28.2 155.127 27.8C155.127 27.4 155.227 27 155.427 26.4C155.527 26.2 155.627 26 155.727 25.7C155.827 25.5 156.027 25.2 156.127 25C156.227 24.8 156.427 24.6 156.527 24.4C156.627 24.2 156.727 24 156.827 23.9C157.027 23.5 156.927 23.3 156.527 23.1C156.227 22.9 155.727 22.9 155.127 22.9L154.827 23.6C154.727 23.9 154.527 24.3 154.327 24.8C154.127 25.2 153.927 25.7 153.727 26.1C153.527 26.6 153.227 27 153.027 27.4C152.727 27.8 152.527 28.1 152.227 28.4C152.127 28.5 152.027 28.5 152.027 28.4C151.927 28.3 152.027 28.2 152.027 28.1C152.427 27.5 152.827 26.9 153.227 26.3C153.627 25.6 153.927 25 154.227 24.3C154.527 23.6 154.727 22.9 154.927 22.2C155.127 21.5 155.227 20.9 155.427 20.3C155.527 20 155.627 19.8 155.727 19.7C155.927 19.6 156.027 19.6 156.227 19.7C156.427 19.8 156.527 19.9 156.627 20.2C156.727 20.4 156.727 20.7 156.727 21.1C156.627 21.4 156.527 21.7 156.227 21.9C155.927 22.2 155.727 22.4 155.527 22.5C155.927 22.5 156.427 22.5 156.927 22.5C157.427 22.5 157.927 22.4 158.527 22.4C158.527 22.5 158.627 22.6 158.527 22.7C158.527 22.8 158.427 23 158.427 23.1C158.327 23.3 158.327 23.4 158.227 23.6C158.127 23.8 158.127 23.9 158.027 24C157.927 24.1 157.827 24.3 157.727 24.6C157.627 24.9 157.427 25.2 157.227 25.5C157.027 25.8 156.927 26.2 156.727 26.6C156.527 27 156.427 27.3 156.427 27.6C156.327 27.9 156.327 28.2 156.327 28.4C156.327 28.6 156.527 28.7 156.727 28.7C156.927 28.7 157.227 28.6 157.427 28.3C157.727 28 157.927 27.7 158.227 27.3C158.527 26.9 158.727 26.5 158.927 26.1C159.127 25.7 159.327 25.4 159.427 25.1C159.527 24.9 159.627 24.8 159.727 24.9C159.927 24.8 159.927 25 159.827 25.2Z" fill="black"/>
<path d="M159.827 27.3C159.727 27.7 159.727 28 159.727 28.2C159.727 28.5 159.927 28.6 160.227 28.6C160.427 28.6 160.527 28.6 160.727 28.5C160.927 28.4 161.027 28.3 161.227 28.2C161.627 27.8 161.927 27.4 162.327 26.8C162.627 26.2 163.027 25.6 163.327 25C163.427 24.8 163.527 24.7 163.627 24.8C163.727 24.9 163.727 25 163.627 25.2C163.527 25.5 163.327 25.9 163.127 26.3C162.927 26.7 162.627 27.2 162.327 27.6C162.027 28 161.727 28.4 161.327 28.7C161.027 29 160.627 29.1 160.227 29.1C159.827 29.1 159.527 29 159.327 28.8C159.127 28.6 158.927 28.4 158.927 28.1C158.827 27.8 158.827 27.5 158.927 27.2C158.927 26.9 159.027 26.6 159.127 26.3L160.527 22.8C160.627 22.6 160.627 22.4 160.527 22.2C160.427 22 160.327 21.9 160.327 21.9H161.527C161.827 21.9 162.027 22 162.127 22.1C162.127 22.2 162.127 22.4 162.027 22.7L160.327 26.7C160.327 26.8 160.227 26.9 160.227 27C160.227 27.1 160.127 27.1 160.127 27.2C159.827 27.2 159.827 27.3 159.827 27.3ZM162.827 20.1C162.827 20.3 162.627 20.6 162.427 20.7C162.227 20.9 162.027 21 161.727 21C161.427 21 161.327 20.9 161.127 20.7C161.027 20.5 160.927 20.3 160.927 20.1C160.927 19.9 161.127 19.6 161.327 19.5C161.527 19.3 161.727 19.2 162.027 19.2C162.327 19.2 162.427 19.3 162.627 19.5C162.827 19.7 162.927 19.9 162.827 20.1Z" fill="black"/>
<path d="M165.727 21.4C165.527 21.9 165.327 22.4 165.127 22.9C164.927 23.4 164.727 23.8 164.627 24.2C165.027 23.8 165.427 23.3 165.827 22.8C166.227 22.3 166.527 21.8 166.827 21.3H165.727V21.4ZM168.127 18.8C168.227 18.6 168.327 18.3 168.427 18C168.527 17.7 168.527 17.5 168.527 17.3C168.527 17.1 168.427 17.1 168.327 17.1C168.227 17.1 167.927 17.4 167.627 17.9C167.327 18.3 167.127 18.7 166.827 19.3C166.627 19.9 166.327 20.4 166.027 21.1H167.127C167.427 20.2 167.827 19.5 168.127 18.8ZM168.527 21C168.627 21 168.627 21 168.627 21.1C168.627 21.2 168.627 21.2 168.627 21.3C168.627 21.4 168.627 21.4 168.527 21.5C168.527 21.6 168.427 21.6 168.427 21.6H167.227C166.827 22.2 166.427 22.8 166.027 23.4C165.627 24 165.027 24.6 164.427 25.1C164.327 25.2 164.327 25.4 164.227 25.7C164.127 25.9 164.127 26.2 164.027 26.4C163.927 26.7 163.927 27 163.827 27.3C163.727 27.7 163.727 27.9 163.827 28.1C163.927 28.3 164.027 28.5 164.127 28.5C164.227 28.6 164.427 28.6 164.627 28.6C164.827 28.6 165.027 28.5 165.227 28.4C165.727 28 166.127 27.5 166.527 26.9C166.927 26.3 167.227 25.7 167.527 25.1C167.627 24.9 167.727 24.8 167.827 24.9C167.927 24.9 167.927 25.1 167.827 25.3C167.627 25.8 167.327 26.2 167.227 26.5C167.027 26.8 166.927 27.1 166.727 27.4C166.527 27.7 166.427 27.9 166.227 28.1C166.027 28.3 165.927 28.5 165.727 28.7C165.427 29 165.127 29.2 164.727 29.3C164.327 29.4 164.027 29.4 163.727 29.2C163.427 29.1 163.127 28.8 162.927 28.5C162.727 28.1 162.727 27.7 162.727 27.1C162.727 26.7 162.827 26.3 162.927 25.9C163.027 25.4 163.227 25 163.327 24.5C163.527 24 163.627 23.5 163.827 23C164.027 22.5 164.227 22.1 164.327 21.6H163.227C163.127 21.6 163.127 21.6 163.127 21.5C163.127 21.4 163.127 21.4 163.127 21.3C163.127 21.2 163.127 21.2 163.227 21.1C163.227 21 163.327 21 163.327 21H164.627C164.827 20.5 165.127 19.9 165.427 19.4C165.727 18.9 165.927 18.4 166.227 17.9C166.627 17.3 167.027 16.8 167.427 16.5C167.827 16.2 168.227 16.1 168.527 16.2C168.827 16.3 169.027 16.6 169.027 17.1C169.027 17.6 168.927 18.2 168.527 19.1C168.227 19.7 167.927 20.3 167.627 20.9H168.527V21Z" fill="black"/>
<path d="M175.527 25.2C175.327 25.6 175.127 26 174.927 26.4C174.727 26.9 174.427 27.3 174.127 27.7C173.827 28.1 173.527 28.4 173.227 28.7C172.927 29 172.527 29.1 172.127 29.1C171.927 29.1 171.627 29 171.527 28.9C171.327 28.8 171.227 28.6 171.127 28.4C171.027 28.2 171.027 27.9 171.027 27.5C171.027 27.2 171.127 26.8 171.227 26.3C171.027 26.6 170.827 27 170.627 27.3C170.427 27.6 170.127 27.9 169.927 28.2C169.627 28.5 169.427 28.7 169.127 28.8C168.827 29 168.627 29 168.327 29C168.227 29 168.127 29 167.927 29C167.827 29 167.627 28.9 167.527 28.9C167.427 28.8 167.327 28.7 167.127 28.6C167.027 28.5 166.927 28.3 166.927 28.1C166.927 27.9 166.827 27.6 166.927 27.4C166.927 27.2 167.027 27 167.127 26.8C167.227 26.6 167.327 26.4 167.427 26.2C167.527 26 167.627 25.8 167.727 25.6C167.627 25.6 167.627 25.6 167.527 25.5C167.427 25.5 167.427 25.4 167.527 25.2C167.627 25.1 167.627 25 167.727 24.8C167.827 24.7 167.827 24.5 167.927 24.4C168.127 24 168.327 23.6 168.527 23.2C168.727 22.8 168.927 22.4 169.127 22.1C169.227 21.9 169.327 21.8 169.427 21.7C169.527 21.6 169.727 21.6 169.927 21.6H171.227C171.127 21.7 171.027 21.8 170.927 21.9C170.827 22 170.727 22.1 170.627 22.2C170.527 22.3 170.427 22.5 170.327 22.7C170.227 22.9 170.127 23.1 169.927 23.4C169.727 23.8 169.527 24.1 169.427 24.5C169.227 24.8 169.127 25.1 168.927 25.4C168.827 25.7 168.627 26 168.527 26.2C168.227 26.8 168.127 27.2 168.127 27.6C168.127 28 168.127 28.2 168.327 28.4C168.427 28.6 168.627 28.6 168.927 28.5C169.227 28.4 169.527 28.1 169.827 27.7C170.127 27.4 170.427 26.9 170.727 26.5C171.027 26 171.327 25.5 171.527 25C171.827 24.5 172.027 24 172.327 23.5C172.627 23 172.827 22.5 173.027 22.1C173.127 21.9 173.227 21.8 173.327 21.7C173.427 21.6 173.627 21.6 173.827 21.6H175.027C174.827 21.7 174.727 21.8 174.627 22C174.527 22.1 174.427 22.2 174.327 22.4C174.227 22.6 174.127 22.7 174.027 23C173.927 23.2 173.727 23.5 173.627 23.8C173.427 24.1 173.327 24.4 173.127 24.7C172.927 25 172.827 25.3 172.727 25.6C172.627 25.9 172.427 26.2 172.327 26.5C172.227 26.8 172.127 27 172.127 27.2C172.027 27.7 172.027 28 172.127 28.2C172.227 28.4 172.327 28.5 172.527 28.5C172.827 28.5 173.027 28.4 173.327 28.2C173.627 28 173.827 27.7 174.127 27.3C174.427 26.9 174.627 26.6 174.827 26.1C175.027 25.7 175.227 25.3 175.427 24.9C175.527 24.7 175.627 24.6 175.727 24.7C175.627 24.8 175.627 25 175.527 25.2Z" fill="black"/>
<path d="M183.027 25.2C182.827 25.5 182.627 25.9 182.427 26.4C182.227 26.8 181.927 27.3 181.627 27.7C181.327 28.1 181.027 28.5 180.727 28.8C180.427 29.1 180.127 29.3 179.727 29.3C179.527 29.3 179.327 29.3 179.127 29.2C178.927 29.1 178.727 29 178.627 28.8C178.527 28.6 178.427 28.3 178.427 27.9C178.427 27.5 178.427 27.1 178.627 26.5C178.427 26.8 178.227 27.1 177.927 27.5C177.627 27.9 177.327 28.2 177.027 28.5C176.627 28.9 176.227 29.1 175.927 29.2C175.527 29.3 175.327 29.2 175.027 29C174.827 28.8 174.627 28.5 174.527 28.2C174.427 27.8 174.427 27.4 174.427 26.8C174.527 26.3 174.627 25.7 174.927 25.1C175.227 24.5 175.627 23.8 176.127 23.2C176.427 22.8 176.827 22.5 177.227 22.2C177.727 21.9 178.127 21.7 178.627 21.6C179.127 21.5 179.527 21.5 180.027 21.6C180.427 21.7 180.827 21.9 181.127 22.2C181.327 22.4 181.327 22.5 181.227 22.7C181.127 22.8 181.027 22.9 180.827 22.9C180.727 22.5 180.527 22.3 180.127 22.2C179.727 22.1 179.427 22.2 179.027 22.4C178.527 22.7 178.027 23.1 177.527 23.7C177.027 24.3 176.527 24.9 176.127 25.5C176.127 25.6 176.027 25.7 175.927 25.8C175.827 26 175.727 26.1 175.627 26.3C175.527 26.5 175.427 26.7 175.327 26.9C175.227 27.1 175.227 27.3 175.127 27.5C175.027 27.9 175.127 28.1 175.227 28.3C175.327 28.5 175.527 28.6 175.727 28.6C175.927 28.6 176.127 28.5 176.427 28.4C176.727 28.2 176.927 28 177.227 27.7C177.627 27.2 177.927 26.8 178.227 26.2C178.527 25.7 178.827 25.2 179.127 24.6C179.327 24.1 179.627 23.8 179.827 23.5C180.027 23.3 180.327 23.1 180.627 23.2C180.727 23.2 180.927 23.2 181.027 23.3C181.227 23.3 181.327 23.3 181.527 23.3C181.427 23.4 181.227 23.6 181.027 23.9C180.827 24.2 180.627 24.6 180.427 25C180.227 25.4 180.027 25.8 179.827 26.2C179.627 26.6 179.527 27 179.427 27.3C179.227 28.2 179.327 28.6 179.627 28.6C179.827 28.6 180.127 28.5 180.427 28.2C180.727 27.9 180.927 27.6 181.227 27.2C181.527 26.8 181.727 26.4 181.927 26C182.127 25.6 182.327 25.3 182.427 25C182.527 24.8 182.627 24.7 182.727 24.8C183.127 24.8 183.127 25 183.027 25.2Z" fill="black"/>
<path d="M188.027 18.2C188.127 18 188.227 17.7 188.327 17.4C188.427 17.1 188.427 16.9 188.427 16.7C188.427 16.5 188.327 16.5 188.227 16.5C188.127 16.5 187.927 16.8 187.627 17.2C187.327 17.6 187.027 18.1 186.727 18.7C186.427 19.3 186.027 20 185.727 20.6C185.427 21.3 185.127 21.9 184.827 22.6C184.527 23.3 184.327 23.8 184.127 24.2C184.527 23.8 184.927 23.4 185.227 22.9C185.627 22.4 185.927 21.9 186.327 21.4C186.627 20.9 187.027 20.3 187.227 19.8C187.527 19.2 187.827 18.7 188.027 18.2ZM188.327 18.5C187.827 19.6 187.227 20.7 186.527 21.8C185.827 22.9 184.927 23.9 183.927 24.9C183.827 25.1 183.827 25.3 183.727 25.5C183.627 25.7 183.527 26 183.527 26.3C183.327 26.9 183.327 27.5 183.427 27.8C183.527 28.2 183.727 28.4 183.927 28.5C184.227 28.6 184.427 28.6 184.827 28.4C185.127 28.2 185.427 28 185.727 27.6C185.927 27.3 186.027 27.1 186.227 26.8C186.427 26.5 186.527 26.3 186.727 26C186.827 25.8 187.027 25.5 187.127 25.3C187.227 25.1 187.327 24.9 187.427 24.8C187.527 24.6 187.627 24.5 187.727 24.6C187.827 24.6 187.827 24.7 187.727 25C187.627 25.3 187.427 25.7 187.227 26.1C187.027 26.6 186.727 27 186.427 27.4C186.127 27.8 185.727 28.2 185.327 28.5C184.927 28.8 184.427 29 183.927 29C183.527 29 183.227 28.9 183.027 28.8C182.827 28.6 182.627 28.5 182.527 28.2C182.427 28 182.427 27.7 182.427 27.4C182.427 27.1 182.427 26.8 182.527 26.5C182.627 26.2 182.627 25.9 182.727 25.6C182.827 25.3 182.927 25.1 182.927 24.8C183.127 24.2 183.327 23.6 183.527 22.9C183.727 22.2 184.027 21.6 184.327 20.9C184.627 20.2 184.927 19.6 185.227 19C185.527 18.4 185.827 17.8 186.127 17.3C186.527 16.7 186.927 16.2 187.327 15.9C187.727 15.6 188.127 15.5 188.427 15.6C188.727 15.7 188.927 16 188.927 16.4C188.927 17 188.727 17.7 188.327 18.5Z" fill="black"/>
<path d="M198.927 25.2C198.627 25.8 198.427 26.3 198.127 26.8C197.827 27.3 197.627 27.7 197.227 28.1C196.927 28.5 196.527 28.8 196.127 29C195.727 29.2 195.227 29.3 194.627 29.3C194.027 29.3 193.627 29.2 193.327 29C193.027 28.8 192.727 28.5 192.627 28.2C192.527 27.9 192.427 27.5 192.427 27.1C192.427 26.7 192.527 26.3 192.627 25.8C192.727 25.4 192.927 24.9 193.127 24.5C193.327 24.1 193.627 23.7 193.827 23.3C194.227 22.8 194.727 22.3 195.227 22C195.727 21.7 196.227 21.6 196.727 21.6C197.227 21.6 197.627 21.7 197.927 22C198.227 22.3 198.227 22.6 198.227 23.1C198.227 23.3 198.127 23.5 198.027 23.6C197.927 23.8 197.827 23.9 197.627 24.1C197.527 24.2 197.327 24.3 197.127 24.3C196.927 24.3 196.827 24.3 196.727 24.2C196.827 24.1 196.927 23.9 197.127 23.7C197.327 23.5 197.327 23.3 197.427 23.1C197.527 22.7 197.527 22.5 197.427 22.3C197.327 22.1 197.227 22.1 197.027 22.1C196.827 22.1 196.627 22.2 196.427 22.3C196.227 22.4 196.027 22.6 195.827 22.7C195.627 22.9 195.427 23.1 195.227 23.3C195.027 23.5 194.827 23.7 194.727 24C194.627 24.1 194.527 24.3 194.327 24.6C194.227 24.8 194.027 25.1 193.927 25.4C193.827 25.7 193.727 26 193.627 26.3C193.527 26.6 193.527 27 193.527 27.3C193.527 27.7 193.627 28.1 193.827 28.4C194.027 28.7 194.327 28.9 194.827 28.9C195.327 28.9 195.727 28.8 196.127 28.5C196.527 28.3 196.827 28 197.127 27.6C197.427 27.2 197.727 26.8 197.927 26.4C198.127 26 198.427 25.5 198.627 25.1C198.727 24.9 198.827 24.8 198.927 24.9C199.027 24.8 199.027 25 198.927 25.2Z" fill="black"/>
<path d="M204.327 25.2C204.127 25.5 204.027 25.9 203.727 26.3C203.527 26.7 203.227 27.1 203.027 27.5C202.727 27.9 202.527 28.2 202.127 28.5C201.827 28.8 201.527 29 201.127 29.1C200.927 29.1 200.727 29.1 200.527 29.1C200.327 29 200.127 28.9 199.927 28.7C199.727 28.5 199.627 28.2 199.627 27.8C199.627 27.4 199.727 27 199.927 26.4C200.027 26.2 200.127 26 200.227 25.7C200.327 25.5 200.527 25.2 200.627 25C200.727 24.8 200.927 24.6 201.027 24.4C201.127 24.2 201.227 24 201.327 23.9C201.527 23.5 201.427 23.3 201.027 23.1C200.727 22.9 200.227 22.9 199.627 22.9L199.327 23.6C199.227 23.9 199.027 24.3 198.827 24.8C198.627 25.2 198.427 25.7 198.227 26.1C198.027 26.6 197.727 27 197.527 27.4C197.227 27.8 197.027 28.1 196.727 28.4C196.627 28.5 196.527 28.5 196.527 28.4C196.427 28.3 196.527 28.2 196.527 28.1C196.927 27.5 197.327 26.9 197.727 26.3C198.127 25.6 198.427 25 198.727 24.3C199.027 23.6 199.227 22.9 199.427 22.2C199.627 21.5 199.727 20.9 199.927 20.3C200.027 20 200.127 19.8 200.227 19.7C200.427 19.6 200.527 19.6 200.727 19.7C200.927 19.8 201.027 19.9 201.127 20.2C201.227 20.4 201.227 20.7 201.227 21.1C201.127 21.4 201.027 21.7 200.727 21.9C200.427 22.2 200.227 22.4 200.027 22.5C200.427 22.5 200.927 22.5 201.427 22.5C201.927 22.5 202.427 22.4 203.027 22.4C203.027 22.5 203.127 22.6 203.027 22.7C203.027 22.8 202.927 23 202.927 23.1C202.827 23.3 202.827 23.4 202.727 23.6C202.627 23.8 202.627 23.9 202.527 24C202.427 24.1 202.327 24.3 202.227 24.6C202.127 24.9 201.927 25.2 201.727 25.5C201.527 25.8 201.427 26.2 201.227 26.6C201.027 27 200.927 27.3 200.927 27.6C200.827 27.9 200.827 28.2 200.827 28.4C200.827 28.6 201.027 28.7 201.227 28.7C201.427 28.7 201.727 28.6 201.927 28.3C202.227 28 202.427 27.7 202.727 27.3C203.027 26.9 203.227 26.5 203.427 26.1C203.627 25.7 203.827 25.4 203.927 25.1C204.027 24.9 204.127 24.8 204.227 24.9C204.427 24.8 204.427 25 204.327 25.2Z" fill="black"/>
<path d="M207.427 24.5C207.727 24.3 207.927 24 208.127 23.7C208.327 23.4 208.427 23.1 208.527 22.9C208.627 22.6 208.627 22.4 208.527 22.3C208.527 22.1 208.327 22 208.227 22.1C208.027 22.1 207.827 22.2 207.527 22.4C207.227 22.6 206.827 23 206.427 23.5C206.127 23.8 205.927 24.2 205.627 24.6C205.427 25 205.227 25.3 205.127 25.5C205.227 25.5 205.327 25.5 205.527 25.4C205.727 25.4 205.927 25.3 206.127 25.2C206.327 25.1 206.527 25 206.827 24.9C207.027 24.8 207.227 24.7 207.427 24.5ZM209.627 25.1C209.427 25.5 209.227 26 209.027 26.5C208.827 27 208.527 27.4 208.227 27.8C207.927 28.2 207.527 28.5 207.127 28.8C206.727 29.1 206.227 29.2 205.627 29.2C205.127 29.2 204.627 29 204.227 28.7C203.827 28.4 203.627 27.9 203.627 27.2C203.627 26.9 203.627 26.5 203.727 26.2C203.827 25.8 203.927 25.5 204.027 25.1C204.227 24.7 204.327 24.4 204.527 24.1C204.727 23.8 204.927 23.5 205.227 23.2C205.527 22.9 205.827 22.6 206.127 22.3C206.427 22 206.827 21.8 207.127 21.7C207.427 21.6 207.727 21.5 208.127 21.5C208.427 21.5 208.727 21.6 208.927 21.8C209.127 22 209.227 22.2 209.327 22.4C209.327 22.6 209.327 22.9 209.227 23.2C209.127 23.5 208.927 23.8 208.727 24.1C208.527 24.4 208.227 24.7 207.827 24.9C207.627 25 207.427 25.2 207.227 25.3C207.027 25.4 206.727 25.5 206.527 25.6C206.227 25.7 206.027 25.8 205.827 25.8C205.627 25.8 205.427 25.9 205.227 25.9C205.127 26.1 205.027 26.4 205.027 26.7C204.927 27 204.927 27.4 204.927 27.7C204.927 28 205.027 28.3 205.227 28.5C205.427 28.7 205.627 28.9 206.027 28.9C206.527 28.9 206.927 28.8 207.327 28.5C207.727 28.2 208.027 27.9 208.327 27.5C208.627 27.1 208.827 26.7 209.127 26.3C209.327 25.9 209.527 25.5 209.627 25.2C209.627 25.1 209.727 25 209.827 25C209.927 24.9 209.927 24.9 210.027 24.9C210.127 24.9 210.127 24.9 210.127 25C209.727 24.9 209.727 25 209.627 25.1Z" fill="black"/>
<path d="M217.127 25.2C216.927 25.5 216.727 25.9 216.527 26.4C216.327 26.8 216.027 27.3 215.727 27.7C215.427 28.1 215.127 28.5 214.827 28.8C214.527 29.1 214.227 29.3 213.827 29.3C213.627 29.3 213.427 29.3 213.227 29.2C213.027 29.1 212.827 29 212.727 28.8C212.627 28.6 212.527 28.3 212.527 27.9C212.527 27.5 212.527 27.1 212.727 26.5C212.527 26.8 212.327 27.1 212.027 27.5C211.727 27.9 211.427 28.2 211.127 28.5C210.727 28.9 210.327 29.1 210.027 29.2C209.627 29.3 209.427 29.2 209.127 29C208.927 28.8 208.727 28.5 208.627 28.2C208.527 27.8 208.527 27.4 208.527 26.8C208.627 26.3 208.727 25.7 209.027 25.1C209.327 24.5 209.727 23.8 210.227 23.2C210.527 22.8 210.927 22.5 211.327 22.2C211.827 21.9 212.227 21.7 212.727 21.6C213.227 21.5 213.627 21.5 214.127 21.6C214.527 21.7 214.927 21.9 215.227 22.2C215.427 22.4 215.427 22.5 215.327 22.7C215.227 22.8 215.127 22.9 214.927 22.9C214.827 22.5 214.627 22.3 214.227 22.2C213.827 22.1 213.527 22.2 213.127 22.4C212.627 22.7 212.127 23.1 211.627 23.7C211.127 24.3 210.627 24.9 210.227 25.5C210.227 25.6 210.127 25.7 210.027 25.8C209.927 26 209.827 26.1 209.727 26.3C209.627 26.5 209.527 26.7 209.427 26.9C209.327 27.1 209.327 27.3 209.227 27.5C209.127 27.9 209.227 28.1 209.327 28.3C209.427 28.5 209.627 28.6 209.827 28.6C210.027 28.6 210.227 28.5 210.527 28.4C210.827 28.2 211.027 28 211.327 27.7C211.727 27.2 212.027 26.8 212.327 26.2C212.627 25.7 212.927 25.2 213.227 24.6C213.427 24.1 213.727 23.8 213.927 23.5C214.127 23.3 214.427 23.1 214.727 23.2C214.827 23.2 215.027 23.2 215.127 23.3C215.327 23.3 215.427 23.3 215.627 23.3C215.527 23.4 215.327 23.6 215.127 23.9C214.927 24.2 214.727 24.6 214.527 25C214.327 25.4 214.127 25.8 213.927 26.2C213.727 26.6 213.627 27 213.527 27.3C213.327 28.2 213.427 28.6 213.727 28.6C213.927 28.6 214.227 28.5 214.527 28.2C214.827 27.9 215.027 27.6 215.327 27.2C215.627 26.8 215.827 26.4 216.027 26C216.227 25.6 216.427 25.3 216.527 25C216.627 24.8 216.727 24.7 216.827 24.8C217.227 24.8 217.227 25 217.127 25.2Z" fill="black"/>
<path d="M219.327 21.4C219.127 21.9 218.927 22.4 218.727 22.9C218.527 23.4 218.327 23.8 218.227 24.2C218.627 23.8 219.027 23.3 219.427 22.8C219.827 22.3 220.127 21.8 220.427 21.3H219.327V21.4ZM221.727 18.8C221.827 18.6 221.927 18.3 222.027 18C222.127 17.7 222.127 17.5 222.127 17.3C222.127 17.1 222.027 17.1 221.927 17.1C221.827 17.1 221.527 17.4 221.227 17.9C220.927 18.3 220.727 18.7 220.427 19.3C220.227 19.9 219.927 20.4 219.627 21.1H220.727C221.027 20.2 221.427 19.5 221.727 18.8ZM222.127 21C222.227 21 222.227 21 222.227 21.1C222.227 21.2 222.227 21.2 222.227 21.3C222.227 21.4 222.227 21.4 222.127 21.5C222.127 21.6 222.027 21.6 222.027 21.6H220.827C220.427 22.2 220.027 22.8 219.627 23.4C219.227 24 218.627 24.6 218.027 25.1C217.927 25.2 217.927 25.4 217.827 25.7C217.727 25.9 217.727 26.2 217.627 26.4C217.527 26.7 217.527 27 217.427 27.3C217.327 27.7 217.327 27.9 217.427 28.1C217.527 28.3 217.627 28.5 217.727 28.5C217.827 28.6 218.027 28.6 218.227 28.6C218.427 28.6 218.627 28.5 218.827 28.4C219.327 28 219.727 27.5 220.127 26.9C220.527 26.3 220.827 25.7 221.127 25.1C221.227 24.9 221.327 24.8 221.427 24.9C221.527 24.9 221.527 25.1 221.427 25.3C221.227 25.8 220.927 26.2 220.827 26.5C220.627 26.8 220.527 27.1 220.327 27.4C220.127 27.7 220.027 27.9 219.827 28.1C219.627 28.3 219.527 28.5 219.327 28.7C219.027 29 218.727 29.2 218.327 29.3C217.927 29.4 217.627 29.4 217.327 29.2C217.027 29.1 216.727 28.8 216.527 28.5C216.327 28.1 216.327 27.7 216.327 27.1C216.327 26.7 216.427 26.3 216.527 25.9C216.627 25.4 216.827 25 216.927 24.5C217.127 24 217.227 23.5 217.427 23C217.627 22.5 217.827 22.1 217.927 21.6H216.827C216.727 21.6 216.727 21.6 216.727 21.5C216.727 21.4 216.727 21.4 216.727 21.3C216.727 21.2 216.727 21.2 216.827 21.1C216.827 21 216.927 21 216.927 21H218.227C218.427 20.5 218.727 19.9 219.027 19.4C219.327 18.9 219.527 18.4 219.827 17.9C220.227 17.3 220.627 16.8 221.027 16.5C221.427 16.2 221.827 16.1 222.127 16.2C222.427 16.3 222.627 16.6 222.627 17.1C222.627 17.6 222.527 18.2 222.127 19.1C221.827 19.7 221.527 20.3 221.227 20.9H222.127V21Z" fill="black"/>
<path d="M221.427 27.3C221.327 27.7 221.327 28 221.327 28.2C221.327 28.5 221.527 28.6 221.827 28.6C222.027 28.6 222.127 28.6 222.327 28.5C222.527 28.4 222.627 28.3 222.827 28.2C223.227 27.8 223.527 27.4 223.927 26.8C224.227 26.2 224.627 25.6 224.927 25C225.027 24.8 225.127 24.7 225.227 24.8C225.327 24.9 225.327 25 225.227 25.2C225.127 25.5 224.927 25.9 224.727 26.3C224.527 26.7 224.227 27.2 223.927 27.6C223.627 28 223.327 28.4 222.927 28.7C222.627 29 222.227 29.1 221.827 29.1C221.427 29.1 221.127 29 220.927 28.8C220.727 28.6 220.527 28.4 220.527 28.1C220.427 27.8 220.427 27.5 220.527 27.2C220.527 26.9 220.627 26.6 220.727 26.3L222.127 22.8C222.227 22.6 222.227 22.4 222.127 22.2C222.027 22 221.927 21.9 221.927 21.9H223.127C223.427 21.9 223.627 22 223.727 22.1C223.727 22.2 223.727 22.4 223.627 22.7L221.927 26.7C221.927 26.8 221.827 26.9 221.827 27C221.827 27.1 221.727 27.1 221.727 27.2C221.427 27.2 221.427 27.3 221.427 27.3ZM224.427 20.1C224.427 20.3 224.227 20.6 224.027 20.7C223.827 20.9 223.627 21 223.327 21C223.027 21 222.927 20.9 222.727 20.7C222.627 20.5 222.527 20.3 222.527 20.1C222.527 19.9 222.727 19.6 222.927 19.5C223.127 19.3 223.327 19.2 223.627 19.2C223.927 19.2 224.027 19.3 224.227 19.5C224.427 19.7 224.527 19.9 224.427 20.1Z" fill="black"/>
<path d="M230.527 21.9V22C230.427 22.3 230.327 22.6 230.127 23.1C229.927 23.6 229.827 24.1 229.527 24.7C229.327 25.3 229.027 25.8 228.727 26.4C228.427 27 228.127 27.5 227.727 27.9C227.327 28.4 226.927 28.7 226.527 28.9C226.127 29.1 225.627 29.2 225.127 29.1C224.827 29 224.627 28.9 224.427 28.6C224.327 28.3 224.227 28 224.327 27.7C224.327 27.3 224.427 26.9 224.527 26.5C224.627 26.1 224.827 25.6 224.927 25.2C224.827 25.4 224.727 25.5 224.627 25.4C224.527 25.4 224.527 25.3 224.527 25.1C224.627 25 224.627 24.9 224.727 24.7C224.827 24.6 224.827 24.5 224.927 24.3C225.027 24.1 225.127 23.8 225.227 23.5C225.327 23.2 225.327 22.9 225.327 22.7C225.327 22.4 225.327 22.2 225.227 22C225.127 21.8 225.127 21.7 224.927 21.6C225.127 21.6 225.227 21.5 225.427 21.5C225.527 21.5 225.627 21.5 225.827 21.4C225.927 21.4 226.027 21.4 226.027 21.4C226.227 21.4 226.327 21.4 226.427 21.4C226.527 21.4 226.627 21.4 226.627 21.5C226.727 21.5 226.727 21.6 226.727 21.8C226.727 21.9 226.727 22.1 226.727 22.4C226.727 22.8 226.627 23.2 226.527 23.7C226.427 24.2 226.227 24.6 226.127 25C226.027 25.4 225.827 25.7 225.727 26.1C225.627 26.5 225.527 26.8 225.427 27.1C225.327 27.4 225.327 27.7 225.327 27.9C225.327 28.1 225.427 28.3 225.527 28.3C225.827 28.4 226.027 28.4 226.327 28.2C226.627 28 226.827 27.8 227.127 27.5C227.427 27.2 227.627 26.8 227.927 26.3C228.227 25.8 228.427 25.3 228.627 24.8C228.427 24.5 228.327 24.1 228.327 23.7C228.327 23.3 228.327 22.9 228.427 22.7C228.527 22.2 228.727 21.9 229.027 21.6C229.327 21.3 229.527 21.2 229.727 21.1C229.927 21 230.127 21.1 230.227 21.2C230.627 21.5 230.627 21.7 230.527 21.9Z" fill="black"/>
<path d="M230.827 27.3C230.727 27.7 230.727 28 230.727 28.2C230.727 28.5 230.927 28.6 231.227 28.6C231.427 28.6 231.527 28.6 231.727 28.5C231.927 28.4 232.027 28.3 232.227 28.2C232.627 27.8 232.927 27.4 233.327 26.8C233.627 26.2 234.027 25.6 234.327 25C234.427 24.8 234.527 24.7 234.627 24.8C234.727 24.9 234.727 25 234.627 25.2C234.527 25.5 234.327 25.9 234.127 26.3C233.927 26.7 233.627 27.2 233.327 27.6C233.027 28 232.727 28.4 232.327 28.7C232.027 29 231.627 29.1 231.227 29.1C230.827 29.1 230.527 29 230.327 28.8C230.127 28.6 229.927 28.4 229.927 28.1C229.827 27.8 229.827 27.5 229.927 27.2C229.927 26.9 230.027 26.6 230.127 26.3L231.527 22.8C231.627 22.6 231.627 22.4 231.527 22.2C231.427 22 231.327 21.9 231.327 21.9H232.527C232.827 21.9 233.027 22 233.127 22.1C233.127 22.2 233.127 22.4 233.027 22.7L231.327 26.7C231.327 26.8 231.227 26.9 231.227 27C231.227 27.1 231.127 27.1 231.127 27.2C230.827 27.2 230.827 27.3 230.827 27.3ZM233.827 20.1C233.827 20.3 233.627 20.6 233.427 20.7C233.227 20.9 233.027 21 232.727 21C232.427 21 232.327 20.9 232.127 20.7C232.027 20.5 231.927 20.3 231.927 20.1C231.927 19.9 232.127 19.6 232.327 19.5C232.527 19.3 232.727 19.2 233.027 19.2C233.327 19.2 233.427 19.3 233.627 19.5C233.827 19.7 233.927 19.9 233.827 20.1Z" fill="black"/>
<path d="M236.727 21.4C236.527 21.9 236.327 22.4 236.127 22.9C235.927 23.4 235.727 23.8 235.627 24.2C236.027 23.8 236.427 23.3 236.827 22.8C237.227 22.3 237.527 21.8 237.827 21.3H236.727V21.4ZM239.127 18.8C239.227 18.6 239.327 18.3 239.427 18C239.527 17.7 239.527 17.5 239.527 17.3C239.527 17.1 239.427 17.1 239.327 17.1C239.227 17.1 238.927 17.4 238.627 17.9C238.327 18.3 238.127 18.7 237.827 19.3C237.627 19.9 237.327 20.4 237.027 21.1H238.127C238.427 20.2 238.827 19.5 239.127 18.8ZM239.527 21C239.627 21 239.627 21 239.627 21.1C239.627 21.2 239.627 21.2 239.627 21.3C239.627 21.4 239.627 21.4 239.527 21.5C239.527 21.6 239.427 21.6 239.427 21.6H238.227C237.827 22.2 237.427 22.8 237.027 23.4C236.627 24 236.027 24.6 235.427 25.1C235.327 25.2 235.327 25.4 235.227 25.7C235.127 25.9 235.127 26.2 235.027 26.4C234.927 26.7 234.927 27 234.827 27.3C234.727 27.7 234.727 27.9 234.827 28.1C234.927 28.3 235.027 28.5 235.127 28.5C235.227 28.6 235.427 28.6 235.627 28.6C235.827 28.6 236.027 28.5 236.227 28.4C236.727 28 237.127 27.5 237.527 26.9C237.927 26.3 238.227 25.7 238.527 25.1C238.627 24.9 238.727 24.8 238.827 24.9C238.927 24.9 238.927 25.1 238.827 25.3C238.627 25.8 238.327 26.2 238.227 26.5C238.027 26.8 237.927 27.1 237.727 27.4C237.527 27.7 237.427 27.9 237.227 28.1C237.027 28.3 236.927 28.5 236.727 28.7C236.427 29 236.127 29.2 235.727 29.3C235.327 29.4 235.027 29.4 234.727 29.2C234.427 29.1 234.127 28.8 233.927 28.5C233.727 28.1 233.727 27.7 233.727 27.1C233.727 26.7 233.827 26.3 233.927 25.9C234.027 25.4 234.227 25 234.327 24.5C234.527 24 234.627 23.5 234.827 23C235.027 22.5 235.227 22.1 235.327 21.6H234.227C234.127 21.6 234.127 21.6 234.127 21.5C234.127 21.4 234.127 21.4 234.127 21.3C234.127 21.2 234.127 21.2 234.227 21.1C234.227 21 234.327 21 234.327 21H235.627C235.827 20.5 236.127 19.9 236.427 19.4C236.727 18.9 236.927 18.4 237.227 17.9C237.627 17.3 238.027 16.8 238.427 16.5C238.827 16.2 239.227 16.1 239.527 16.2C239.827 16.3 240.027 16.6 240.027 17.1C240.027 17.6 239.927 18.2 239.527 19.1C239.227 19.7 238.927 20.3 238.627 20.9H239.527V21Z" fill="black"/>
<path d="M240.827 30.7C240.527 30.8 240.127 30.9 239.727 31C239.327 31.1 238.927 31.2 238.527 31.3C238.127 31.4 237.727 31.5 237.327 31.7C236.927 31.8 236.627 31.9 236.327 32.1C235.827 32.3 235.327 32.7 234.927 33C234.527 33.4 234.327 33.8 234.227 34.1C234.127 34.5 234.127 34.8 234.227 35.1C234.327 35.4 234.627 35.5 235.127 35.5C235.627 35.5 236.127 35.4 236.627 35.1C237.127 34.8 237.627 34.5 238.127 34C238.627 33.6 239.027 33.1 239.427 32.7C239.827 32.2 240.127 31.8 240.427 31.5C240.527 31.4 240.527 31.3 240.627 31.1C240.627 31 240.727 30.8 240.827 30.7ZM247.427 25.2C247.027 25.9 246.727 26.6 246.427 27.1C246.127 27.6 245.827 28 245.427 28.4C245.027 28.8 244.627 29.1 244.127 29.4C243.627 29.7 243.027 30 242.227 30.2C241.927 30.8 241.527 31.4 241.027 32.1C240.627 32.8 240.127 33.4 239.527 34C239.027 34.6 238.327 35 237.727 35.4C237.027 35.8 236.327 35.9 235.527 35.9C235.027 35.9 234.527 35.8 234.227 35.7C233.927 35.5 233.727 35.3 233.627 35.1C233.527 34.8 233.427 34.6 233.527 34.3C233.527 34 233.627 33.7 233.827 33.4C234.027 33 234.327 32.7 234.627 32.4C235.027 32.1 235.427 31.9 235.827 31.7C236.527 31.4 237.427 31.1 238.327 30.9C239.227 30.7 240.127 30.4 241.027 30.2C241.227 29.8 241.427 29.4 241.627 29C241.827 28.6 242.027 28.1 242.127 27.7C242.327 27.3 242.427 26.8 242.527 26.4C242.627 26 242.727 25.7 242.827 25.4C242.627 25.7 242.427 26.1 242.127 26.6C241.827 27.1 241.627 27.5 241.227 27.9C240.927 28.3 240.527 28.7 240.127 29C239.727 29.3 239.327 29.4 238.927 29.4C238.827 29.4 238.727 29.4 238.527 29.4C238.427 29.4 238.227 29.3 238.127 29.3C238.027 29.2 237.927 29.1 237.727 29C237.627 28.9 237.527 28.7 237.527 28.5C237.527 28.3 237.427 28 237.527 27.8C237.527 27.6 237.627 27.4 237.727 27.2C237.827 27 237.927 26.8 238.027 26.6C238.127 26.4 238.227 26.2 238.327 26C238.227 26 238.227 26 238.127 25.9C238.027 25.9 238.027 25.8 238.127 25.6C238.227 25.5 238.227 25.4 238.327 25.2C238.427 25.1 238.427 24.9 238.527 24.8C238.727 24.4 238.927 24 239.127 23.6C239.327 23.2 239.527 22.8 239.727 22.5C239.827 22.3 239.927 22.2 240.027 22.1C240.127 22 240.327 22 240.527 22H241.827C241.727 22.1 241.627 22.2 241.427 22.3C241.227 22.4 241.127 22.6 241.027 22.8C240.627 23.4 240.327 24.1 240.027 24.7C239.727 25.3 239.427 26 239.127 26.6C238.827 27.2 238.727 27.6 238.727 28C238.727 28.4 238.727 28.6 238.927 28.8C239.027 29 239.227 29 239.527 28.9C239.827 28.8 240.127 28.5 240.427 28.1C240.727 27.8 241.027 27.3 241.327 26.9C241.627 26.4 241.927 25.9 242.227 25.4C242.527 24.9 242.827 24.4 243.027 23.9C243.327 23.4 243.527 22.9 243.727 22.5C243.827 22.3 243.927 22.2 244.027 22.1C244.127 22 244.327 22 244.527 22H245.727C245.527 22.1 245.327 22.3 245.227 22.5C245.027 22.7 244.927 22.9 244.827 23.1C244.727 23.3 244.527 23.6 244.427 23.9C244.327 24.2 244.227 24.5 244.027 24.9C243.727 25.6 243.527 26.4 243.227 27.3C242.927 28.1 242.627 29 242.327 29.9C242.527 29.8 242.827 29.7 243.127 29.6C243.427 29.5 243.727 29.3 243.927 29.2C244.227 29 244.427 28.8 244.727 28.6C245.027 28.4 245.227 28.1 245.427 27.8C245.727 27.3 246.027 26.8 246.227 26.4C246.427 26 246.627 25.6 246.727 25.4C246.827 25.2 246.927 25.1 247.027 25.2C247.527 24.9 247.527 25 247.427 25.2Z" fill="black"/>
</svg>
