<svg width="816" height="68" viewBox="0 0 816 68" fill="none" xmlns="http://www.w3.org/2000/svg">
<path d="M815 39.8535C797.648 27.5583 742.507 17.5685 676.956 14.7143C611.404 11.9698 538.525 16.4707 494.953 26.1312C451.38 35.7917 439.041 50.0629 464.105 61.919C469.117 64.2244 477.215 66.7493 490.326 66.9688C508.834 67.4079 520.788 63.1266 521.174 59.6136C521.945 50.8314 486.855 43.1469 445.21 39.3046C403.566 35.3526 356.522 34.4744 310.636 33.2668C264.75 32.0593 217.321 30.5224 179.147 25.5824C140.973 20.6423 114.366 11.4209 127.862 3.07778C134.032 0.443093 156.782 0.33332 166.036 2.63867C175.291 4.94401 172.592 8.45691 162.566 10.6525C152.926 12.848 137.888 14.0556 122.849 14.7143C82.3614 16.5805 38.0175 15.5925 1.00001 11.8601" stroke="#1D1D1B" stroke-width="0.75" stroke-miterlimit="10" stroke-linecap="round" stroke-linejoin="round" stroke-dasharray="3 3"/>
</svg>
