<svg width="142" height="56" viewBox="0 0 142 56" fill="none" xmlns="http://www.w3.org/2000/svg">
<path d="M91.6013 35.404C91.401 35.137 91.2007 34.8699 91.0004 34.6028" stroke="#1D1D1B" stroke-width="0.75" stroke-linecap="round" stroke-linejoin="round"/>
<path d="M89.7318 33.0004C82.0537 24.4544 69.0344 22.0508 57.2836 22.6517C52.61 22.9188 47.7361 23.5864 43.6633 25.99C39.5906 28.3936 36.5194 32.8669 36.92 37.6073C37.3874 42.2809 42.2613 46.4204 46.8014 45.0851C50.0729 44.0836 52.1426 40.6117 52.2762 37.1399C52.4097 33.7349 50.9408 30.3966 48.9379 27.5924C43.5298 19.8476 34.1158 15.0404 24.6351 15.2407C15.822 15.441 7.27598 19.9143 2.06824 26.9247" stroke="#1D1D1B" stroke-width="0.75" stroke-linecap="round" stroke-linejoin="round" stroke-dasharray="3.03 3.03"/>
<path d="M1.53408 27.7259C1.33378 27.993 1.13353 28.26 1 28.5938" stroke="#1D1D1B" stroke-width="0.75" stroke-linecap="round" stroke-linejoin="round"/>
<path d="M140.073 54.0317C140.007 54.0317 139.94 54.0317 139.873 54.0317L75.2436 41.7468C74.7095 41.68 74.3757 41.1459 74.4424 40.6117L76.2451 26.1903L59.153 18.6458C58.7524 18.5122 58.5521 18.1116 58.5521 17.711C58.5521 17.3104 58.8192 16.9766 59.153 16.7763L74.7094 10.4335C74.843 10.3668 74.9766 10.3668 75.1101 10.3668C75.3104 10.3668 75.4439 10.4336 75.6442 10.5003L81.1858 13.7718L82.7213 7.69615C82.7881 7.36232 82.9884 7.16202 83.3223 7.02849L97.2096 1.35339C97.3431 1.28663 97.4766 1.28662 97.6102 1.28662C97.8772 1.28662 98.211 1.42015 98.3446 1.62045L140.941 52.4293C141.208 52.7631 141.275 53.2305 141.008 53.5643C140.741 53.8981 140.407 54.0317 140.073 54.0317Z" fill="#A9D0DF"/>
<path d="M97.4767 2.28813L140.073 53.097L75.4439 40.812L77.3133 25.6562L59.4869 17.7778L75.0433 11.4351L81.7199 15.3743L83.5893 7.96323L97.4767 2.28813ZM97.4767 0.285156C97.2096 0.285156 96.9425 0.351925 96.7422 0.418691L82.8549 6.09379C82.254 6.36086 81.8534 6.82822 81.6531 7.42911L80.4514 12.2363L76.0448 9.69915C75.7109 9.49885 75.3771 9.43208 75.0433 9.43208C74.7762 9.43208 74.5092 9.49886 74.3089 9.56562L58.7525 15.9084C58.018 16.2422 57.4839 16.9099 57.4839 17.7111C57.4839 18.5122 57.9512 19.2467 58.6856 19.5805L75.1101 26.858L73.3741 40.545C73.2406 41.6132 73.975 42.548 74.9765 42.7483L139.606 55.0332C139.739 55.0332 139.873 55.1 140.007 55.1C140.741 55.1 141.342 54.6994 141.742 54.0985C142.143 53.364 142.076 52.4293 141.542 51.8284L98.9455 1.01959C98.6117 0.485458 98.0776 0.285156 97.4767 0.285156Z" fill="white"/>
<path d="M75.0433 11.4351L140.073 53.0302L83.5894 7.89648" stroke="#1D1D1B" stroke-width="0.75" stroke-miterlimit="10" stroke-linecap="round" stroke-linejoin="round"/>
<path d="M77.3134 25.5894L140.073 53.0302L76.7793 29.7957L77.3134 25.5894Z" fill="#1D1D1B" stroke="#1D1D1B" stroke-width="0.75" stroke-miterlimit="10" stroke-linecap="round" stroke-linejoin="round"/>
</svg>
