<svg width="93" height="129" viewBox="0 0 93 129" fill="none" xmlns="http://www.w3.org/2000/svg">
<path d="M1.34746 30.0105C-1.20578 38.4921 -0.11286 47.5556 2.93347 55.8728C5.97981 64.19 11.1852 72.1957 19.2611 76.8924C23.158 79.13 27.864 80.4527 32.4722 79.6927C36.2869 79.1305 39.6295 77.1949 42.3393 74.6714C45.049 72.148 46.981 69.1054 48.6994 65.9863C52.8083 58.5432 55.4987 50.3516 56.6863 41.9837C57.3683 37.0483 57.4096 31.8838 56.1539 26.9777C54.7532 22.1403 51.8419 17.4849 47.4572 14.5909C43.6368 12.1397 39.0677 11.1071 34.4831 10.7915C27.1751 10.3445 19.2029 10.7439 13.0898 14.6994C7.2746 18.1592 3.20507 23.8095 1.34746 30.0105Z" stroke="black" stroke-width="0.75" stroke-miterlimit="10" stroke-linecap="round" stroke-linejoin="round"/>
<path d="M7.25172 55.25C8.68957 61.6666 13.0801 67.574 19.0283 71.1479" stroke="black" stroke-width="0.75" stroke-miterlimit="10" stroke-linecap="round" stroke-linejoin="round"/>
<path d="M18.9402 65.3347C20.388 68.0209 23.4992 70.0979 26.8711 70.1" stroke="black" stroke-width="0.75" stroke-miterlimit="10" stroke-linecap="round" stroke-linejoin="round"/>
<path d="M27.8876 79.3772C25.9792 81.3442 24.3529 83.5326 23.0087 85.9424C22.1153 87.4295 21.4275 89.3515 22.5481 90.5957C23.6002 91.6948 25.3245 91.5891 26.7665 91.2619C28.2085 90.9348 29.6583 90.2491 31.2297 90.5705C33.0145 90.9683 34.6994 92.6553 36.4314 92.191C37.5149 91.856 38.1871 90.6511 38.2107 89.5754C38.2342 88.4998 37.5406 87.4085 37.0606 86.3936C35.6735 84.2109 34.21 82.2418 32.533 80.1963" stroke="black" stroke-width="0.75" stroke-miterlimit="10" stroke-linecap="round" stroke-linejoin="round"/>
<path d="M27.445 79.9412C27.9171 81.3147 28.4656 82.4746 29.2277 83.7109C29.4334 84.1459 29.8526 84.6573 30.4247 84.7416C31.2103 84.9023 31.8668 84.4144 32.3096 83.8502C32.5388 83.2095 32.5545 82.4925 32.5702 81.7754" stroke="black" stroke-width="0.75" stroke-miterlimit="10" stroke-linecap="round" stroke-linejoin="round"/>
<path d="M30.4439 90.4098C29.6954 91.8283 28.8784 93.1018 28.702 94.6045C28.5256 96.1073 28.9899 97.8393 30.2634 98.6563C31.2548 99.252 32.3989 99.4205 33.5431 99.5891C37.685 100.469 41.2076 103.416 42.4183 107.101C43.774 110.718 42.8178 115.073 40.1687 118.1C38.6267 119.717 36.589 121.035 35.6113 123.094C34.6335 125.153 35.2878 128.038 37.4312 128.443" stroke="black" stroke-width="0.75" stroke-miterlimit="10" stroke-linecap="round" stroke-linejoin="round"/>
<path d="M42.4878 31.8441C44.1041 33.3861 46.079 34.9359 48.2381 34.6244C49.7487 34.4423 50.9929 33.3217 51.5964 31.9718C52.1999 30.6219 52.2313 29.1876 51.9042 27.7456C51.2127 23.2824 47.1202 16.8793 41.1228 18.8286C34.3319 20.9757 39.4001 28.6915 42.4878 31.8441Z" stroke="black" stroke-width="0.75" stroke-miterlimit="10" stroke-linecap="round" stroke-linejoin="round"/>
</svg>
