<svg width="185" height="182" viewBox="0 0 185 182" fill="none" xmlns="http://www.w3.org/2000/svg">
<path d="M20.3882 64.326C21.4477 77.4099 27.8533 89.3268 36.5512 99.1583C45.2491 108.99 56.7582 117.225 70.4404 119.342C77.0271 120.325 84.236 119.607 90.1845 116.068C95.145 113.231 98.7118 108.754 101.088 103.808C103.464 98.8612 104.486 93.6185 105.172 88.3858C106.82 75.8944 106.107 63.1365 103.224 50.9472C101.498 43.768 98.7647 36.6187 94.381 30.527C89.8342 24.6083 83.3013 19.7571 75.6868 18.1327C69.0902 16.8144 62.2271 17.8582 55.7299 19.8999C45.4034 23.2318 34.6178 28.0906 28.3193 36.8522C22.1639 44.7688 19.6011 54.765 20.3882 64.326Z" stroke="white" stroke-width="0.75" stroke-miterlimit="10" stroke-linecap="round" stroke-linejoin="round"/>
<path d="M42.1737 95.9653C47.625 104.043 56.8758 109.823 67.0152 111.541" stroke="white" stroke-width="0.75" stroke-miterlimit="10" stroke-linecap="round" stroke-linejoin="round"/>
<path d="M63.7528 103.566C67.2022 106.491 72.6178 107.676 77.272 105.857" stroke="white" stroke-width="0.75" stroke-miterlimit="10" stroke-linecap="round" stroke-linejoin="round"/>
<path d="M83.6875 118.11C82.1168 121.856 81.0551 125.754 80.5023 129.806C80.0729 132.341 80.1623 135.365 82.381 136.476C84.4268 137.425 86.7491 136.347 88.5622 135.116C90.3754 133.886 92.0056 132.156 94.3477 131.751C97.0257 131.335 100.262 132.753 102.402 131.176C103.716 130.129 103.992 128.103 103.444 126.605C102.895 125.108 101.348 123.977 100.137 122.836C97.0438 120.573 93.9602 118.647 90.5406 116.73" stroke="white" stroke-width="0.75" stroke-miterlimit="10" stroke-linecap="round" stroke-linejoin="round"/>
<path d="M83.3815 119.128C84.7752 120.768 86.1589 122.072 87.8786 123.366C88.3975 123.855 89.2523 124.335 90.0873 124.142C91.2583 123.939 91.9005 122.911 92.2067 121.893C92.1769 120.885 91.8111 119.887 91.4453 118.889" stroke="white" stroke-width="0.75" stroke-miterlimit="10" stroke-linecap="round" stroke-linejoin="round"/>
<path d="M93.1765 131.954C92.9101 134.316 92.4707 136.514 93.0393 138.683C93.6079 140.852 95.1845 142.992 97.3834 143.431C99.0733 143.717 100.743 143.332 102.413 142.946C108.604 141.922 115.058 144.086 118.72 148.517C122.545 152.776 123.579 159.303 121.559 164.911C120.304 167.975 118.205 170.895 117.968 174.265C117.731 177.635 120.193 181.262 123.37 180.663" stroke="white" stroke-width="0.75" stroke-miterlimit="10" stroke-linecap="round" stroke-linejoin="round"/>
<path d="M78.1516 44.6266C81.2153 45.8811 84.778 46.9527 87.5892 45.3563C89.5754 44.2887 90.6868 42.0701 90.7902 39.8811C90.8936 37.6922 90.1621 35.696 88.9315 33.8828C85.5657 28.0973 76.4582 21.4726 69.2353 27.4031C61.0242 34.0354 72.1873 41.9445 78.1516 44.6266Z" stroke="white" stroke-width="0.75" stroke-miterlimit="10" stroke-linecap="round" stroke-linejoin="round"/>
</svg>
