<svg width="97" height="66" viewBox="0 0 97 66" fill="none" xmlns="http://www.w3.org/2000/svg">
<path d="M90.0998 64.8469C92.829 60.4802 95.0124 55.5677 95.5582 50.2913C96.104 45.0149 94.6485 39.5566 91.0096 35.9177C87.3707 32.0969 83.004 30.2774 78.2734 32.4607C80.4568 25.5468 81.3666 17.7232 77.9096 11.1732C73.543 2.80376 62.6262 -0.835118 53.529 1.89405C44.4318 4.44128 37.3359 12.8107 33.697 21.5441C32.2414 15.9038 27.6927 11.3552 22.2344 9.71766C16.776 8.08015 10.4081 9.71767 6.22336 13.5385C2.03863 17.5413 0.219047 23.7274 1.31072 29.1858C22.0524 41.558 42.7943 52.8386 65.3554 61.7539C72.6332 64.8469 82.2762 66.1205 90.0998 64.8469Z" stroke="white" stroke-width="0.75" stroke-miterlimit="10" stroke-linecap="round" stroke-linejoin="round"/>
</svg>
