<svg width="111" height="114" viewBox="0 0 111 114" fill="none" xmlns="http://www.w3.org/2000/svg">
<path d="M73.2691 13.3166C75.8541 9.18531 81.541 7.37784 86.194 8.92707C90.8469 10.4763 94.2074 14.8658 95.2413 19.7717C96.2753 24.6776 94.2073 29.0671 91.6223 33.1984C94.9828 30.3582 100.153 30.6163 104.03 32.9401C107.649 35.264 109.717 39.6536 109.976 44.0431C110.234 48.949 108.425 53.5966 104.806 56.9533C101.187 60.31 96.5339 61.6009 91.8809 60.5681C94.7244 62.8919 97.5678 65.474 99.1188 68.8307C100.67 72.1873 100.928 76.3186 99.1188 79.417C96.7923 83.2901 92.1393 84.8394 87.7449 85.0976C82.8334 85.614 78.1806 84.8394 75.0786 81.2245C76.3711 85.0976 77.405 89.2289 77.405 93.3602C77.405 97.4914 75.8541 101.881 72.7521 104.463C70.4256 106.529 67.3237 107.303 64.2217 107.045C58.0178 106.529 51.8139 100.848 51.2969 94.6512C50.5214 98.7825 49.7458 103.172 47.6779 106.787C45.6099 110.402 41.7324 113.242 37.338 112.984C31.651 112.725 27.7737 107.045 27.2567 101.623C26.7397 96.2005 29.8416 90.7781 31.9096 85.614C28.2906 90.7781 22.8621 94.6511 16.6582 96.2004C13.2978 96.975 9.4204 97.2332 6.57693 95.4258C1.92399 92.5855 0.631501 86.1305 2.69948 80.9664C4.50896 75.8023 9.93739 71.9291 14.3318 68.8307C9.93739 68.3143 5.80147 66.2486 3.2165 62.6337C0.631533 59.0188 0.114507 54.1131 2.69948 50.4982C4.76745 47.3997 8.90331 45.8504 12.7808 45.0758C20.2772 43.5266 29.3247 44.3012 36.3041 47.3997C32.4266 42.752 28.8076 38.1042 26.9981 32.1655C25.4471 26.485 26.4811 19.5135 31.3926 15.8986C35.5285 12.8002 41.474 13.0584 46.1269 15.3822C50.7799 17.4478 54.6574 21.321 58.2763 24.9358C53.3649 21.0627 51.2969 14.3493 53.1064 8.41063C54.1404 5.05397 56.4668 1.95554 59.8272 1.18092C63.1877 0.406307 66.8067 2.21381 68.8746 4.79586C70.4256 6.8615 72.2351 9.95993 73.2691 13.3166Z" stroke="black" stroke-width="0.75" stroke-miterlimit="10" stroke-linecap="round" stroke-linejoin="round"/>
</svg>
