<svg width="74" height="77" viewBox="0 0 74 77" fill="none" xmlns="http://www.w3.org/2000/svg">
<path d="M38.5136 44.2001C37.1136 48.8001 44.1137 50.6001 45.6137 46.3001C47.2137 41.9001 39.9136 39.7001 38.5136 44.2001Z" stroke="white" stroke-width="0.75" stroke-miterlimit="10" stroke-linecap="round" stroke-linejoin="round"/>
<path d="M44.9135 48.1001C48.4135 50.7001 52.0135 53.3001 56.0135 55.1001C60.0135 56.9001 64.5135 57.8001 68.8135 56.9001C70.5135 56.5001 72.4136 55.6001 72.7136 53.9001C73.1136 52.0001 71.4135 50.4001 69.8135 49.3001C62.9135 44.8001 54.1135 43.2001 46.0135 44.9001C53.0135 41.1001 60.6135 36.5001 64.3135 29.4001C64.8135 28.5001 65.2135 27.4001 65.3135 26.4001C65.3135 25.3001 64.9135 24.2001 64.0135 23.6001C62.6135 22.7001 60.7135 23.5001 59.3135 24.3001C52.3135 28.4001 46.4136 34.4001 42.2136 41.4001C42.7136 34.9001 40.7135 28.1001 36.4135 23.1001C35.2135 21.7001 33.3136 20.3001 31.7136 21.1001C30.2136 21.8001 29.9136 23.9001 30.1136 25.6001C30.9136 32.3001 34.9135 38.1001 38.8135 43.5001C35.7135 41.7001 32.4135 40.2001 28.9135 39.4001C25.4135 38.6001 21.7135 38.5001 18.3135 39.5001C16.9135 39.9001 15.5135 40.7001 15.1135 42.0001C14.8135 43.1001 15.4135 44.4001 16.2135 45.2001C17.7135 46.7001 19.9135 47.2001 21.9135 47.4001C27.1135 48.0001 32.5135 47.6001 37.5135 46.0001C31.3135 49.4001 26.8135 54.6001 23.4135 60.8001C22.8135 61.8001 22.3135 62.9001 22.2135 64.1001C22.1135 65.3001 22.3135 66.6001 23.2135 67.4001C24.1135 68.3001 25.5135 68.5001 26.7135 68.2001C27.9135 67.9001 29.0135 67.3001 30.0135 66.5001C35.7135 62.3001 39.6136 55.9001 40.7136 48.9001C40.6136 53.2001 40.9135 57.7001 41.5135 61.9001C42.1135 66.2001 43.5136 70.4001 46.1136 73.8001C47.2136 75.2001 48.9136 76.6001 50.6136 76.1001C52.6136 75.5001 53.1136 73.0001 53.1136 70.9001C52.9136 63.2001 49.2135 54.8001 44.9135 48.1001Z" stroke="white" stroke-width="0.75" stroke-miterlimit="10" stroke-linecap="round" stroke-linejoin="round"/>
<path d="M37.8136 42.5C21.2136 34.4 8.51357 18.8 3.91357 1" stroke="white" stroke-width="0.75" stroke-miterlimit="10" stroke-linecap="round" stroke-linejoin="round"/>
<path d="M1.01354 48.2C9.81354 43.1 15.1135 32.4 13.8135 22.3C5.41352 28.2 0.713535 37.9 1.01354 48.2Z" stroke="white" stroke-width="0.75" stroke-miterlimit="10" stroke-linecap="round" stroke-linejoin="round"/>
<path d="M13.7136 23.2C10.4136 31.5 6.51362 39.5999 2.21362 47.3999" stroke="white" stroke-width="0.75" stroke-miterlimit="10" stroke-linecap="round" stroke-linejoin="round"/>
</svg>
