<svg width="121" height="118" viewBox="0 0 121 118" fill="none" xmlns="http://www.w3.org/2000/svg">
<path d="M73.8103 14.9518C78.291 8.47976 87.2527 5.49266 94.7204 7.48406C102.188 9.47547 108.66 16.4453 109.656 24.411C110.652 32.3766 106.669 40.3422 99.6989 44.325C111.15 46.8142 120.111 57.767 120.608 69.7154C120.608 81.166 112.145 92.1187 101.192 94.608C95.2179 96.1015 87.7501 94.608 83.7673 89.6294C82.2738 98.5908 75.8017 107.552 68.8318 112.531C61.364 118.007 50.9094 119.003 42.9438 114.522C34.9782 110.041 29.9997 99.5864 32.9868 91.1229C24.5233 95.1057 11.0815 89.6294 5.10727 82.1617C-0.36909 74.1961 -0.36909 63.2433 5.10727 55.7756C10.5836 48.3078 20.5406 44.325 29.9998 46.3164C26.017 44.325 23.0299 37.8529 22.532 33.3723C22.0342 28.8916 23.5277 24.9088 25.0213 20.926C29.0041 11.9647 36.9694 3.99905 46.4285 1.50979C55.8877 -0.979463 69.3297 5.99051 73.8103 14.9518Z" stroke="white" stroke-width="0.75" stroke-miterlimit="10" stroke-linecap="round" stroke-linejoin="round"/>
<path d="M46.4282 42.3336C37.9648 50.2992 35.9737 63.7411 42.4458 73.6982C48.9179 83.6552 62.8576 87.638 72.8146 82.1617C77.7931 79.1746 81.7756 74.196 83.7671 68.7196C86.7542 59.7583 85.7587 45.3207 77.7931 38.3508C68.8318 31.3809 53.3981 35.8616 46.4282 42.3336Z" stroke="white" stroke-width="0.75" stroke-miterlimit="10" stroke-linecap="round" stroke-linejoin="round"/>
</svg>
