<svg width="44" height="45" viewBox="0 0 44 45" fill="none" xmlns="http://www.w3.org/2000/svg">
<path d="M6.16835 17.375C3.98501 15.5556 2.8933 12.4625 3.62108 9.73334C4.5308 7.00417 7.07803 4.82084 9.98914 4.45695C12.9003 4.09306 15.8114 5.73056 17.085 8.27779C18.1767 4.09306 22.3613 1 26.5461 1C30.7308 1 34.7336 4.275 35.4614 8.45973C35.8253 10.6431 35.2795 13.3722 33.4601 14.6459C36.7351 15.1917 39.8281 17.7389 41.6476 20.4681C43.467 23.1973 43.8308 27.0181 42.1933 29.9292C40.5558 32.8403 36.5531 34.4778 33.642 33.2042C34.9156 36.2973 32.9142 41.2098 30.0031 43.2112C27.092 45.2126 23.0891 45.0306 20.3599 42.8473C17.6307 40.664 16.3572 37.0251 17.2669 33.5681C16.5392 34.8417 13.992 36.1153 12.5364 36.1153C10.8989 36.2973 9.44335 35.7514 7.98779 35.0237C4.71279 33.3862 1.80154 30.475 1.25571 26.8362C0.164037 23.3792 2.7114 18.8306 6.16835 17.375Z" stroke="white" stroke-width="0.75" stroke-miterlimit="10" stroke-linecap="round" stroke-linejoin="round"/>
<path d="M15.8111 27.7459C18.5403 30.8389 23.6348 31.7487 27.2737 29.5653C30.9126 27.382 32.5502 22.2875 30.7307 18.6486C29.821 16.6472 28.0014 15.1917 26 14.4639C22.9069 13.1903 17.4486 13.5542 14.9014 16.2834C11.9903 19.3764 13.4458 25.1987 15.8111 27.7459Z" stroke="white" stroke-width="0.75" stroke-miterlimit="10" stroke-linecap="round" stroke-linejoin="round"/>
</svg>
