<svg width="95" height="103" viewBox="0 0 95 103" fill="none" xmlns="http://www.w3.org/2000/svg">
<path d="M73.4679 1.07893C81.1096 0.351151 88.9332 4.71782 92.3902 11.6317C95.6652 18.5456 94.2096 27.4609 88.9332 32.9193C83.4748 38.3776 74.5594 40.0151 67.6455 36.922C65.6441 36.0123 63.8247 34.7387 63.0969 32.7373C62.1872 30.7359 62.915 28.1887 64.7344 27.279C66.3719 26.5512 68.1915 27.279 69.6471 28.0068C82.2013 34.0109 90.7526 47.4748 90.9345 61.3026C91.1165 69.3082 87.6594 78.2235 80.3817 80.9527C74.5594 83.136 68.0095 80.9527 62.5512 77.8596C58.3665 75.6763 54.5456 72.9471 51.8164 69.1263C49.0872 65.3054 47.8136 60.3929 49.2691 55.8443C57.8205 63.1221 60.1859 76.4041 55.2734 86.593C50.3609 96.7819 38.5344 102.786 27.4358 101.512C16.3371 100.239 6.33023 92.0513 2.69133 81.4985C-0.947564 70.9457 1.41763 58.5735 8.51347 49.8401" stroke="white" stroke-width="0.75" stroke-miterlimit="10" stroke-linecap="round" stroke-linejoin="round"/>
</svg>
