<svg width="46" height="85" viewBox="0 0 46 85" fill="none" xmlns="http://www.w3.org/2000/svg">
<path d="M27.9163 1.06507C34.2344 0.465102 40.703 4.0649 43.5612 9.76458C46.269 15.4643 45.0655 22.8139 40.703 27.3136C36.19 31.8133 28.8188 33.1633 23.1024 30.6134C21.4476 29.8635 19.9433 28.8135 19.3416 27.1636C18.5894 25.5137 19.1912 23.4138 20.6955 22.6639C22.0494 22.0639 23.5538 22.6639 24.7572 23.2638C35.137 28.2136 42.2072 39.3129 42.3577 50.7123C42.5081 57.3119 39.6498 64.6615 33.6326 66.9114C28.8188 68.7113 23.4033 66.9114 18.8904 64.3615C15.4305 62.5616 12.2714 60.3118 10.0149 57.1619C7.75842 54.0121 6.70536 49.9623 7.90881 46.2125C14.9791 52.2122 16.9348 63.1616 12.8731 71.5611C8.81147 79.9607 -0.966644 84.9104 -10.143 83.8604C-19.3193 82.8105 -27.593 76.0609 -30.6016 67.3614C-33.6102 58.6618 -31.6547 48.4624 -25.7879 41.2628" stroke="black" stroke-width="0.75" stroke-miterlimit="10" stroke-linecap="round" stroke-linejoin="round"/>
</svg>
