<svg width="55" height="61" viewBox="0 0 55 61" fill="none" xmlns="http://www.w3.org/2000/svg">
<path d="M23.0422 8.80854C21.4422 10.2085 20.0422 11.9085 19.4422 13.9085C18.8422 15.9085 19.3422 18.4085 20.9422 19.6085C23.3422 21.4085 26.7422 20.1085 29.2422 18.6085C33.7422 15.9085 37.7422 12.5085 42.1422 9.80854C44.5422 8.40854 52.1422 7.10855 53.5422 5.00855C55.7422 1.60855 48.9422 1.40853 46.4422 1.10853C38.1422 0.408528 29.3422 3.10854 23.0422 8.80854Z" stroke="white" stroke-width="0.75" stroke-miterlimit="10" stroke-linecap="round" stroke-linejoin="round"/>
<path d="M1.94227 49.3086C1.24227 51.3086 0.74222 53.4086 1.14222 55.5086C1.54222 57.6086 3.04222 59.5086 5.14222 59.9086C8.04222 60.4086 10.5422 57.7086 12.0422 55.1086C14.7422 50.6086 16.7423 45.8086 19.4423 41.3086C20.8423 38.9086 27.0422 34.2086 27.3422 31.8086C27.7422 27.7086 21.5422 30.7086 19.2422 31.7086C11.4422 34.9086 4.84227 41.4086 1.94227 49.3086Z" stroke="white" stroke-width="0.75" stroke-miterlimit="10" stroke-linecap="round" stroke-linejoin="round"/>
<path d="M35.2421 37.8086C34.5421 39.5086 33.9422 41.2086 34.0422 43.0086C34.0422 44.8086 34.8422 46.7086 36.4422 47.7086C39.0422 49.4086 42.6422 47.7086 44.6422 45.3086C47.7422 41.5086 48.5422 36.5086 49.5422 31.7086C50.3422 27.9086 55.3422 16.6086 47.4422 21.8086C41.9422 25.3086 37.6421 31.9086 35.2421 37.8086Z" stroke="white" stroke-width="0.75" stroke-miterlimit="10" stroke-linecap="round" stroke-linejoin="round"/>
</svg>
