<svg width="159" height="159" viewBox="0 0 159 159" fill="none" xmlns="http://www.w3.org/2000/svg">
<path d="M100.29 89.1893C95.0645 99.3828 81.1639 104.111 70.7689 99.1458C60.374 94.1808 55.3807 80.4079 60.1492 69.9441C72.552 42.409 114.914 60.6672 100.29 89.1893Z" stroke="black" stroke-width="0.75" stroke-miterlimit="10" stroke-linecap="round" stroke-linejoin="round"/>
<path d="M90.496 77.1546C89.0122 77.2967 87.7393 78.7261 87.847 80.3081" stroke="black" stroke-width="0.75" stroke-miterlimit="10" stroke-linecap="round" stroke-linejoin="round"/>
<path d="M74.6431 69.5056C73.7094 70.2816 72.7757 71.0576 71.842 71.8337" stroke="black" stroke-width="0.75" stroke-miterlimit="10" stroke-linecap="round" stroke-linejoin="round"/>
<path d="M92.5815 87.2614C87.5494 91.2349 80.2924 92.1124 74.471 89.5217C68.6495 86.931 64.4602 80.9408 64.0294 74.6125" stroke="black" stroke-width="0.75" stroke-miterlimit="10" stroke-linecap="round" stroke-linejoin="round"/>
<path d="M95.6406 54.9091C98.1869 49.8442 100.831 44.8138 103.378 39.749" stroke="black" stroke-width="0.75" stroke-miterlimit="10" stroke-linecap="round" stroke-linejoin="round"/>
<path d="M80.4257 50.7929C79.9072 41.5658 79.3887 32.3387 78.8702 23.1117" stroke="black" stroke-width="0.75" stroke-miterlimit="10" stroke-linecap="round" stroke-linejoin="round"/>
<path d="M62.6934 54.1785C61.9135 49.1619 60.1116 44.2287 57.3466 39.8405" stroke="black" stroke-width="0.75" stroke-miterlimit="10" stroke-linecap="round" stroke-linejoin="round"/>
<path d="M53.0903 64.2725C43.6978 58.3351 34.207 52.3631 24.849 46.3274" stroke="black" stroke-width="0.75" stroke-miterlimit="10" stroke-linecap="round" stroke-linejoin="round"/>
<path d="M48.7587 76.3235C42.3572 75.0739 35.8575 73.7899 29.4904 72.4421" stroke="black" stroke-width="0.75" stroke-miterlimit="10" stroke-linecap="round" stroke-linejoin="round"/>
<path d="M50.538 93.6034C40.214 99.1429 29.8556 104.781 19.4334 110.286" stroke="black" stroke-width="0.75" stroke-miterlimit="10" stroke-linecap="round" stroke-linejoin="round"/>
<path d="M66.1237 107.998C63.4891 112.37 60.7908 116.609 58.1562 120.982" stroke="black" stroke-width="0.75" stroke-miterlimit="10" stroke-linecap="round" stroke-linejoin="round"/>
<path d="M80.8768 112.173C79.857 122.957 78.9356 133.776 77.9159 144.56" stroke="black" stroke-width="0.75" stroke-miterlimit="10" stroke-linecap="round" stroke-linejoin="round"/>
<path d="M94.6198 109.155C95.6407 113.484 96.6615 117.812 97.6824 122.141" stroke="black" stroke-width="0.75" stroke-miterlimit="10" stroke-linecap="round" stroke-linejoin="round"/>
<path d="M104.223 99.0609C111.113 111.513 118.101 123.999 124.991 136.45" stroke="black" stroke-width="0.75" stroke-miterlimit="10" stroke-linecap="round" stroke-linejoin="round"/>
<path d="M112.528 92.0421C115.445 95.0496 118.265 98.0228 121.217 100.932" stroke="black" stroke-width="0.75" stroke-miterlimit="10" stroke-linecap="round" stroke-linejoin="round"/>
<path d="M116.431 82.1577C125.747 80.1261 135.402 79.647 144.899 80.8777" stroke="black" stroke-width="0.75" stroke-miterlimit="10" stroke-linecap="round" stroke-linejoin="round"/>
<path d="M113.183 66.2383C116.937 64.0234 120.691 61.8085 124.445 59.5936" stroke="black" stroke-width="0.75" stroke-miterlimit="10" stroke-linecap="round" stroke-linejoin="round"/>
<path d="M104.67 58.7338C113.963 49.5239 123.87 41.0807 134.524 33.3403" stroke="black" stroke-width="0.75" stroke-miterlimit="10" stroke-linecap="round" stroke-linejoin="round"/>
</svg>
