<svg width="62" height="44" viewBox="0 0 62 44" fill="none" xmlns="http://www.w3.org/2000/svg">
<path fill-rule="evenodd" clip-rule="evenodd" d="M43.675 3.43949C46.8483 2.98854 50.2452 4.42563 52.1409 7.00771C54.1123 9.69285 54.5328 13.4416 53.2713 16.5691C53.1938 16.7611 53.2867 16.9797 53.4788 17.0571C53.6708 17.1346 53.8893 17.0417 53.9668 16.8496C55.3217 13.4908 54.8766 9.46663 52.7455 6.56386C50.6573 3.71963 46.9083 2.15951 43.4124 2.72072L43.675 3.43949Z" fill="#FF0000"/>
<path fill-rule="evenodd" clip-rule="evenodd" d="M47.3641 20.1933C47.7829 20.2177 48.2058 20.1703 48.61 20.0438C48.8077 19.982 48.9178 19.7716 48.8559 19.574C48.7941 19.3763 48.5837 19.2662 48.3861 19.328C48.2995 19.3551 48.2118 19.3775 48.1232 19.3954C47.8778 19.6679 47.6247 19.934 47.3641 20.1933ZM52.5266 11.4144C52.5201 11.4374 52.5135 11.4603 52.507 11.4833L52.5266 11.4144ZM52.8413 1.87355C54.5122 1.79518 56.2126 2.70775 57.0752 4.14181C57.9756 5.63884 58.0166 7.62342 57.2049 9.2009C57.1102 9.38506 57.1826 9.61116 57.3668 9.70592C57.551 9.80068 57.7771 9.7282 57.8718 9.54404C58.7976 7.74476 58.7575 5.48364 57.7179 3.75524C56.6919 2.04944 54.6644 0.98399 52.67 1.13263C52.732 1.37953 52.7891 1.62654 52.8413 1.87355Z" fill="#FF0000"/>
<path fill-rule="evenodd" clip-rule="evenodd" d="M17.7171 3.43949C14.5438 2.98854 11.1469 4.42563 9.25119 7.00771C7.27981 9.69285 6.85926 13.4416 8.12082 16.5691C8.19829 16.7611 8.1054 16.9797 7.91333 17.0571C7.72126 17.1346 7.50275 17.0417 7.42527 16.8496C6.0704 13.4908 6.51547 9.46663 8.64663 6.56386C10.7348 3.71963 14.4837 2.15951 17.9797 2.72072L17.7171 3.43949Z" fill="#FF0000"/>
<path fill-rule="evenodd" clip-rule="evenodd" d="M13.9986 20.1855C14.0069 20.1937 14.0152 20.202 14.0235 20.2102L13.9986 20.1855ZM13.9334 20.1887C13.9552 20.1878 13.9769 20.1868 13.9986 20.1855L13.9334 20.1887ZM13.9243 20.1112L13.9334 20.1887C13.536 20.2048 13.1359 20.156 12.7527 20.0361C12.555 19.9742 12.4449 19.7638 12.5068 19.5662C12.5686 19.3685 12.779 19.2584 12.9766 19.3203C13.0631 19.3473 13.1509 19.3698 13.2395 19.3877C13.4615 19.6342 13.6898 19.8755 13.9243 20.1112ZM8.52134 1.86577C6.85051 1.78741 5.15006 2.69997 4.28751 4.13403C3.38708 5.63106 3.34608 7.61564 4.15775 9.19312C4.25251 9.37728 4.18003 9.60339 3.99587 9.69814C3.81171 9.7929 3.58561 9.72042 3.49085 9.53626C2.56506 7.73698 2.60521 5.47586 3.64481 3.74746C4.67081 2.04167 6.69829 0.976214 8.69269 1.12486C8.63071 1.37176 8.57361 1.61876 8.52134 1.86577Z" fill="#FF0000"/>
<mask id="mask0_2420_18" style="mask-type:luminance" maskUnits="userSpaceOnUse" x="12" y="6" width="38" height="38">
<path d="M12 6H50V44H12V6Z" fill="white"/>
</mask>
<g mask="url(#mask0_2420_18)">
<path d="M14.3454 10.5758C16.9957 6.72246 26.2686 3.97471 31 12.1312C35.7314 3.97471 45.0043 6.72246 47.6546 10.5758C54.37 20.3396 45.3908 31.8038 36.7514 38.7965C33.3812 41.5244 28.6188 41.5244 25.2486 38.7965C16.6092 31.8038 7.63005 20.3396 14.3454 10.5758Z" fill="#C71717"/>
</g>
</svg>
